<?xml version="1.0" encoding="utf-8"?>
<!-- Generator: Adobe Illustrator 16.0.0, SVG Export Plug-In . SVG Version: 6.00 Build 0)  -->
<!DOCTYPE svg PUBLIC "-//W3C//DTD SVG 1.1//EN" "http://www.w3.org/Graphics/SVG/1.1/DTD/svg11.dtd">
<svg version="1.1" id="Calque_1" xmlns="http://www.w3.org/2000/svg" xmlns:xlink="http://www.w3.org/1999/xlink" x="0px" y="0px"
	 width="500px" height="500px" viewBox="0 0 500 500" enable-background="new 0 0 500 500" xml:space="preserve">
<g>
	<path fill="#FFFFFF" d="M171.844,453.13c-0.619,19.033-4.746,34.038-9.27,46.87h39.311c1.64-18.467,2.444-32.566,3.498-32.485
		c0.988,0.073,1.824,12.553,0.326,32.485h177.777c-3.975-31.052-3.959-50.403-3.145-50.489c0.902-0.1,2.27,23.445,5.562,50.489
		h45.85c-6.022-17.956-13.32-42.673-15.993-82.193c-3.541-52.497,5.269-69.331-9.395-83.955
		c-15.173-15.138-34.863-7.315-133.253,4.893c-71.085,8.821-87.643,8.067-99.237,23.876
		C159.159,382.701,173.549,400.721,171.844,453.13z"/>
	<path fill="#512507" d="M314.894,287.692c-16.823,11.539-43.846,10.812-45.316,6.116c-0.95-3.032,8.77-7.683,15.933-12.742
		c41.776-29.509,35.493-100.417,41.125-100.225C332.641,181.045,352.158,262.139,314.894,287.692z"/>
	<path fill="#FFD5A4" d="M376.428,386.495c-14.614,47.274-146.477,65.663-173,25.05c-9.97-15.268-6.006-40.334,6.267-54.014
		c10.449-11.651,21.56-9.061,70.841-15.266c53.778-6.769,65.166-12.951,78.573-3.312
		C372.827,348.804,381.504,370.056,376.428,386.495z"/>
	<path fill="#FFD5A4" d="M300.102,308.217c-0.032,30.736,1.813,38.47-3.91,42.271c-4.089,2.712-6.604-0.152-25.051,1.563
		c-9.954,0.929-10.622,1.893-12.919,0.782c-8.136-3.938-7.56-19.846-6.685-44.213c0.559-15.485,2.09-19.232,4.338-22.324
		c5.23-7.201,13.631-9.646,22.119-12.118c9.21-2.683,13.81-4.024,17.573-1.763C301.155,275.778,300.134,284.127,300.102,308.217z"/>
	<linearGradient id="SVGID_1_" gradientUnits="userSpaceOnUse" x1="259.0049" y1="283.1934" x2="297.8726" y2="350.5142">
		<stop  offset="0.2564" style="stop-color:#EAB27A"/>
		<stop  offset="0.9128" style="stop-color:#FFD5A4;stop-opacity:0"/>
	</linearGradient>
	<path fill="url(#SVGID_1_)" d="M300.102,309.193c-0.032,30.737,1.813,38.47-3.91,42.271c-4.089,2.716-6.604-0.151-25.051,1.564
		c-9.954,0.929-10.622,1.896-12.919,0.784c-8.136-3.937-7.56-19.846-6.685-44.214c0.559-15.486,2.09-19.232,4.338-22.323
		c5.23-7.201,13.631-9.646,22.119-12.12c9.21-2.683,13.81-4.023,17.573-1.759C301.155,276.755,300.134,285.104,300.102,309.193z"/>
	<path fill="#73360B" d="M182.89,200.731c11.241,15.145,24.404,32.871,19.093,49.653c-5.115,16.172-26.332,28.157-43.454,25.358
		c-16.596-2.711-16.639-17.218-44.769-40.104c-23.145-18.826-31.367-15.722-40.218-29.841c-9.324-14.857-14.071-40.376,0-59.684
		c17.513-24.043,55.027-25.854,70.059-12.501c10.997,9.769,4.676,22.963,21,46.285C172.018,190.503,174.157,188.961,182.89,200.731z
		"/>
	<linearGradient id="SVGID_2_" gradientUnits="userSpaceOnUse" x1="175.6875" y1="178.2256" x2="87.0711" y2="229.3883">
		<stop  offset="0.1436" style="stop-color:#301406"/>
		<stop  offset="1" style="stop-color:#000000;stop-opacity:0"/>
	</linearGradient>
	<path fill="url(#SVGID_2_)" d="M156.334,165.066c14.271,43.943,50.754,48.094,49.543,72.342
		c-1.016,20.255-27.647,40.903-47.349,38.334c-16.085-2.097-14.771-17.994-44.769-40.104c-20.408-15.04-30.531-14.69-40.218-29.841
		c-2.542-3.97-10.774-17.255-8.738-34.904c1.993-17.25,13.202-33.547,30.015-41.139c15.183-6.854,36.205-7.188,48.782,3.858
		C152.653,141.563,151.556,150.339,156.334,165.066z"/>
	<path fill="#73360B" d="M356.839,23.382c40.632,36.477,39.312,101.211,20.761,144.017c-23.524,54.281-82.93,92.142-133.639,84.333
		c-31.106-4.79-58.91-26.765-72.66-37.625c-10.904-8.624-17.779-16.374-23.101-24.633c-3.008-4.675-7.863-13.142-11.925-27.266
		c-3.34-11.61-11.736-40.802-3.895-68.763c10.27-36.61,43.971-55.392,60.979-64.873C202.114,23.694,297.793-29.633,356.839,23.382z"
		/>
	<path fill="#FFD5A4" d="M338.681,180.373c-0.131,18.428-0.343,47.989-19.203,76.569c-4.355,6.599-18.501,18.495-46.8,42.285
		c-17.986,15.121-33.387,26.395-50.776,23.864c-1.352-0.195-2.312-0.508-3.17-0.741c-16.553-4.527-26.088-17.305-36.265-31.706
		c-19.007-26.903-28.511-40.354-31.095-47.008c-9.775-25.207-8.895-46.72-7.76-54.422c0.625-4.258,1.559-8.683,1.559-8.683
		c1.574-6.359,3.535-9.767,5.375-19.618c6.75-36.102-6.299-47.598-1.297-67.468c7.597-30.188,50.585-54.781,90.173-51.897
		c37.318,2.715,60.339,29.048,68.316,38.111C339.151,115.366,338.826,158.824,338.681,180.373z"/>
	<path fill="#73360B" d="M372.409,114.202c-9.966,11.917-46.915,3.801-70.06-14.271c-18.518-14.453-16.715-26.308-36.33-40.221
		c-26.979-19.14-53.365-13.005-53.816-18.415c-0.695-8.447,62.352-39.452,112.2-12.723
		C363.117,49.326,384.427,99.835,372.409,114.202z"/>
	<linearGradient id="SVGID_3_" gradientUnits="userSpaceOnUse" x1="205.708" y1="21.2222" x2="302.2852" y2="188.4987">
		<stop  offset="0" style="stop-color:#301406"/>
		<stop  offset="1" style="stop-color:#000000;stop-opacity:0"/>
	</linearGradient>
	<path fill="url(#SVGID_3_)" d="M356.839,23.382c41.359,36.914,38.616,114.458,20.93,121.437c-7.592,2.996-12.55-9.131-55.186-32.29
		c-5.723-3.109-10.159-5.347-15.004-8.678c-2.688-1.849-4.523-3.342-5.229-3.92c-5.315-4.32-8.873-8.303-10.448-10.153
		c-2.324-2.728-2.649-3.51-6.82-9.318c-3.161-4.405-7.158-9.772-8.966-12.013c-11.687-14.432-30.602-19.536-35.803-20.94
		c-3.313-0.894-9.427-2.161-13.283-2.569c-3.378-0.355-5.208-0.513-5.208-0.513c-2.053-0.176-2.427-0.176-3.459-0.339
		c-2.368-0.375-2.606-0.722-4.029-0.76c-0.745-0.021-1.32,0.06-3.866,0.684c-2.276,0.559-3.416,0.839-4.779,1.249
		c-1.728,0.518-5.409,1.618-9.086,3.049c-8.803,3.424-16.558,8.328-16.981,8.594c-5.875,3.701-13.793,8.688-20.766,18.054
		c-3.986,5.357-10.47,14.059-10.785,25.61c-0.174,6.301,1.434,15.01,1.542,15.558c0.771,4.105,1.526,6.479,2.2,11.743
		c0.19,1.488,0.603,5.035,0.733,9.612c0.044,1.705,0.163,7.498-0.738,15.121c-1.032,8.73-2.965,16.262-4.013,19.496
		c-0.934,2.875-1.244,3.985-1.852,6.202c-0.25,0.901-0.543,1.966-0.842,3.307c-0.103,0.481-0.418,1.882-0.418,1.882
		s-1.097-2.148-1.194-2.338c-1.168-2.272-2.977-6.584-3.465-7.844c-7.185-18.263-9.417-34.355-9.417-34.355
		c-1.607-11.527-3.801-27.033,1.775-45.505c4.828-15.977,12.99-26.419,17.167-31.663c12.859-16.123,26.794-23.918,43.813-33.21
		c35.987-19.645,66.757-24.72,74.034-25.827c18.22-2.775,32.397-4.779,50.487,0C320.981,3.561,340.7,8.975,356.839,23.382z"/>
	<path fill="#D89B12" d="M389.118,92.029c-0.978,0.598-3.095-1.887-6.137-4.157c-3.416-2.544-6.435-3.589-12.333-5.577
		c-11.724-3.954-23.802-5.775-23.802-5.775c-32.924-4.961-27.564-5.062-40.511-6.457c-10.183-1.1-21.407-1.393-43.846-1.982
		c-23.721-0.622-35.842-0.915-48.913,0.024c-11.54,0.828-20.207,1.451-31.898,3.916c-23.08,4.862-45.659,14.312-46.48,12.386
		c-0.032-0.079,0.304-0.888,0.989-2.5c0.608-1.436,1.25-2.93,1.347-3.141c1.803-3.957,11.562-5.376,11.562-5.376
		c7.228-1.333,14.135-4.076,21.326-5.577c14.413-3.006,13.272-3.343,23.296-5.353c17.307-3.47,31.095-4.562,38.839-5.118
		c14.042-1.008,29.846-0.413,61.452,0.782c0,0,89.082,5.21,93.16,19.982c0.157,0.567,0.868,4.032,1.477,7.463
		C389.541,90.598,389.661,91.697,389.118,92.029z"/>
	<path fill="#D89B12" d="M385.491,71.154c-0.983,0.573-4.312-3.464-4.79-4.026c-8.037-9.438-45.318-24.438-105.286-24.267
		c-12.643,0.036-33.784,0.769-59.388,5.382c-26.686,4.804-40.023,7.206-55.19,15.852c-5.468,3.117-19.126,11.526-20.055,10.217
		c-0.239-0.331,0.793-1.887,2.851-4.996c1.266-1.909,2.362-3.408,2.612-3.736C152.968,56.761,167,52.058,167,52.058
		c54.718-18.336,95.306-18.982,95.306-18.982c56.846-0.904,111.347,7.652,119.721,26.175
		C382.39,60.057,386.936,70.312,385.491,71.154z"/>
	<linearGradient id="SVGID_4_" gradientUnits="userSpaceOnUse" x1="135.1968" y1="74.4482" x2="389.4443" y2="74.4482">
		<stop  offset="0" style="stop-color:#F4CF67"/>
		<stop  offset="0.6" style="stop-color:#FFFFFF;stop-opacity:0"/>
	</linearGradient>
	<path fill="url(#SVGID_4_)" d="M389.118,92.001c-0.978,0.6-3.095-1.887-6.137-4.157c-3.416-2.542-6.435-3.59-12.333-5.577
		c-11.724-3.954-23.802-5.772-23.802-5.772c-32.924-4.964-27.564-5.064-40.511-6.46c-10.183-1.099-21.407-1.393-43.846-1.979
		c-23.721-0.624-35.842-0.915-48.913,0.025c-11.54,0.828-20.207,1.45-31.898,3.913c-23.08,4.863-45.659,14.314-46.48,12.387
		c-0.032-0.08,0.304-0.889,0.989-2.501c0.608-1.437,1.25-2.93,1.347-3.142c1.803-3.956,11.562-5.374,11.562-5.374
		c7.228-1.336,14.135-4.079,21.326-5.58c14.413-3.003,13.272-3.342,23.296-5.352c17.307-3.471,31.095-4.562,38.839-5.119
		c14.042-1.004,29.846-0.413,61.452,0.785c0,0,89.082,5.207,93.16,19.979c0.157,0.57,0.868,4.032,1.477,7.464
		C389.541,90.573,389.661,91.673,389.118,92.001z"/>
	<linearGradient id="SVGID_5_" gradientUnits="userSpaceOnUse" x1="140.748" y1="53.7295" x2="385.7734" y2="53.7295">
		<stop  offset="0" style="stop-color:#F4CF67"/>
		<stop  offset="0.4718" style="stop-color:#FFFFFF;stop-opacity:0"/>
	</linearGradient>
	<path fill="url(#SVGID_5_)" d="M385.491,71.154c-0.983,0.573-4.312-3.464-4.79-4.026c-8.037-9.438-45.318-24.438-105.286-24.267
		c-12.643,0.036-33.784,0.769-59.388,5.382c-26.686,4.804-40.023,7.206-55.19,15.852c-5.468,3.117-19.126,11.526-20.055,10.217
		c-0.239-0.331,0.793-1.887,2.851-4.996c1.266-1.909,2.362-3.408,2.612-3.736C152.968,56.761,167,52.058,167,52.058
		c54.718-18.336,95.306-18.982,95.306-18.982c56.846-0.904,111.347,7.652,119.721,26.175
		C382.39,60.057,386.936,70.312,385.491,71.154z"/>
	<path fill="#D89B12" d="M386.316,56.777c0.869,6.864-11.383,8.45-16.585,21.504c-4.432,11.098,1.01,18.516-3.954,22.387
		c-5.756,4.494-13.993-4.765-24.111-0.7c-9.297,3.733-8.46,14-15.948,15.308c-7.001,1.222-8.95-7.537-22.326-12.333
		c-11.229-4.027-16.421-0.198-20.831-5.096c-4.638-5.159,0.299-10.312-3.41-20.418c-4.458-12.165-15.091-14.185-14.032-20.652
		c0.956-5.835,9.688-4.687,14.032-12.515c5.447-9.816-4.11-19.124,1.156-26.224c4.101-5.525,10.715-1.004,23.51-6.522
		C316.729,5.953,317.772-2,325.718-1.723c7.162,0.25,7.423,6.753,18.501,12.816c14.348,7.855,25.566,3.324,28.271,9.59
		c2.525,5.868-6.842,10.907-4.888,18.901C369.959,49.218,385.349,49.142,386.316,56.777z"/>
	<path fill="#EFC59C" d="M289.263,143.626c0.287,1.059,2.432,9.045-1,11.448c-4.464,3.128-11.865-7.766-26.321-10.465
		c-17.448-3.258-31.182,8.026-34.228,3.731c-1.912-2.702,2.487-8.635,4.285-11.059c1.46-1.974,12.311-16.096,29.943-14.583
		C274.894,123.808,286.384,132.913,289.263,143.626z"/>
	<path fill="#73360B" d="M288.284,134.39c-0.586,1.05-12.131-8.401-29.802-8.607c-17.16-0.201-28.629,8.453-29.173,7.38
		c-0.608-1.181,12.372-13.462,29.173-13.342C275.827,119.944,288.937,133.23,288.284,134.39z"/>
	<path fill="#FFFFFF" d="M287.318,155.633c-0.022,2.851-4.583,4.939-7.217,6.145c-2.037,0.934-10.399,4.538-26.974,2.512
		c0,0-15.651-1.914-22.004-8.398c-0.75-0.758-2.607-2.658-2.335-4.904c0.086-0.717,0.727-1.768,2.498-3.598
		c1.76-1.816,11.507-7.613,26.327-5.818c7.685,0.931,13,3.454,17.855,5.756C281.952,150.407,287.346,152.551,287.318,155.633z"/>
	<path d="M279.145,153.064c-0.119,1.054-0.868,7.649-5.892,10.361c-1.347,0.728-3.605,0.918-8.112,1.301
		c-3.465,0.293-5.197,0.44-6.257,0.161c-4.377-1.162-8.124-6.422-8.069-11.823c0.049-5.083,3.465-10.502,7.386-11.08
		c1.156-0.168,2.498,0.244,5.181,1.072c2.834,0.874,3.378,1.401,6.494,2.653c5.795,2.329,8.151,2.21,9.113,4.306
		C279.39,150.901,279.309,151.65,279.145,153.064z"/>
	<path fill="#EFC59C" d="M155.824,130.821c-0.467,0.793-3.959,6.772-1.629,9.352c3.03,3.359,11.502-3.937,24.067-3.326
		c15.163,0.739,24.133,12.406,27.577,9.552c2.172-1.794-0.207-7.385-1.173-9.672c-0.787-1.86-6.755-15.24-21.7-17.413
		C171.996,117.718,160.505,122.798,155.824,130.821z"/>
	<path fill="#73360B" d="M158.616,123.618c0.26,0.95,11.86-4.396,26.555-1.173c14.276,3.131,21.922,12.257,22.612,11.502
		c0.755-0.829-7.375-13.147-21.331-16.272C172.051,114.446,158.328,122.564,158.616,123.618z"/>
	<path fill="#FFFFFF" d="M154.857,140.8c-0.586,2.286,2.737,4.831,4.665,6.302c1.488,1.138,7.652,5.626,21.825,7.185
		c0,0,13.392,1.471,20.05-2.499c0.782-0.464,2.737-1.629,2.987-3.478c0.081-0.589-0.217-1.553-1.298-3.359
		c-1.069-1.79-7.906-8.297-20.576-9.704c-6.576-0.731-11.523,0.269-16.042,1.181C160.429,137.647,155.498,138.332,154.857,140.8z"/>
	<path d="M178.937,151.87c2.596,3.324,7.06,3.432,7.896,3.435c4.415,0.011,9.683-2.682,10.818-7.611
		c0.787-3.442-0.587-7.336-3.232-9.264c-1.623-1.179-3.448-1.417-6.788-1.857c-2.623-0.345-3.937-0.518-5.018-0.136
		C178.263,137.962,174.972,146.801,178.937,151.87z"/>
	<path fill="#EFC59C" d="M194.457,198.187c-3.209,8.507-8.721,23.115-2.965,28.529c1.216,1.148,4.583,1.463,11.312,2.091
		c10.714,1.002,16.004-0.16,19.267-1.179c2.78-0.865,5.604-2.11,5.479-2.625c-0.202-0.82-7.554,1.452-16.319,0.345
		c-2.34-0.298-12.012-1.523-15.52-7.76c-1.852-3.299-1.559-7.239,5.137-24.992c3.774-10.013,6.946-17.564,7.988-19.856
		c4.03-8.852,7.19-14.429,7.016-14.521c-0.228-0.125-5.799,9.568-10.894,18.971C199.269,187.671,196.444,192.918,194.457,198.187z"
		/>
	<path fill="#F49090" d="M249.027,255.476c-1.304,0.558-3.198,1.313-5.527,2.053c-9.21,2.925-16.634,2.854-24.193,2.716
		c-9.818-0.177-18.952-0.433-29.433-5.111c-2.085-0.93-3.748-1.827-4.839-2.445c0.011-0.003,0.038-0.008,0.049-0.008
		c5.734-0.899,7.548-0.652,10.741-1.095c4.127-0.57,4.203-1.415,9.46-2.106c2.552-0.34,3.497-0.267,4.409-0.022
		c1.124,0.304,2.547,0.999,5.398,2.393c0.196,0.098,0.364,0.179,0.479,0.232c0.005,0,0.049-0.016,0.119-0.045
		c0.152-0.058,0.261-0.098,0.304-0.114c0,0,0-0.005,0.011-0.009c0.12-0.046,3.269-1.173,4.985-1.477
		c1.656-0.294,3.079-0.017,5.289,0.537c4.915,1.235,8.678,2.593,9.759,2.959C238.878,254.902,243.146,255.861,249.027,255.476z"/>
	<path fill="#73360B" d="M400.957,162.207c-4.98,19.621-13.717,32.282-27.25,51.899c-6.495,9.413-15.663,19.848-34.002,40.715
		c-1.367,1.559-3.752,4.304-7.521,7.291c-5.69,4.522-19.376,15.983-32.43,11.678c-12.502-4.124-16.922-20.155-18.166-24.651
		c-1.266-4.581-4.697-19.453,10.378-57.088c13.201-32.953,21.374-35.386,23.352-55.791c1.933-19.856-4.183-25.759,1.303-32.436
		c14.027-17.096,76.886-3.272,86.931,28.542C406.306,141.104,404.346,148.851,400.957,162.207z"/>
	<linearGradient id="SVGID_6_" gradientUnits="userSpaceOnUse" x1="297.4863" y1="114.1035" x2="370.9834" y2="241.4042">
		<stop  offset="0.159" style="stop-color:#301406"/>
		<stop  offset="1" style="stop-color:#000000;stop-opacity:0"/>
	</linearGradient>
	<path fill="url(#SVGID_6_)" d="M373.033,214.663c-8.406,12.412-16.486,21.601-32.644,39.977c-1.384,1.577-3.763,4.312-7.521,7.294
		c-5.689,4.522-19.375,15.983-32.431,11.675c-12.5-4.125-16.926-20.153-18.164-24.652c-1.266-4.577-4.697-19.451,10.378-57.088
		c13.195-32.949,21.374-35.382,23.351-55.787c1.933-19.854-4.198-25.86,1.303-32.437c13.902-16.642,75.658-2.484,85.574,29.281
		c2.743,8.797,0.771,16.577-2.597,29.84C395.548,181.418,387.532,193.258,373.033,214.663z"/>
	<path fill="#DD8787" d="M249.027,255.476c0,0-5.794,3.999-6.163,4.255c-13.848,9.515-28.836,8.884-28.836,8.884
		c-16.644-0.699-26.772-11.44-27.68-13.274c-0.13-0.267-1.314-2.652-1.314-2.652c12.403,4.225,22.694,5.349,30.015,5.544
		C230.319,258.645,249.076,255.47,249.027,255.476z"/>
	<path fill="#301406" d="M170.747,185.232c0,0.963-0.777,1.747-1.743,1.747c-0.961,0-1.743-0.783-1.743-1.747
		c0-0.964,0.782-1.746,1.743-1.746C169.97,183.486,170.747,184.268,170.747,185.232z"/>
	<linearGradient id="SVGID_7_" gradientUnits="userSpaceOnUse" x1="276.7578" y1="146.1216" x2="252.7867" y2="159.9613">
		<stop  offset="0.1436" style="stop-color:#301406"/>
		<stop  offset="1" style="stop-color:#000000;stop-opacity:0"/>
	</linearGradient>
	<path fill="url(#SVGID_7_)" d="M279.145,153.064c-0.119,1.054-0.868,7.649-5.892,10.361c-1.347,0.728-3.605,0.918-8.112,1.301
		c-3.465,0.293-5.197,0.44-6.257,0.161c-4.377-1.162-8.124-6.422-8.069-11.823c0.049-5.083,3.465-10.502,7.386-11.08
		c1.156-0.168,2.498,0.244,5.181,1.072c2.834,0.874,3.378,1.401,6.494,2.653c5.795,2.329,8.151,2.21,9.113,4.306
		C279.39,150.901,279.309,151.65,279.145,153.064z"/>
	<path d="M286.727,154.013c-0.549,0.798-8.9-6.365-21.369-9.199c-2.705-0.614-11.839-2.591-22.743-0.245
		c-6.744,1.453-11.806,4.054-12.034,3.573c-0.212-0.448,3.947-3.307,8.787-5.167c10.274-3.951,19.93-1.955,25.241-0.858
		c10.264,2.113,16.139,6.243,18.865,8.461C283.75,150.8,287.068,153.51,286.727,154.013z"/>
	<path d="M230.547,155.286c0.141-0.168,2.65,2.156,6.653,4.285c4.426,2.354,8.434,3.278,10.997,3.848
		c2.889,0.646,5.115,0.877,6.505,1.021c2.184,0.226,7.744,0.771,14.093-0.125c8.585-1.211,14.244-4.44,14.406-4.071
		c0.12,0.264-2.758,1.896-5.848,3.09c-3.085,1.189-6.283,1.903-10.432,2.267c-2.563,0.226-12.496,0.932-23.591-2.509
		c-2.525-0.782-5.941-2.036-9.459-4.665C232.046,157.067,230.439,155.422,230.547,155.286z"/>
	<path d="M289.403,149.616c-0.2,1.969-1.347,4.374-2.683,4.456c-0.575,0.035-0.657-0.405-3.149-2.237
		c-0.261-0.19-0.886-0.638-2.141-1.54c-1.428-1.029-2.096-1.504-2.03-1.615c0.104-0.166,2.161,1.453,3.573,0.812
		c0.711-0.326,1.01-1.113,1.228-1.681c0.494-1.29,0.331-2.818,0.331-2.818l0,0c0,0,0.451,0.598,0.581,0.788
		c0.314,0.47,0.38,0.932,0.479,1.83c0.195,1.854,0.211,2.617,0.281,2.617c0.087,0.003,0.256-0.928,0.294-2.036
		c0.087-2.356-0.478-3.939-0.348-3.975c0.157-0.041,0.988,1.504,1.379,3.533c0.37,1.927,0.142,3.22,0.294,3.233
		c0.168,0.014,0.705-1.756,0.608-3.842c-0.098-1.996-0.717-3.139-0.598-3.182C287.709,143.885,289.729,146.486,289.403,149.616z"/>
	<linearGradient id="SVGID_8_" gradientUnits="userSpaceOnUse" x1="196.168" y1="140.1191" x2="178.1091" y2="150.5454">
		<stop  offset="0.1436" style="stop-color:#301406"/>
		<stop  offset="1" style="stop-color:#000000;stop-opacity:0"/>
	</linearGradient>
	<path fill="url(#SVGID_8_)" d="M178.937,151.827c2.596,3.321,7.06,3.429,7.896,3.432c4.415,0.014,9.683-2.68,10.818-7.608
		c0.787-3.443-0.587-7.339-3.232-9.264c-1.623-1.181-3.448-1.421-6.788-1.861c-2.623-0.344-3.937-0.516-5.018-0.135
		C178.263,137.919,174.972,146.754,178.937,151.827z"/>
	<path d="M155.7,139.619c0.282,0.744,8.743-3.389,19.691-3.264c2.373,0.027,10.372,0.198,18.903,4.166
		c5.289,2.46,8.922,5.512,9.215,5.17c0.271-0.318-2.563-3.405-6.175-5.822c-7.667-5.129-16.106-5.384-20.744-5.528
		c-8.961-0.277-14.717,1.9-17.464,3.152C158.854,137.618,155.52,139.152,155.7,139.619z"/>
	<path d="M202,151.412c-0.081-0.161-2.656,1.219-6.435,2.156c-4.171,1.031-7.695,1.001-9.938,0.969
		c-2.537-0.038-4.432-0.28-5.615-0.432c-1.857-0.239-6.582-0.869-11.654-2.805c-6.859-2.615-10.861-6.283-11.078-6.02
		c-0.152,0.19,1.89,2.047,4.192,3.595c2.302,1.545,4.795,2.727,8.162,3.815c2.075,0.67,10.161,3.142,20.093,2.517
		c2.265-0.141,5.36-0.491,8.846-1.917C200.376,152.551,202.07,151.544,202,151.412z"/>
	<path d="M154.423,135.587c-0.255,1.613,0.179,3.758,1.26,4.078c0.478,0.142,0.641-0.196,3.095-1.184
		c0.261-0.103,0.875-0.342,2.107-0.823c1.407-0.548,2.064-0.801,2.031-0.901c-0.049-0.155-2.102,0.747-3.139-0.038
		c-0.521-0.396-0.598-1.083-0.657-1.58c-0.136-1.127,0.332-2.316,0.332-2.316l0,0c0,0-0.5,0.391-0.652,0.519
		c-0.358,0.315-0.51,0.67-0.788,1.372c-0.559,1.447-0.732,2.052-0.798,2.042c-0.065-0.014-0.011-0.795,0.195-1.686
		c0.435-1.904,1.249-3.062,1.141-3.115c-0.12-0.065-1.141,1.013-1.9,2.561c-0.722,1.472-0.804,2.552-0.935,2.533
		c-0.146-0.024-0.211-1.542,0.315-3.193c0.511-1.578,1.271-2.374,1.184-2.431C157.052,131.327,154.825,133.018,154.423,135.587z"/>
</g>
</svg>
