<?xml version="1.0" encoding="utf-8"?>
<!-- Generator: Adobe Illustrator 16.0.0, SVG Export Plug-In . SVG Version: 6.00 Build 0)  -->
<!DOCTYPE svg PUBLIC "-//W3C//DTD SVG 1.1//EN" "http://www.w3.org/Graphics/SVG/1.1/DTD/svg11.dtd">
<svg version="1.1" id="Calque_1" xmlns="http://www.w3.org/2000/svg" xmlns:xlink="http://www.w3.org/1999/xlink" x="0px" y="0px"
	 width="500px" height="500px" viewBox="0 0 500 500" enable-background="new 0 0 500 500" xml:space="preserve">
<g>
	<path fill="#FFFFFF" d="M172.873,462.662c-0.472,14.472-2.938,26.646-6.067,37.338h37.586c1.114-13.443,1.814-22.738,2.678-22.675
		c0.822,0.063,1.539,8.536,0.944,22.675h179.389c-2.799-25.507-2.692-40.949-1.962-41.028c0.802-0.09,1.962,18.109,4.466,41.028
		h44.597c-5.276-17.288-10.712-40.218-12.944-73.35c-3.611-53.524,5.366-70.687-9.576-85.599
		c-15.474-15.434-35.545-7.457-135.859,4.99c-72.479,8.994-89.358,8.226-101.178,24.341
		C159.939,390.856,174.612,409.228,172.873,462.662z"/>
	<path fill="#512507" d="M318.717,293.992c-17.154,11.765-44.703,11.021-46.203,6.236c-0.967-3.092,8.945-7.832,16.247-12.991
		c42.592-30.087,36.187-102.379,41.93-102.184C336.81,185.263,356.707,267.937,318.717,293.992z"/>
	<path fill="#FFD5A4" d="M381.453,394.725c-14.899,48.195-149.337,66.946-176.376,25.541c-10.166-15.568-6.125-41.123,6.385-55.07
		c10.652-11.878,21.979-9.237,72.225-15.562c54.83-6.901,66.444-13.204,80.114-3.379
		C377.779,356.298,386.635,377.965,381.453,394.725z"/>
	<path fill="#FFD5A4" d="M303.641,314.917c-0.037,31.337,1.845,39.22-3.993,43.097c-4.169,2.766-6.729-0.157-25.538,1.597
		c-10.15,0.943-10.829,1.93-13.168,0.797c-8.293-4.014-7.709-20.235-6.818-45.078c0.567-15.787,2.137-19.607,4.422-22.761
		c5.334-7.339,13.895-9.834,22.554-12.355c9.392-2.733,14.084-4.102,17.913-1.795C304.706,281.844,303.667,290.356,303.641,314.917z
		"/>
	<linearGradient id="SVGID_1_" gradientUnits="userSpaceOnUse" x1="261.7373" y1="289.4043" x2="301.3638" y2="358.0394">
		<stop  offset="0.2564" style="stop-color:#EAB27A"/>
		<stop  offset="0.9128" style="stop-color:#FFD5A4;stop-opacity:0"/>
	</linearGradient>
	<path fill="url(#SVGID_1_)" d="M303.641,315.914c-0.037,31.338,1.845,39.221-3.993,43.096c-4.169,2.769-6.729-0.155-25.538,1.596
		c-10.15,0.947-10.829,1.932-13.168,0.799c-8.293-4.015-7.709-20.232-6.818-45.076c0.567-15.79,2.137-19.607,4.422-22.763
		c5.334-7.339,13.895-9.832,22.554-12.355c9.392-2.733,14.084-4.103,17.913-1.795C304.706,282.84,303.667,291.354,303.641,315.914z"
		/>
	<path fill="#73360B" d="M184.136,205.329c11.459,15.441,24.875,33.516,19.466,50.626c-5.212,16.488-26.848,28.706-44.311,25.854
		c-16.91-2.766-16.953-17.555-45.641-40.887c-23.593-19.194-31.977-16.03-41.007-30.424c-9.498-15.148-14.339-41.163,0-60.851
		c17.86-24.512,56.109-26.36,71.434-12.745c11.21,9.96,4.768,23.41,21.408,47.19C173.048,194.901,175.227,193.331,184.136,205.329z"
		/>
	<linearGradient id="SVGID_2_" gradientUnits="userSpaceOnUse" x1="176.7949" y1="182.3848" x2="86.4407" y2="234.5508">
		<stop  offset="0.1436" style="stop-color:#301406"/>
		<stop  offset="1" style="stop-color:#000000;stop-opacity:0"/>
	</linearGradient>
	<path fill="url(#SVGID_2_)" d="M157.065,168.968c14.551,44.803,51.746,49.037,50.509,73.757
		c-1.034,20.652-28.189,41.704-48.283,39.084c-16.396-2.139-15.049-18.345-45.641-40.887
		c-20.803-15.333-31.117-14.978-41.007-30.424c-2.588-4.046-10.977-17.595-8.904-35.588c2.031-17.587,13.459-34.204,30.603-41.942
		c15.479-6.986,36.913-7.329,49.735,3.935C153.305,145.006,152.186,153.952,157.065,168.968z"/>
	<path fill="#73360B" d="M361.483,24.516c41.427,37.189,40.079,103.19,21.165,146.831c-23.985,55.343-84.544,93.945-136.246,85.982
		c-31.717-4.883-60.066-27.285-74.082-38.36c-11.12-8.794-18.125-16.694-23.55-25.114c-3.075-4.768-8.023-13.4-12.165-27.798
		c-3.404-11.838-11.963-41.6-3.967-70.108c10.468-37.324,44.825-56.472,62.171-66.14C203.735,24.833,301.281-29.536,361.483,24.516z
		"/>
	<path fill="#FFD5A4" d="M342.966,184.573c-0.132,18.789-0.344,48.928-19.572,78.068c-4.438,6.724-18.862,18.853-47.715,43.107
		c-18.343,15.417-34.044,26.915-51.767,24.335c-1.378-0.202-2.365-0.521-3.234-0.759c-16.874-4.613-26.6-17.643-36.971-32.323
		c-19.382-27.429-29.071-41.142-31.707-47.927c-9.969-25.701-9.073-47.633-7.911-55.487c0.642-4.341,1.585-8.854,1.585-8.854
		c1.607-6.482,3.606-9.958,5.483-20.001c6.883-36.811-6.422-48.529-1.32-68.787c7.747-30.778,51.575-55.849,91.935-52.914
		c38.047,2.771,61.518,29.619,69.647,38.859C343.448,118.299,343.119,162.604,342.966,184.573z"/>
	<path fill="#73360B" d="M377.36,117.11c-10.165,12.15-47.831,3.877-71.435-14.55c-18.872-14.736-17.044-26.821-37.041-41.007
		c-27.505-19.512-54.406-13.259-54.857-18.775c-0.71-8.612,63.566-40.222,114.387-12.971
		C367.884,50.969,389.615,102.464,377.36,117.11z"/>
	<linearGradient id="SVGID_3_" gradientUnits="userSpaceOnUse" x1="207.4014" y1="22.3149" x2="305.8652" y2="192.8594">
		<stop  offset="0" style="stop-color:#301406"/>
		<stop  offset="1" style="stop-color:#000000;stop-opacity:0"/>
	</linearGradient>
	<path fill="url(#SVGID_3_)" d="M361.483,24.516c42.168,37.634,39.374,116.697,21.34,123.811c-7.742,3.055-12.796-9.309-56.27-32.92
		c-5.833-3.171-10.351-5.452-15.293-8.848c-2.742-1.885-4.607-3.41-5.335-3.999c-5.42-4.404-9.041-8.466-10.643-10.348
		c-2.376-2.787-2.709-3.582-6.963-9.503c-3.225-4.489-7.291-9.964-9.137-12.247c-11.915-14.713-31.196-19.917-36.505-21.349
		c-3.377-0.913-9.608-2.203-13.538-2.617c-3.446-0.363-5.313-0.525-5.313-0.525c-2.095-0.18-2.477-0.18-3.521-0.347
		c-2.417-0.382-2.662-0.737-4.109-0.774c-0.763-0.021-1.353,0.061-3.945,0.697c-2.323,0.573-3.484,0.856-4.878,1.275
		c-1.761,0.524-5.504,1.646-9.259,3.107c-8.977,3.489-16.878,8.491-17.308,8.761c-5.992,3.772-14.068,8.858-21.175,18.406
		c-4.066,5.464-10.674,14.336-10.998,26.114c-0.18,6.421,1.464,15.301,1.57,15.861c0.79,4.185,1.559,6.604,2.243,11.97
		c0.196,1.519,0.62,5.137,0.748,9.802c0.047,1.737,0.17,7.644-0.748,15.416c-1.05,8.901-3.022,16.58-4.094,19.875
		c-0.954,2.935-1.267,4.064-1.887,6.324c-0.255,0.919-0.552,2.004-0.859,3.375c-0.111,0.488-0.424,1.915-0.424,1.915
		s-1.125-2.19-1.226-2.382c-1.188-2.316-3.028-6.713-3.532-7.999c-7.317-18.618-9.598-35.026-9.598-35.029
		c-1.633-11.748-3.871-27.561,1.813-46.392c4.916-16.29,13.241-26.938,17.505-32.28c13.104-16.439,27.315-24.385,44.666-33.859
		c36.69-20.031,68.062-25.205,75.48-26.333c18.576-2.83,33.03-4.873,51.475,0C324.927,4.307,345.028,9.827,361.483,24.516z"/>
	<path fill="#D89B12" d="M394.393,94.505c-0.997,0.61-3.148-1.925-6.257-4.24c-3.484-2.593-6.56-3.658-12.573-5.687
		c-11.952-4.03-24.265-5.886-24.265-5.886c-33.568-5.059-28.111-5.16-41.305-6.584c-10.383-1.121-21.821-1.421-44.703-2.02
		c-24.181-0.634-36.542-0.931-49.868,0.027c-11.761,0.842-20.602,1.477-32.522,3.987c-23.529,4.958-46.549,14.596-47.391,12.631
		c-0.032-0.079,0.312-0.904,1.013-2.55c0.615-1.463,1.272-2.985,1.368-3.203c1.84-4.033,11.788-5.48,11.788-5.48
		c7.371-1.36,14.414-4.158,21.747-5.685c14.694-3.065,13.528-3.409,23.752-5.456c17.647-3.54,31.705-4.653,39.602-5.218
		c14.312-1.026,30.421-0.421,62.647,0.798c0,0,90.821,5.311,94.979,20.37c0.16,0.579,0.886,4.11,1.507,7.61
		C394.822,93.044,394.95,94.168,394.393,94.505z"/>
	<path fill="#D89B12" d="M390.692,73.222c-0.997,0.583-4.392-3.532-4.879-4.107c-8.198-9.62-46.203-24.913-107.34-24.741
		c-12.896,0.037-34.448,0.785-60.559,5.489c-27.199,4.897-40.801,7.347-56.263,16.161c-5.579,3.179-19.498,11.753-20.453,10.417
		c-0.239-0.336,0.811-1.922,2.911-5.094c1.294-1.946,2.408-3.475,2.662-3.81c6.863-8.991,21.164-13.785,21.164-13.785
		c55.792-18.695,97.17-19.355,97.17-19.355c57.96-0.92,113.518,7.803,122.056,26.687C387.531,61.906,392.165,72.363,390.692,73.222z
		"/>
	<linearGradient id="SVGID_4_" gradientUnits="userSpaceOnUse" x1="135.5073" y1="76.5806" x2="394.7266" y2="76.5806">
		<stop  offset="0" style="stop-color:#F4CF67"/>
		<stop  offset="0.6" style="stop-color:#FFFFFF;stop-opacity:0"/>
	</linearGradient>
	<path fill="url(#SVGID_4_)" d="M394.393,94.479c-0.997,0.607-3.148-1.925-6.257-4.239c-3.484-2.593-6.56-3.659-12.573-5.688
		c-11.952-4.029-24.265-5.886-24.265-5.886c-33.568-5.059-28.111-5.16-41.305-6.583c-10.383-1.122-21.821-1.421-44.703-2.021
		c-24.181-0.633-36.542-0.933-49.868,0.024c-11.761,0.846-20.602,1.479-32.522,3.99c-23.529,4.958-46.549,14.596-47.391,12.631
		c-0.032-0.08,0.312-0.906,1.013-2.551c0.615-1.463,1.272-2.988,1.368-3.203c1.84-4.032,11.788-5.48,11.788-5.48
		c7.371-1.36,14.414-4.157,21.747-5.687c14.694-3.062,13.528-3.407,23.752-5.457c17.647-3.537,31.705-4.65,39.602-5.215
		c14.312-1.028,30.421-0.421,62.647,0.798c0,0,90.821,5.311,94.979,20.371c0.16,0.578,0.886,4.109,1.507,7.609
		C394.822,93.018,394.95,94.142,394.393,94.479z"/>
	<linearGradient id="SVGID_5_" gradientUnits="userSpaceOnUse" x1="141.165" y1="55.4561" x2="390.9805" y2="55.4561">
		<stop  offset="0" style="stop-color:#F4CF67"/>
		<stop  offset="0.4718" style="stop-color:#FFFFFF;stop-opacity:0"/>
	</linearGradient>
	<path fill="url(#SVGID_5_)" d="M390.692,73.222c-0.997,0.583-4.392-3.532-4.879-4.107c-8.198-9.62-46.203-24.913-107.34-24.741
		c-12.896,0.037-34.448,0.785-60.559,5.489c-27.199,4.897-40.801,7.347-56.263,16.161c-5.579,3.179-19.498,11.753-20.453,10.417
		c-0.239-0.336,0.811-1.922,2.911-5.094c1.294-1.946,2.408-3.475,2.662-3.81c6.863-8.991,21.164-13.785,21.164-13.785
		c55.792-18.695,97.17-19.355,97.17-19.355c57.96-0.92,113.518,7.803,122.056,26.687C387.531,61.906,392.165,72.363,390.692,73.222z
		"/>
	<path fill="#D89B12" d="M391.534,58.562c0.886,7-11.602,8.614-16.91,21.924c-4.513,11.317,1.035,18.878-4.024,22.826
		c-5.871,4.582-14.271-4.857-24.59-0.716c-9.477,3.807-8.623,14.275-16.258,15.608c-7.133,1.247-9.126-7.683-22.76-12.573
		c-11.454-4.104-16.742-0.204-21.232-5.196c-4.736-5.261,0.296-10.513-3.479-20.816c-4.55-12.403-15.388-14.463-14.306-21.058
		c0.975-5.947,9.879-4.775,14.306-12.758c5.547-10.007-4.194-19.496,1.178-26.737c4.178-5.632,10.918-1.026,23.969-6.647
		c13.166-5.674,14.228-13.782,22.325-13.501c7.302,0.254,7.567,6.885,18.861,13.066c14.631,8.009,26.069,3.388,28.827,9.781
		c2.577,5.981-6.974,11.12-4.979,19.268C374.857,50.858,390.549,50.778,391.534,58.562z"/>
	<path fill="#EFC59C" d="M292.589,147.112c0.292,1.079,2.477,9.221-1.019,11.671c-4.55,3.187-12.101-7.917-26.838-10.672
		c-17.785-3.323-31.795,8.185-34.896,3.804c-1.952-2.753,2.534-8.802,4.364-11.275c1.489-2.011,12.552-16.411,30.532-14.868
		C277.932,126.905,289.657,136.186,292.589,147.112z"/>
	<path fill="#73360B" d="M300.4,145.783c-0.934,0.799-8.649-12.312-25.48-18.74c-16.344-6.244-30.363-2.002-30.512-3.223
		c-0.16-1.344,16.587-8.514,32.618-2.479C293.576,127.571,301.429,144.903,300.4,145.783z"/>
	<path fill="#FFFFFF" d="M290.605,159.354c-0.026,2.903-4.671,5.031-7.359,6.265c-2.073,0.95-10.601,4.622-27.496,2.559
		c0,0-15.961-1.952-22.441-8.562c-0.758-0.772-2.656-2.712-2.381-5c0.091-0.729,0.743-1.803,2.551-3.669
		c1.792-1.851,11.73-7.761,26.838-5.932c7.837,0.95,13.257,3.521,18.205,5.87C285.139,154.024,290.633,156.212,290.605,159.354z"/>
	<path d="M282.27,156.731c-0.121,1.077-0.885,7.801-6.008,10.566c-1.373,0.74-3.67,0.936-8.268,1.325
		c-3.531,0.299-5.298,0.451-6.384,0.162c-4.46-1.183-8.277-6.543-8.226-12.053c0.049-5.178,3.531-10.703,7.536-11.294
		c1.173-0.172,2.54,0.249,5.276,1.092c2.896,0.891,3.441,1.429,6.623,2.708c5.907,2.373,8.31,2.251,9.291,4.39
		C282.524,154.528,282.434,155.292,282.27,156.731z"/>
	<path fill="#EFC59C" d="M156.534,134.053c-0.466,0.81-4.03,6.905-1.654,9.536c3.086,3.425,11.73-4.015,24.542-3.388
		c15.458,0.753,24.604,12.645,28.115,9.735c2.206-1.829-0.212-7.53-1.199-9.861c-0.806-1.893-6.888-15.539-22.123-17.753
		C173.026,120.695,161.312,125.874,156.534,134.053z"/>
	<path fill="#73360B" d="M157.537,129.442c0.541,0.852,10.245-7.834,25.528-9.094c14.853-1.22,25.034,5.383,25.48,4.443
		c0.488-1.033-11.125-10.605-25.661-9.473C167.877,116.485,156.938,128.504,157.537,129.442z"/>
	<path fill="#FFFFFF" d="M155.553,144.23c-0.599,2.33,2.794,4.923,4.757,6.424c1.517,1.161,7.8,5.736,22.251,7.323
		c0,0,13.654,1.501,20.442-2.544c0.796-0.473,2.79-1.66,3.049-3.548c0.08-0.599-0.228-1.58-1.326-3.424
		c-1.092-1.824-8.06-8.46-20.983-9.895c-6.703-0.741-11.746,0.277-16.349,1.206C161.233,141.017,156.206,141.71,155.553,144.23z"/>
	<path d="M180.106,155.517c2.646,3.386,7.196,3.498,8.049,3.499c4.502,0.013,9.869-2.733,11.025-7.757
		c0.806-3.511-0.594-7.483-3.293-9.445c-1.649-1.204-3.511-1.448-6.92-1.896c-2.673-0.353-4.009-0.528-5.117-0.141
		C179.416,141.337,176.059,150.346,180.106,155.517z"/>
	<path fill="#EFC59C" d="M195.929,202.738c-3.277,8.67-8.898,23.563-3.027,29.083c1.246,1.172,4.676,1.494,11.534,2.134
		c10.928,1.018,16.316-0.163,19.646-1.203c2.837-0.883,5.711-2.15,5.584-2.675c-0.202-0.837-7.7,1.482-16.635,0.35
		c-2.382-0.303-12.25-1.55-15.824-7.911c-1.888-3.363-1.585-7.379,5.234-25.478c3.85-10.211,7.085-17.91,8.145-20.244
		c4.11-9.029,7.329-14.712,7.153-14.809c-0.232-0.127-5.907,9.758-11.109,19.345C200.834,192.016,197.955,197.366,195.929,202.738z"
		/>
	<path fill="#73360B" d="M406.463,166.056c-5.075,20.003-13.983,32.91-27.782,52.913c-6.623,9.597-15.972,20.235-34.664,41.509
		c-1.395,1.589-3.828,4.389-7.662,7.433c-5.807,4.613-19.76,16.299-33.074,11.905c-12.742-4.205-17.251-20.545-18.518-25.132
		c-1.288-4.67-4.789-19.834,10.584-58.205c13.454-33.593,21.79-36.072,23.811-56.881c1.962-20.243-4.264-26.261,1.32-33.067
		c14.302-17.428,78.387-3.336,88.626,29.102C411.919,144.537,409.914,152.436,406.463,166.056z"/>
	<linearGradient id="SVGID_6_" gradientUnits="userSpaceOnUse" x1="300.9688" y1="117.0098" x2="375.9023" y2="246.7986">
		<stop  offset="0.159" style="stop-color:#301406"/>
		<stop  offset="1" style="stop-color:#000000;stop-opacity:0"/>
	</linearGradient>
	<path fill="url(#SVGID_6_)" d="M377.997,219.536c-8.57,12.652-16.811,22.023-33.286,40.76c-1.41,1.606-3.84,4.393-7.663,7.432
		c-5.807,4.614-19.759,16.298-33.068,11.905c-12.748-4.203-17.255-20.547-18.522-25.134c-1.289-4.668-4.788-19.832,10.585-58.203
		c13.458-33.595,21.788-36.076,23.81-56.881c1.967-20.239-4.285-26.363,1.319-33.068c14.18-16.967,77.146-2.532,87.248,29.852
		c2.8,8.972,0.785,16.902-2.646,30.424C400.948,185.642,392.771,197.714,377.997,219.536z"/>
	<path fill="#301406" d="M171.759,189.529c0,0.981-0.796,1.778-1.782,1.778c-0.981,0-1.776-0.797-1.776-1.778
		c0-0.984,0.795-1.781,1.776-1.781C170.963,187.748,171.759,188.545,171.759,189.529z"/>
	<linearGradient id="SVGID_7_" gradientUnits="userSpaceOnUse" x1="279.8369" y1="149.6553" x2="255.3979" y2="163.7651">
		<stop  offset="0.1436" style="stop-color:#301406"/>
		<stop  offset="1" style="stop-color:#000000;stop-opacity:0"/>
	</linearGradient>
	<path fill="url(#SVGID_7_)" d="M282.27,156.731c-0.121,1.077-0.885,7.801-6.008,10.566c-1.373,0.74-3.67,0.936-8.268,1.325
		c-3.531,0.299-5.298,0.451-6.384,0.162c-4.46-1.183-8.277-6.543-8.226-12.053c0.049-5.178,3.531-10.703,7.536-11.294
		c1.173-0.172,2.54,0.249,5.276,1.092c2.896,0.891,3.441,1.429,6.623,2.708c5.907,2.373,8.31,2.251,9.291,4.39
		C282.524,154.528,282.434,155.292,282.27,156.731z"/>
	<path d="M290.001,157.699c-0.562,0.816-9.072-6.49-21.788-9.378c-2.758-0.628-12.07-2.643-23.186-0.249
		c-6.882,1.482-12.037,4.133-12.27,3.643c-0.217-0.458,4.024-3.372,8.957-5.267c10.474-4.028,20.315-1.995,25.733-0.879
		c10.47,2.159,16.457,6.367,19.24,8.628C286.969,154.425,290.347,157.187,290.001,157.699z"/>
	<path d="M232.726,158.995c0.143-0.169,2.699,2.201,6.783,4.372c4.507,2.398,8.601,3.339,11.205,3.921
		c2.947,0.658,5.219,0.894,6.64,1.042c2.228,0.231,7.896,0.786,14.365-0.129c8.75-1.236,14.523-4.526,14.694-4.147
		c0.117,0.267-2.822,1.93-5.967,3.146c-3.149,1.215-6.405,1.941-10.637,2.312c-2.614,0.231-12.738,0.95-24.049-2.555
		c-2.577-0.799-6.055-2.079-9.651-4.757C234.253,160.813,232.608,159.136,232.726,158.995z"/>
	<path d="M292.732,153.218c-0.206,2.004-1.378,4.457-2.735,4.541c-0.589,0.039-0.669-0.414-3.215-2.279
		c-0.264-0.194-0.901-0.652-2.179-1.569c-1.458-1.051-2.143-1.536-2.073-1.646c0.105-0.17,2.201,1.479,3.643,0.827
		c0.727-0.332,1.035-1.135,1.257-1.716c0.504-1.312,0.334-2.871,0.334-2.871l0,0c0,0,0.456,0.608,0.59,0.803
		c0.322,0.478,0.391,0.949,0.487,1.866c0.201,1.888,0.216,2.665,0.292,2.667c0.084,0.003,0.259-0.948,0.296-2.076
		c0.085-2.404-0.487-4.017-0.355-4.053c0.165-0.043,1.008,1.532,1.411,3.603c0.376,1.965,0.143,3.283,0.292,3.296
		c0.18,0.014,0.727-1.79,0.625-3.916c-0.101-2.036-0.731-3.204-0.61-3.246C291.003,147.375,293.056,150.026,292.732,153.218z"/>
	<linearGradient id="SVGID_8_" gradientUnits="userSpaceOnUse" x1="197.6714" y1="143.5332" x2="179.2607" y2="154.1626">
		<stop  offset="0.1436" style="stop-color:#301406"/>
		<stop  offset="1" style="stop-color:#000000;stop-opacity:0"/>
	</linearGradient>
	<path fill="url(#SVGID_8_)" d="M180.106,155.47c2.646,3.388,7.196,3.499,8.049,3.502c4.502,0.01,9.869-2.733,11.025-7.761
		c0.806-3.507-0.594-7.479-3.293-9.444c-1.649-1.203-3.511-1.448-6.92-1.896c-2.673-0.35-4.009-0.526-5.117-0.138
		C179.416,141.292,176.059,150.302,180.106,155.47z"/>
	<path d="M156.412,143.023c0.287,0.759,8.915-3.452,20.077-3.326c2.423,0.027,10.574,0.2,19.275,4.248
		c5.388,2.506,9.095,5.617,9.392,5.269c0.281-0.323-2.614-3.471-6.295-5.934c-7.821-5.23-16.417-5.491-21.147-5.636
		c-9.142-0.285-15.007,1.936-17.801,3.213C159.631,140.984,156.232,142.549,156.412,143.023z"/>
	<path d="M203.619,155.047c-0.08-0.165-2.705,1.242-6.56,2.196c-4.252,1.055-7.843,1.022-10.133,0.991
		c-2.583-0.04-4.519-0.288-5.727-0.443c-1.894-0.242-6.714-0.886-11.884-2.859c-6.989-2.665-11.072-6.405-11.29-6.136
		c-0.154,0.191,1.925,2.087,4.269,3.662c2.349,1.576,4.895,2.782,8.325,3.892c2.116,0.685,10.356,3.204,20.491,2.567
		c2.307-0.146,5.467-0.501,9.02-1.957C201.964,156.209,203.687,155.184,203.619,155.047z"/>
	<path d="M155.108,138.914c-0.259,1.644,0.186,3.831,1.294,4.16c0.483,0.141,0.647-0.202,3.155-1.209
		c0.26-0.104,0.885-0.35,2.142-0.837c1.438-0.56,2.105-0.816,2.074-0.92c-0.053-0.157-2.143,0.76-3.198-0.037
		c-0.535-0.406-0.615-1.105-0.673-1.615c-0.139-1.146,0.333-2.359,0.333-2.359l0,0c0,0-0.504,0.397-0.657,0.527
		c-0.372,0.322-0.531,0.685-0.806,1.401c-0.573,1.473-0.753,2.091-0.817,2.078c-0.069-0.013-0.005-0.806,0.202-1.718
		c0.445-1.941,1.267-3.121,1.167-3.173c-0.127-0.067-1.167,1.03-1.941,2.611c-0.736,1.5-0.822,2.598-0.954,2.579
		c-0.148-0.021-0.212-1.569,0.323-3.253c0.52-1.609,1.294-2.42,1.204-2.478C157.791,134.569,155.521,136.297,155.108,138.914z"/>
	<path fill="#F49090" d="M254.822,274.345c-1.828-0.871-4.465-2.033-7.731-3.142c-8.235-2.792-14.641-3.27-23.942-3.889
		c-6.268-0.42-14.397-0.924-25.04,0.397c-4.104,0.508-7.53,1.158-10.027,1.696c2.948-2.885,7.317-6.317,13.262-8.656
		c6.432-2.529,12.387-2.863,14.657-1.965c2.185,0.867,4.99,2.231,4.99,2.231c0.207,0.104,0.382,0.188,0.482,0.239
		c0.011,0,0.053-0.019,0.133-0.048c0.143-0.058,0.254-0.101,0.302-0.117c0,0,0.005-0.001,0.016-0.007
		c0.148-0.056,4.136-1.312,5.08-1.506c2.159-0.443,11.974-0.188,20.952,7.147C249.748,268.196,252.356,270.639,254.822,274.345z"/>
	<path fill="#DD8787" d="M254.822,274.345c-2.317-0.092-4.188-0.05-5.388,0c-11.522,0.486-15.961,3.768-29.525,3.768l0,0
		c-9.116,0-13.692-3.082-23.45-6.309c-1.829-0.604-4.714-1.505-8.377-2.396c7.853-1.794,14.476-2.547,19.207-2.893
		c8.076-0.595,18.591-1.277,31.324,1.896C245.713,270.181,251.254,272.591,254.822,274.345z"/>
</g>
</svg>
