<?xml version="1.0" encoding="utf-8"?>
<!-- Generator: Adobe Illustrator 16.0.0, SVG Export Plug-In . SVG Version: 6.00 Build 0)  -->
<!DOCTYPE svg PUBLIC "-//W3C//DTD SVG 1.1//EN" "http://www.w3.org/Graphics/SVG/1.1/DTD/svg11.dtd">
<svg version="1.1" id="Calque_1" xmlns="http://www.w3.org/2000/svg" xmlns:xlink="http://www.w3.org/1999/xlink" x="0px" y="0px"
	 width="500px" height="500px" viewBox="0 0 500 500" enable-background="new 0 0 500 500" xml:space="preserve">
<g>
	<path fill="#FFFFFF" d="M174.333,460.631c-0.467,14.488-2.93,26.673-6.071,37.371h37.622c1.115-13.459,1.814-22.757,2.679-22.692
		c0.818,0.062,1.54,8.539,0.945,22.692h179.526c-2.796-25.526-2.691-40.986-1.954-41.065c0.797-0.084,1.954,18.129,4.465,41.065
		h44.632c-5.28-17.301-10.714-40.249-12.955-73.411c-3.619-53.564,5.371-70.744-9.583-85.665
		c-15.486-15.445-35.58-7.466-135.966,4.992c-72.539,9.001-89.436,8.231-101.26,24.362
		C161.394,388.767,176.079,407.153,174.333,460.631z"/>
	<path fill="#512507" d="M320.298,291.829c-17.162,11.772-44.738,11.031-46.241,6.238c-0.971-3.09,8.953-7.837,16.256-13.001
		c42.626-30.109,36.226-102.46,41.968-102.266C338.405,183.011,358.317,265.753,320.298,291.829z"/>
	<path fill="#FFD5A4" d="M383.079,392.639c-14.907,48.238-149.445,67-176.512,25.562c-10.179-15.578-6.134-41.153,6.39-55.112
		c10.662-11.889,21.993-9.246,72.283-15.575c54.874-6.907,66.496-13.217,80.179-3.381
		C379.407,354.183,388.27,375.869,383.079,392.639z"/>
	<path fill="#FFD5A4" d="M305.21,312.769c-0.038,31.363,1.847,39.253-3.996,43.131c-4.172,2.769-6.739-0.157-25.559,1.596
		c-10.158,0.948-10.838,1.934-13.178,0.8c-8.302-4.018-7.717-20.249-6.824-45.111c0.567-15.803,2.138-19.623,4.432-22.779
		c5.332-7.347,13.897-9.841,22.564-12.364c9.393-2.739,14.096-4.108,17.927-1.802C306.276,279.671,305.236,288.188,305.21,312.769z"
		/>
	<linearGradient id="SVGID_1_" gradientUnits="userSpaceOnUse" x1="263.2725" y1="287.2373" x2="302.9312" y2="355.9282">
		<stop  offset="0.2564" style="stop-color:#EAB27A"/>
		<stop  offset="0.9128" style="stop-color:#FFD5A4;stop-opacity:0"/>
	</linearGradient>
	<path fill="url(#SVGID_1_)" d="M305.21,313.766c-0.038,31.362,1.847,39.254-3.996,43.133c-4.172,2.769-6.739-0.157-25.559,1.596
		c-10.158,0.947-10.838,1.932-13.178,0.799c-8.302-4.016-7.717-20.249-6.824-45.113c0.567-15.801,2.138-19.622,4.432-22.777
		c5.332-7.349,13.897-9.843,22.564-12.364c9.393-2.739,14.096-4.106,17.927-1.798C306.276,280.669,305.236,289.188,305.21,313.766z"
		/>
	<path fill="#73360B" d="M185.61,203.096c11.468,15.454,24.895,33.541,19.481,50.663c-5.221,16.502-26.874,28.729-44.345,25.874
		c-16.924-2.766-16.972-17.566-45.672-40.919c-23.617-19.209-32.007-16.042-41.044-30.449c-9.511-15.156-14.351-41.195,0-60.895
		c17.873-24.535,56.148-26.381,71.485-12.755c11.224,9.966,4.776,23.428,21.43,47.224
		C174.513,192.66,176.694,191.085,185.61,203.096z"/>
	<linearGradient id="SVGID_2_" gradientUnits="userSpaceOnUse" x1="178.2607" y1="180.1333" x2="87.8382" y2="232.3387">
		<stop  offset="0.1436" style="stop-color:#301406"/>
		<stop  offset="1" style="stop-color:#000000;stop-opacity:0"/>
	</linearGradient>
	<path fill="url(#SVGID_2_)" d="M158.518,166.705c14.562,44.837,51.786,49.075,50.544,73.815
		c-1.03,20.666-28.207,41.736-48.315,39.112c-16.41-2.137-15.062-18.358-45.672-40.919c-20.825-15.345-31.153-14.986-41.044-30.449
		c-2.59-4.048-10.986-17.605-8.911-35.613c2.033-17.603,13.469-34.23,30.627-41.975c15.486-6.996,36.936-7.335,49.769,3.938
		C154.755,142.726,153.635,151.679,158.518,166.705z"/>
	<path fill="#73360B" d="M363.1,22.136c41.452,37.221,40.11,103.273,21.18,146.95c-23.997,55.383-84.615,94.016-136.359,86.048
		c-31.736-4.888-60.109-27.308-74.129-38.392c-11.135-8.798-18.15-16.705-23.574-25.134c-3.078-4.771-8.029-13.409-12.174-27.819
		c-3.406-11.845-11.973-41.634-3.969-70.165c10.476-37.354,44.86-56.517,62.219-66.192C205.22,22.458,302.848-31.956,363.1,22.136z"
		/>
	<path fill="#FFD5A4" d="M344.561,182.324c-0.127,18.803-0.34,48.965-19.582,78.128c-4.442,6.731-18.883,18.868-47.753,43.144
		c-18.352,15.43-34.071,26.932-51.808,24.352c-1.38-0.203-2.367-0.521-3.237-0.761c-16.887-4.615-26.62-17.652-37.001-32.349
		c-19.397-27.447-29.093-41.175-31.725-47.964c-9.978-25.718-9.086-47.671-7.929-55.531c0.647-4.343,1.591-8.859,1.591-8.859
		c1.608-6.489,3.609-9.966,5.488-20.019c6.888-36.836-6.422-48.566-1.327-68.84c7.758-30.802,51.616-55.894,92.013-52.954
		c38.078,2.771,61.562,29.641,69.701,38.887C345.049,115.994,344.72,160.333,344.561,182.324z"/>
	<path fill="#73360B" d="M378.983,114.808c-10.17,12.159-47.869,3.877-71.487-14.562c-18.893-14.749-17.056-26.846-37.064-41.04
		c-27.532-19.529-54.455-13.272-54.905-18.789c-0.711-8.622,63.61-40.257,114.478-12.984
		C369.503,48.611,391.253,100.146,378.983,114.808z"/>
	<linearGradient id="SVGID_3_" gradientUnits="userSpaceOnUse" x1="208.8931" y1="19.9355" x2="307.4341" y2="190.6136">
		<stop  offset="0" style="stop-color:#301406"/>
		<stop  offset="1" style="stop-color:#000000;stop-opacity:0"/>
	</linearGradient>
	<path fill="url(#SVGID_3_)" d="M363.1,22.136c42.194,37.667,39.404,116.79,21.351,123.909c-7.739,3.057-12.802-9.316-56.31-32.946
		c-5.837-3.173-10.359-5.456-15.305-8.854c-2.744-1.888-4.617-3.41-5.34-3.999c-5.423-4.411-9.047-8.476-10.656-10.359
		c-2.379-2.786-2.705-3.583-6.963-9.51c-3.227-4.493-7.296-9.973-9.148-12.256c-11.92-14.725-31.216-19.931-36.523-21.364
		c-3.387-0.912-9.627-2.207-13.555-2.621c-3.449-0.364-5.318-0.523-5.318-0.523c-2.091-0.18-2.478-0.183-3.522-0.347
		c-2.42-0.386-2.665-0.739-4.119-0.778c-0.758-0.018-1.347,0.062-3.943,0.701c-2.324,0.57-3.486,0.857-4.882,1.273
		c-1.762,0.529-5.513,1.65-9.267,3.111c-8.984,3.494-16.891,8.496-17.327,8.77c-5.997,3.776-14.074,8.862-21.186,18.42
		c-4.07,5.466-10.678,14.348-11.006,26.132c-0.182,6.43,1.464,15.316,1.571,15.876c0.785,4.19,1.56,6.61,2.245,11.981
		c0.196,1.518,0.62,5.137,0.748,9.81c0.053,1.736,0.17,7.647-0.753,15.427c-1.046,8.908-3.02,16.591-4.092,19.891
		c-0.956,2.936-1.268,4.066-1.89,6.33c-0.254,0.92-0.552,2.006-0.859,3.375c-0.111,0.491-0.425,1.919-0.425,1.919
		s-1.125-2.192-1.226-2.386c-1.189-2.32-3.025-6.72-3.535-8.006c-7.324-18.633-9.606-35.054-9.606-35.054
		c-1.635-11.761-3.874-27.583,1.815-46.431c4.925-16.3,13.252-26.958,17.513-32.306c13.119-16.452,27.342-24.405,44.706-33.886
		c36.72-20.045,68.11-25.224,75.541-26.354c18.59-2.831,33.052-4.875,51.516,0C326.514,1.911,346.632,7.436,363.1,22.136z"/>
	<path fill="#D89B12" d="M396.034,92.182c-1.003,0.61-3.157-1.927-6.269-4.244c-3.48-2.592-6.559-3.662-12.576-5.689
		c-11.964-4.033-24.285-5.891-24.285-5.891c-33.594-5.063-28.134-5.164-41.332-6.589c-10.396-1.122-21.844-1.422-44.749-2.025
		c-24.194-0.634-36.565-0.932-49.901,0.027c-11.777,0.844-20.618,1.481-32.548,3.994c-23.553,4.961-46.585,14.604-47.428,12.638
		c-0.038-0.08,0.313-0.905,1.013-2.553c0.615-1.465,1.274-2.988,1.369-3.206c1.836-4.035,11.798-5.481,11.798-5.481
		c7.372-1.362,14.424-4.161,21.764-5.692c14.706-3.065,13.538-3.41,23.766-5.461c17.661-3.54,31.735-4.654,39.633-5.222
		c14.329-1.027,30.451-0.422,62.703,0.798c0,0,90.894,5.315,95.054,20.386c0.159,0.583,0.886,4.113,1.508,7.619
		C396.466,90.722,396.591,91.844,396.034,92.182z"/>
	<path fill="#D89B12" d="M392.33,70.881c-1.003,0.586-4.389-3.535-4.882-4.107c-8.206-9.63-46.242-24.936-107.431-24.763
		c-12.902,0.037-34.475,0.788-60.602,5.492c-27.219,4.901-40.833,7.353-56.313,16.173c-5.576,3.182-19.508,11.763-20.464,10.427
		c-0.238-0.338,0.812-1.925,2.914-5.095c1.289-1.951,2.409-3.479,2.664-3.812c6.862-9.001,21.181-13.799,21.181-13.799
		c55.83-18.71,97.245-19.368,97.245-19.368c58.006-0.923,113.609,7.807,122.153,26.708C389.167,59.559,393.801,70.024,392.33,70.881
		z"/>
	<linearGradient id="SVGID_4_" gradientUnits="userSpaceOnUse" x1="136.9424" y1="74.2432" x2="396.3682" y2="74.2432">
		<stop  offset="0" style="stop-color:#F4CF67"/>
		<stop  offset="0.6" style="stop-color:#FFFFFF;stop-opacity:0"/>
	</linearGradient>
	<path fill="url(#SVGID_4_)" d="M396.034,92.155c-1.003,0.609-3.157-1.927-6.269-4.243c-3.48-2.593-6.559-3.662-12.576-5.689
		c-11.964-4.034-24.285-5.891-24.285-5.891c-33.594-5.063-28.134-5.167-41.332-6.592c-10.396-1.119-21.844-1.42-44.749-2.021
		c-24.194-0.634-36.565-0.932-49.901,0.026c-11.777,0.844-20.618,1.481-32.548,3.994c-23.553,4.962-46.585,14.606-47.428,12.639
		c-0.038-0.079,0.313-0.904,1.013-2.552c0.615-1.465,1.274-2.989,1.369-3.206c1.836-4.036,11.798-5.482,11.798-5.482
		c7.372-1.362,14.424-4.161,21.764-5.692c14.706-3.065,13.538-3.41,23.766-5.461c17.661-3.54,31.735-4.658,39.633-5.222
		c14.329-1.027,30.451-0.422,62.703,0.799c0,0,90.894,5.314,95.054,20.387c0.159,0.578,0.886,4.113,1.508,7.618
		C396.466,90.695,396.591,91.818,396.034,92.155z"/>
	<linearGradient id="SVGID_5_" gradientUnits="userSpaceOnUse" x1="142.6055" y1="53.103" x2="392.6172" y2="53.103">
		<stop  offset="0" style="stop-color:#F4CF67"/>
		<stop  offset="0.4718" style="stop-color:#FFFFFF;stop-opacity:0"/>
	</linearGradient>
	<path fill="url(#SVGID_5_)" d="M392.33,70.881c-1.003,0.586-4.389-3.535-4.882-4.107c-8.206-9.63-46.242-24.936-107.431-24.763
		c-12.902,0.037-34.475,0.788-60.602,5.492c-27.219,4.901-40.833,7.353-56.313,16.173c-5.576,3.182-19.508,11.763-20.464,10.427
		c-0.238-0.338,0.812-1.925,2.914-5.095c1.289-1.951,2.409-3.479,2.664-3.812c6.862-9.001,21.181-13.799,21.181-13.799
		c55.83-18.71,97.245-19.368,97.245-19.368c58.006-0.923,113.609,7.807,122.153,26.708C389.167,59.559,393.801,70.024,392.33,70.881
		z"/>
	<path fill="#D89B12" d="M393.174,56.213c0.887,7.002-11.611,8.622-16.925,21.939c-4.516,11.325,1.036,18.893-4.027,22.844
		c-5.876,4.585-14.281-4.861-24.607-0.713c-9.484,3.807-8.637,14.284-16.271,15.619c-7.14,1.249-9.135-7.69-22.78-12.583
		c-11.461-4.107-16.753-0.202-21.254-5.201c-4.733-5.263,0.303-10.521-3.481-20.833c-4.548-12.411-15.4-14.472-14.317-21.071
		c0.977-5.955,9.892-4.782,14.317-12.771c5.558-10.015-4.192-19.511,1.179-26.756c4.182-5.639,10.933-1.026,23.988-6.654
		c13.181-5.679,14.243-13.794,22.349-13.512c7.308,0.255,7.573,6.891,18.877,13.079c14.636,8.014,26.089,3.391,28.849,9.786
		c2.579,5.987-6.985,11.129-4.989,19.284C376.489,48.502,392.188,48.422,393.174,56.213z"/>
	<path fill="#EFC59C" d="M294.149,144.832c0.292,1.081,2.479,9.226-1.023,11.679c-4.555,3.191-12.106-7.924-26.854-10.679
		c-17.8-3.324-31.821,8.188-34.926,3.805c-1.953-2.753,2.531-8.809,4.368-11.282c1.491-2.015,12.562-16.425,30.558-14.882
		C279.48,124.607,291.216,133.897,294.149,144.832z"/>
	<path fill="#73360B" d="M293.932,130.646c-0.425,1.152-13.564-6.545-31.406-3.958c-17.333,2.515-27.512,13.052-28.239,12.058
		c-0.802-1.093,10.342-15.528,27.293-18.069C279.083,118.058,294.399,129.375,293.932,130.646z"/>
	<path fill="#FFFFFF" d="M292.16,157.081c-0.022,2.909-4.671,5.039-7.362,6.27c-2.074,0.954-10.607,4.628-27.517,2.561
		c0,0-15.974-1.95-22.459-8.569c-0.758-0.771-2.664-2.712-2.377-5.005c0.085-0.729,0.732-1.801,2.547-3.669
		c1.794-1.852,11.739-7.769,26.86-5.937c7.844,0.951,13.262,3.524,18.22,5.874C286.693,151.75,292.191,153.936,292.16,157.081z"/>
	<path d="M283.827,154.459c-0.127,1.078-0.892,7.805-6.019,10.573c-1.374,0.742-3.673,0.936-8.273,1.326
		c-3.538,0.299-5.302,0.451-6.39,0.164c-4.463-1.186-8.283-6.551-8.229-12.062c0.052-5.186,3.534-10.715,7.54-11.303
		c1.173-0.173,2.542,0.249,5.281,1.09c2.897,0.894,3.448,1.429,6.629,2.709c5.905,2.375,8.315,2.253,9.296,4.394
		C284.07,152.252,283.986,153.015,283.827,154.459z"/>
	<path fill="#EFC59C" d="M157.987,131.764c-0.467,0.806-4.033,6.91-1.656,9.542c3.089,3.428,11.739-4.017,24.561-3.395
		c15.47,0.754,24.625,12.658,28.138,9.748c2.208-1.834-0.212-7.537-1.2-9.869c-0.806-1.897-6.893-15.553-22.14-17.769
		C174.492,118.393,162.769,123.575,157.987,131.764z"/>
	<path fill="#73360B" d="M161.118,120.643c0.127,1.001,12.62-2.709,26.992,2.688c13.957,5.243,20.347,15.571,21.154,14.913
		c0.88-0.727-5.53-14.353-19.168-19.543C176.021,113.341,160.98,119.539,161.118,120.643z"/>
	<path fill="#FFFFFF" d="M157.011,141.948c-0.605,2.33,2.792,4.927,4.755,6.429c1.518,1.161,7.807,5.741,22.268,7.33
		c0,0,13.661,1.501,20.465-2.55c0.79-0.472,2.78-1.662,3.045-3.548c0.081-0.603-0.229-1.583-1.326-3.425
		c-1.094-1.83-8.066-8.471-20.995-9.903c-6.708-0.746-11.76,0.273-16.367,1.205C162.69,138.729,157.658,139.425,157.011,141.948z"/>
	<path d="M181.571,153.242c2.654,3.391,7.207,3.503,8.062,3.504c4.506,0.012,9.876-2.737,11.033-7.766
		c0.807-3.512-0.594-7.489-3.29-9.452c-1.657-1.206-3.525-1.449-6.932-1.897c-2.675-0.35-4.013-0.529-5.116-0.138
		C180.881,139.053,177.528,148.067,181.571,153.242z"/>
	<path fill="#EFC59C" d="M197.407,200.5c-3.269,8.68-8.898,23.584-3.024,29.109c1.247,1.172,4.681,1.492,11.543,2.133
		c10.937,1.022,16.33-0.163,19.662-1.202c2.833-0.884,5.716-2.155,5.587-2.678c-0.206-0.84-7.705,1.481-16.648,0.349
		c-2.387-0.301-12.259-1.552-15.835-7.916c-1.89-3.365-1.593-7.384,5.237-25.5c3.853-10.216,7.085-17.921,8.152-20.259
		c4.113-9.035,7.34-14.722,7.159-14.818c-0.233-0.126-5.912,9.763-11.119,19.358C202.323,189.772,199.44,195.127,197.407,200.5z"/>
	<path fill="#73360B" d="M408.107,163.789c-5.073,20.021-13.989,32.936-27.798,52.953c-6.629,9.606-15.985,20.251-34.692,41.544
		c-1.396,1.589-3.837,4.392-7.669,7.44c-5.815,4.613-19.773,16.309-33.1,11.914c-12.752-4.209-17.265-20.564-18.532-25.153
		c-1.289-4.672-4.791-19.848,10.588-58.25c13.47-33.619,21.812-36.103,23.829-56.925c1.968-20.261-4.269-26.283,1.326-33.097
		c14.312-17.442,78.449-3.336,88.701,29.125C413.573,142.256,411.568,150.157,408.107,163.789z"/>
	<linearGradient id="SVGID_6_" gradientUnits="userSpaceOnUse" x1="302.5371" y1="114.7061" x2="377.5298" y2="244.5972">
		<stop  offset="0.159" style="stop-color:#301406"/>
		<stop  offset="1" style="stop-color:#000000;stop-opacity:0"/>
	</linearGradient>
	<path fill="url(#SVGID_6_)" d="M379.62,217.313c-8.571,12.663-16.813,22.038-33.308,40.791c-1.412,1.607-3.842,4.398-7.669,7.44
		c-5.811,4.614-19.772,16.309-33.099,11.914c-12.754-4.209-17.265-20.564-18.532-25.155c-1.291-4.67-4.794-19.846,10.592-58.249
		c13.47-33.622,21.808-36.103,23.829-56.925c1.963-20.258-4.288-26.385,1.326-33.097c14.191-16.978,77.202-2.535,87.312,29.876
		c2.802,8.979,0.784,16.915-2.648,30.449C402.595,183.391,394.416,195.472,379.62,217.313z"/>
	<circle fill="#301406" cx="171.443" cy="187.281" r="1.781"/>
	<linearGradient id="SVGID_7_" gradientUnits="userSpaceOnUse" x1="281.3867" y1="147.3774" x2="256.9295" y2="161.4978">
		<stop  offset="0.1436" style="stop-color:#301406"/>
		<stop  offset="1" style="stop-color:#000000;stop-opacity:0"/>
	</linearGradient>
	<path fill="url(#SVGID_7_)" d="M283.827,154.459c-0.127,1.078-0.892,7.805-6.019,10.573c-1.374,0.742-3.673,0.936-8.273,1.326
		c-3.538,0.299-5.302,0.451-6.39,0.164c-4.463-1.186-8.283-6.551-8.229-12.062c0.052-5.186,3.534-10.715,7.54-11.303
		c1.173-0.173,2.542,0.249,5.281,1.09c2.897,0.894,3.448,1.429,6.629,2.709c5.905,2.375,8.315,2.253,9.296,4.394
		C284.07,152.252,283.986,153.015,283.827,154.459z"/>
	<path d="M291.555,155.426c-0.558,0.816-9.074-6.494-21.802-9.388c-2.76-0.625-12.077-2.641-23.202-0.248
		c-6.889,1.484-12.047,4.136-12.281,3.648c-0.216-0.458,4.028-3.377,8.97-5.275c10.475-4.031,20.326-1.993,25.75-0.875
		c10.477,2.155,16.461,6.368,19.253,8.634C288.519,152.148,291.905,154.916,291.555,155.426z"/>
	<path d="M234.238,156.725c0.144-0.172,2.697,2.201,6.788,4.373c4.517,2.402,8.602,3.343,11.213,3.924
		c2.952,0.662,5.223,0.897,6.646,1.043c2.229,0.231,7.897,0.785,14.376-0.126c8.757-1.237,14.537-4.529,14.707-4.154
		c0.115,0.271-2.824,1.936-5.977,3.15c-3.141,1.218-6.401,1.946-10.646,2.317c-2.609,0.228-12.748,0.95-24.062-2.56
		c-2.58-0.799-6.061-2.079-9.658-4.761C235.766,158.543,234.121,156.867,234.238,156.725z"/>
	<path d="M294.292,150.941c-0.212,2.008-1.379,4.462-2.737,4.545c-0.594,0.036-0.668-0.411-3.216-2.279
		c-0.266-0.194-0.901-0.653-2.183-1.573c-1.458-1.049-2.144-1.535-2.073-1.647c0.106-0.171,2.203,1.479,3.641,0.826
		c0.731-0.331,1.039-1.135,1.263-1.716c0.499-1.312,0.334-2.874,0.334-2.874l0,0c0,0,0.456,0.608,0.589,0.804
		c0.329,0.48,0.393,0.951,0.489,1.869c0.201,1.892,0.216,2.668,0.298,2.671c0.078,0.003,0.252-0.949,0.29-2.077
		c0.085-2.409-0.493-4.023-0.355-4.058c0.16-0.043,1.009,1.533,1.411,3.603c0.378,1.966,0.14,3.289,0.292,3.298
		c0.177,0.014,0.728-1.791,0.622-3.92c-0.096-2.036-0.733-3.202-0.605-3.245C292.562,145.095,294.621,147.748,294.292,150.941z"/>
	<linearGradient id="SVGID_8_" gradientUnits="userSpaceOnUse" x1="199.1592" y1="141.249" x2="180.728" y2="151.8903">
		<stop  offset="0.1436" style="stop-color:#301406"/>
		<stop  offset="1" style="stop-color:#000000;stop-opacity:0"/>
	</linearGradient>
	<path fill="url(#SVGID_8_)" d="M181.571,153.197c2.654,3.389,7.207,3.5,8.062,3.501c4.506,0.013,9.876-2.736,11.033-7.764
		c0.807-3.513-0.594-7.487-3.29-9.451c-1.657-1.205-3.525-1.449-6.932-1.898c-2.675-0.353-4.013-0.528-5.116-0.137
		C180.881,139.005,177.528,148.022,181.571,153.197z"/>
	<path fill="#FFFFFF" d="M253.089,258.954c0,0-4.808,7.444-5.498,8.486c-3.625,5.459-15.184,17.18-27.926,16.025
		c-11.033-1.002-19.228-11.304-24.412-17.821c-1.317-1.658-7.404-9.542-7.409-9.545c1.273,0.546,3.168,1.287,5.535,1.904
		c10.683,2.796,14.525-1.146,25.83-0.898c10.933,0.242,13.141,4.053,25.315,3.147C248.159,259.982,251.125,259.405,253.089,258.954z
		"/>
	<path d="M157.864,140.738c0.287,0.761,8.921-3.455,20.087-3.327c2.431,0.027,10.594,0.202,19.296,4.251
		c5.393,2.508,9.103,5.624,9.4,5.274c0.28-0.326-2.616-3.473-6.3-5.94c-7.828-5.235-16.43-5.495-21.165-5.641
		c-9.149-0.281-15.019,1.938-17.82,3.215C161.086,138.7,157.685,140.263,157.864,140.738z"/>
	<path d="M205.108,152.772c-0.08-0.166-2.712,1.244-6.565,2.199c-4.255,1.054-7.854,1.023-10.142,0.989
		c-2.584-0.039-4.516-0.286-5.73-0.439c-1.896-0.245-6.719-0.887-11.895-2.861c-6.994-2.67-11.081-6.415-11.298-6.143
		c-0.154,0.193,1.927,2.089,4.272,3.667c2.35,1.576,4.898,2.783,8.332,3.893c2.117,0.687,10.37,3.205,20.506,2.569
		c2.304-0.143,5.466-0.499,9.022-1.959C203.453,153.936,205.177,152.906,205.108,152.772z"/>
	<path d="M156.56,136.625c-0.26,1.647,0.186,3.833,1.29,4.163c0.488,0.143,0.647-0.201,3.163-1.207
		c0.26-0.107,0.886-0.35,2.144-0.842c1.433-0.56,2.107-0.816,2.07-0.921c-0.048-0.156-2.144,0.764-3.194-0.037
		c-0.537-0.404-0.617-1.107-0.68-1.614c-0.133-1.146,0.34-2.363,0.34-2.363l0,0c0,0-0.51,0.398-0.659,0.531
		c-0.371,0.32-0.53,0.683-0.807,1.397c-0.573,1.475-0.753,2.096-0.818,2.083c-0.068-0.014-0.01-0.809,0.203-1.72
		c0.446-1.942,1.273-3.123,1.167-3.178c-0.127-0.064-1.167,1.034-1.942,2.613c-0.737,1.502-0.828,2.604-0.955,2.585
		c-0.149-0.023-0.213-1.575,0.329-3.256c0.514-1.611,1.294-2.423,1.199-2.481C159.25,132.28,156.973,134.006,156.56,136.625z"/>
	<path fill="#F49090" d="M253.089,258.954c-1.953,1.072-4.962,2.489-8.815,3.37c-9.69,2.212-12.688-1.713-25.161-2.398
		c-11.977-0.655-16.839,2.565-26.376-1.322c-2.175-0.884-3.862-1.838-4.94-2.496c0.011,0,0.038-0.005,0.048-0.008
		c5.848-0.916,7.706-0.666,10.958-1.114c4.214-0.582,4.293-1.444,9.654-2.151c2.605-0.344,3.566-0.271,4.5-0.021
		c1.146,0.309,2.6,1.02,5.509,2.439c0.202,0.102,0.371,0.184,0.487,0.239c0.007,0,0.055-0.019,0.129-0.049
		c0.148-0.058,0.255-0.099,0.302-0.115c0,0,0.006-0.003,0.016-0.007c0.122-0.048,3.333-1.198,5.083-1.509
		c1.688-0.299,3.142-0.018,5.393,0.55c5.02,1.26,8.863,2.646,9.96,3.019C242.74,258.371,247.092,259.348,253.089,258.954z"/>
	<path fill="#DD8787" d="M253.089,258.954c-6.666,17.801-21.047,29.369-33.578,28.33c-16.923-1.406-29.003-25.715-31.667-31.07
		c-0.021-0.043-0.037-0.08-0.048-0.106c1.657,1.67,4.177,4.142,7.356,7.016c12.173,10.996,18.261,16.495,25.361,16.973
		c7.053,0.475,12.705-3.316,18.765-7.388C246.222,268.047,250.605,262.6,253.089,258.954z"/>
</g>
</svg>
