<?xml version="1.0" encoding="utf-8"?>
<!-- Generator: Adobe Illustrator 22.0.1, SVG Export Plug-In . SVG Version: 6.00 Build 0)  -->
<svg version="1.1" id="Layer_1" xmlns="http://www.w3.org/2000/svg" xmlns:xlink="http://www.w3.org/1999/xlink" x="0px" y="0px"
	 viewBox="0 0 1450.3 500" style="enable-background:new 0 0 1450.3 500;" xml:space="preserve">
<style type="text/css">
	.st0{fill:#FFD5A4;}
	.st1{fill:url(#SVGID_1_);}
	.st2{fill:url(#SVGID_2_);}
	.st3{fill:url(#SVGID_3_);}
	.st4{fill:url(#SVGID_4_);}
	.st5{fill:url(#SVGID_5_);}
	.st6{fill:url(#SVGID_6_);}
	.st7{fill:url(#SVGID_7_);}
	.st8{fill:#383849;}
	.st9{fill:url(#SVGID_8_);}
	.st10{fill:#EFC59C;}
	.st11{fill:#969696;}
	.st12{fill:#FFFFFF;}
	.st13{fill:#684594;}
	.st14{fill:url(#SVGID_9_);}
	.st15{fill:#F9D5B2;}
	.st16{fill:#D61313;}
	.st17{fill:#6CB53F;}
	.st18{fill:#C4A26C;}
	.st19{fill:url(#SVGID_10_);}
	.st20{fill:#AF9164;}
	.st21{opacity:0.28;fill:#FFE9D7;}
	.st22{opacity:0.28;fill:#FFFFFF;}
	.st23{fill:#D6B487;}
	.st24{fill:none;stroke:#FCC13D;stroke-width:1.0721;stroke-miterlimit:10;}
	.st25{fill:none;stroke:#FCC13D;stroke-width:0.9572;stroke-miterlimit:10;}
	.st26{fill:#3F250B;}
	.st27{fill:url(#SVGID_11_);}
	.st28{fill:#2D1906;}
	.st29{fill:#1E1003;}
	.st30{fill:#BF844F;}
	.st31{fill:url(#SVGID_12_);}
	.st32{fill:#B27949;}
	.st33{fill:url(#SVGID_13_);}
	.st34{fill:url(#SVGID_14_);}
	.st35{fill:url(#SVGID_15_);}
	.st36{fill:url(#SVGID_16_);}
	.st37{fill:url(#SVGID_17_);}
	.st38{fill:url(#SVGID_18_);}
	.st39{fill:#B7B7B7;}
	.st40{fill:url(#SVGID_19_);}
	.st41{fill:url(#SVGID_20_);}
	.st42{fill:#332416;}
	.st43{fill:#DFBC11;}
	.st44{fill:url(#SVGID_21_);}
	.st45{fill:none;stroke:#1C0C04;stroke-width:0.921;stroke-miterlimit:10;}
	.st46{fill:#261108;}
	.st47{fill:#1C0C04;}
	.st48{fill:none;stroke:url(#SVGID_22_);stroke-width:0.921;stroke-miterlimit:10;}
	.st49{fill:none;stroke:url(#SVGID_23_);stroke-width:0.921;stroke-miterlimit:10;}
</style>
<path class="st0" d="M139.6,292c0,21.7,1.4,27.1-3.1,29.8c-3.2,1.9-5.2-0.1-19.9,1.1c-7.9,0.7-8.4,1.3-10.2,0.6
	c-6.5-2.8-6-14-5.3-31.2c0.4-10.9,1.7-13.6,3.4-15.7c4.1-5.1,10.8-6.8,17.5-8.5c7.3-1.9,11-2.8,13.9-1.2
	C140.5,269.1,139.6,275,139.6,292z"/>
<linearGradient id="SVGID_1_" gradientUnits="userSpaceOnUse" x1="109.3686" y1="272.39" x2="134.971" y2="316.7346">
	<stop  offset="0.2564" style="stop-color:#EAB27A"/>
	<stop  offset="0.3319" style="stop-color:#EDB780;stop-opacity:0.885"/>
	<stop  offset="0.6958" style="stop-color:#FACD9A;stop-opacity:0.3306"/>
	<stop  offset="0.9128" style="stop-color:#FFD5A4;stop-opacity:0"/>
</linearGradient>
<path class="st1" d="M139.6,289.6c0,19.1,1.4,23.9-3.1,26.2c-3.2,1.7-5.2-0.1-19.9,1c-7.9,0.6-8.4,1.2-10.2,0.5
	c-6.5-2.4-6-12.3-5.3-27.4c0.4-9.6,1.7-11.9,3.4-13.9c4.1-4.5,10.8-6,17.5-7.5c7.3-1.7,11-2.5,13.9-1.1
	C140.5,269.5,139.6,274.6,139.6,289.6z"/>
<path class="st0" d="M206.3,179c2.8,36.4-21.9,63.6-34.1,77.1c-12.4,13.8-28.5,31.7-51.6,32.1c-27.4,0.4-46.8-24.1-58.6-39.1
	C51,235.2,32.5,212,34,181c1.8-38.3,33.6-84.5,83.2-86.2C168,93.1,203.2,139.4,206.3,179z"/>
<linearGradient id="SVGID_2_" gradientUnits="userSpaceOnUse" x1="554.2884" y1="128.5432" x2="552.0494" y2="117.1225" gradientTransform="matrix(-0.9813 0.1924 0.1924 0.9813 602.2677 -68.0491)">
	<stop  offset="0" style="stop-color:#5E361B"/>
	<stop  offset="0.2962" style="stop-color:#633A1E"/>
	<stop  offset="0.6587" style="stop-color:#724525"/>
	<stop  offset="1" style="stop-color:#875530"/>
</linearGradient>
<path class="st2" d="M53.9,164.7c0.2,0.2,3.5-3.8,9.3-6c3.3-1.3,6.5-1.3,12.7-1.3c3.2,0,8.5,0,15.4,1c7.1,1.1,10.7,1.6,14.2,3.1
	c2.8,1.2,5.7,2.8,6.6,1.9c0.6-0.6,0-2.2-0.5-3c-1.1-2-3.2-2.7-4.1-3c-12.4-4.2-20.3-4.3-20.3-4.3c-1.5,0-8.4-0.1-17,2
	c-5.3,1.3-7.9,2.6-9.8,3.8C56.3,161.4,53.7,164.5,53.9,164.7z"/>
<linearGradient id="SVGID_3_" gradientUnits="userSpaceOnUse" x1="121.6312" y1="96.2962" x2="121.6312" y2="140.5162">
	<stop  offset="0" style="stop-color:#5E361B"/>
	<stop  offset="0.2962" style="stop-color:#633A1E"/>
	<stop  offset="0.6587" style="stop-color:#724525"/>
	<stop  offset="1" style="stop-color:#875530"/>
</linearGradient>
<path class="st3" d="M163.5,98.7c3.6,6.4-14.2,26.5-35.8,35.5c-20.7,8.7-46.2,7.7-48.3,1c-2.5-8.2,30.1-24.3,32.1-25.3
	C130.2,100.9,159.6,91.8,163.5,98.7z"/>
<linearGradient id="SVGID_4_" gradientUnits="userSpaceOnUse" x1="150.8882" y1="139.3138" x2="200.9573" y2="139.3138">
	<stop  offset="0" style="stop-color:#5E361B"/>
	<stop  offset="0.2962" style="stop-color:#633A1E"/>
	<stop  offset="0.6587" style="stop-color:#724525"/>
	<stop  offset="1" style="stop-color:#875530"/>
</linearGradient>
<path class="st4" d="M161.5,140.1c3.9,4.2,9.1,7.1,19.3,12.6c12.5,6.8,18.7,10.2,19.9,8.8c2.1-2.4-10.2-16.9-21.9-27.4
	c-2-1.8-23-20.5-27.1-16.9C148.9,119.6,153.9,131.9,161.5,140.1z"/>
<linearGradient id="SVGID_5_" gradientUnits="userSpaceOnUse" x1="86.0549" y1="133.6634" x2="86.0549" y2="180.2221">
	<stop  offset="0" style="stop-color:#5E361B"/>
	<stop  offset="0.2962" style="stop-color:#633A1E"/>
	<stop  offset="0.6587" style="stop-color:#724525"/>
	<stop  offset="1" style="stop-color:#875530"/>
</linearGradient>
<path class="st5" d="M74.6,180.2c0.8,0.6,11.7-9.4,18.2-25c2.5-6.1,7-16.8,3-20.3c-3.7-3.2-14.5,0.1-17.1,6.4c-2.4,5.8,4,9.6,4,19.4
	C82.8,172.2,73.9,179.6,74.6,180.2z"/>
<linearGradient id="SVGID_6_" gradientUnits="userSpaceOnUse" x1="67.8228" y1="94.7696" x2="67.8228" y2="209.0063">
	<stop  offset="0" style="stop-color:#5E361B"/>
	<stop  offset="0.2962" style="stop-color:#633A1E"/>
	<stop  offset="0.6587" style="stop-color:#724525"/>
	<stop  offset="1" style="stop-color:#875530"/>
</linearGradient>
<path class="st6" d="M105.9,95.1c8,4.9-12.6,54.2-32.8,80.2c-8.9,11.5-18,18.6-24,23.3c-7.4,5.7-16.6,11.6-17.8,10.3
	c-1.1-1.2,5.1-6.9,12.3-19.8c4.9-8.7,6.2-13.6,6.3-13.5c0.1,0-2.3,10.9-11,18c-4.6,3.7-10.2,5.8-10.8,5c-0.3-0.5,1.5-1.8,3.3-5
	c2-3.5,2.4-6.7,2.6-8.3c0.7-5.1-0.3-9.2-0.6-10.5c-2.5-10.8,4.2-26.9,11-35.8c4.9-6.5,8.2-8.9,21-15.5
	C94.2,108.6,101.3,92.2,105.9,95.1z"/>
<linearGradient id="SVGID_7_" gradientUnits="userSpaceOnUse" x1="97.5051" y1="101.0379" x2="97.5051" y2="168.457">
	<stop  offset="0" style="stop-color:#5E361B"/>
	<stop  offset="0.2962" style="stop-color:#633A1E"/>
	<stop  offset="0.6587" style="stop-color:#724525"/>
	<stop  offset="1" style="stop-color:#875530"/>
</linearGradient>
<path class="st7" d="M90.8,168.4c2,0.8,17.5-21.4,16.8-48.4c-0.1-5.7-0.4-17-5.7-18.8c-4.6-1.5-12.2,4.5-14.1,11.6
	c-2,7.6,4.1,11.7,6.9,22.4C99.5,153.3,89.1,167.8,90.8,168.4z"/>
<path class="st8" d="M206.8,185.3c-3.2,0.6-2.6-26.1-24.3-48c-24.2-24.4-58.3-24.7-64.1-24.7c-9.4,0.1-40.3,1.6-61.8,23.7
	c-19.9,20.5-19,45.3-22.4,44.8c-6.9-1-13.9-73.8,16-98.2c4.5-3.7,11.1-7.2,25.4-18.7c12-9.6,14.6-12.9,22.4-16
	c11.1-4.5,21.4-3.9,26.7-3.7c6,0.3,13.3,0.7,21.4,4.7c5.4,2.7,7.5,5.2,15,11.7c10.7,9.2,17.7,13.8,20.4,16
	C205.3,96.1,213.4,184.1,206.8,185.3z"/>
<linearGradient id="SVGID_8_" gradientUnits="userSpaceOnUse" x1="119.9132" y1="63.7645" x2="119.9132" y2="185.2663">
	<stop  offset="0" style="stop-color:#42425E"/>
	<stop  offset="4.655838e-03" style="stop-color:#42425E"/>
	<stop  offset="0.1647" style="stop-color:#3C3C52"/>
	<stop  offset="0.3886" style="stop-color:#39394B"/>
	<stop  offset="1" style="stop-color:#383849"/>
</linearGradient>
<path class="st9" d="M206.8,185.3c-0.4,0,0.4-11.8-6.9-25.3c-4.3-8-9.4-12.8-19-21.7c-12.6-11.7-19-17.6-28.1-21.4
	c-10.9-4.6-19.8-4.5-34.4-4.3c-18,0.2-30.2,0.3-42.4,8c-5.3,3.3-10.1,8.7-19.7,19.4c-6.5,7.2-10.8,12.1-14.7,19.4
	c-6.6,12.4-6.6,21.8-7.3,21.7c-2.7-0.3-13.3-55,14.8-83.4c5.7-5.7,12.5-9.5,26.3-17c21-11.5,31.5-17.2,45.1-16.8
	c10.7,0.3,21.7,6.4,43.8,18.5c13,7.1,19.5,10.7,23.3,14C218.6,123.4,208.5,185.1,206.8,185.3z"/>
<path class="st10" d="M147.1,248.1L147.1,248.1c0,0-4.1,2.5-7.7,3.9h0c-0.3,0.1-2.8,0.9-5,1.3c-5.3,1-6.9-0.5-13.8-0.6
	c-6.2-0.1-8.4,1.1-13.9,0.4c-1.4-0.2-3.4-0.3-5.6-1.3c-2.1-1-3.5-2.3-4.3-3.2l0,0l0,0c1.4,0.4,2.6,0.6,3.4,0.6
	c1.3,0,2.6-0.2,5.1-0.6c2.1-0.4,2.9-0.7,4.3-1.1c0.2,0,0.3-0.1,0.6-0.1c0,0,0,0,0.1,0c0.6-0.2,1.4-0.3,2.5-0.5
	c2-0.3,2.7-0.3,3.5-0.2c0.7,0.1,1.6,0.4,3.1,0.9c0.4,0.1,0.8,0.3,1.2,0.4c0.2,0.1,0.3,0.1,0.4,0.2c0,0,0.1,0,0.1-0.1
	c0.1,0,0.2-0.1,0.2-0.1l1.2-0.4c0.8-0.3,1.9-0.6,2.6-0.7c1.3-0.3,2.4-0.1,4.2,0.1c1.5,0.2,2.9,0.5,4.1,0.7c1.4,0.3,2.5,0.5,3.1,0.7
	c0.3,0.1,0.5,0.1,0.6,0.1C137.9,248.7,148.7,247.8,147.1,248.1z"/>
<path class="st10" d="M128,255.5c0.1,0.3-3.3,2.7-7.7,2.8c-4.3,0-7.8-2.3-7.7-2.6c0.1-0.3,3.1,1.3,7.7,1.2
	C124.9,256.9,127.9,255.3,128,255.5z"/>
<path class="st11" d="M121.3,259.2c0,0.9-0.7,1.6-1.6,1.6c-0.9,0-1.6-0.7-1.6-1.6s0.7-1.6,1.6-1.6
	C120.6,257.7,121.3,258.4,121.3,259.2z"/>
<path class="st10" d="M109.8,222c-0.1,0.7,5,2.9,10.7,2.8c5.4-0.1,10.2-2.3,10.1-3c-0.1-0.5-2.5-0.1-10.3,0
	C112.4,221.9,109.9,221.5,109.8,222z"/>
<path class="st11" d="M130.6,219.9c-0.5,2.5-3.1,4.5-3.8,4.1c-0.1-0.1-0.2-0.2-0.2-0.3c-0.4-1.3,2.1-2.1,2.5-4.2
	c0.4-2-1.3-3.7-0.5-4.6c0.1-0.1,0.2-0.2,0.2-0.2C129.4,214.5,131.1,217.4,130.6,219.9z"/>
<path class="st12" d="M37,386.4c-0.8,11-2.2,20.1-3.2,26.3c59.6-0.6,119.1-1.2,178.7-1.8c-2.7-10.7-3.8-19.5-4.4-25.5
	c-3.2-35.2,6.4-57-7.4-70.5c-1.6-1.6-2.9-2.7-4.9-3.7c-10.6-5.5-26.8,0.5-74.8,1.6c-52.7,1.2-70.7-9.5-81.7,5
	C30.7,328.9,40.4,341.6,37,386.4z"/>
<path class="st0" d="M158.9,343.2c-13,23.2-77.5,17.2-85-2.9c-3.6-9.6,3.6-29,3.6-29l0,0c6.5,0.4,14.6,0.7,23.8,0.8
	c10.6,0.1,18.5-0.1,23.9-0.2c8.6-0.2,19.8-0.6,33-1.6c0,0,0,0,0,0C166,317.8,163.1,335.7,158.9,343.2z"/>
<rect x="20.8" y="408.4" class="st13" width="200.9" height="33.6"/>
<g>
	<path class="st12" d="M104.3,429.3h-4.1l-1.3,6.1H96l4.2-19.6h4l4.2,19.6h-2.8L104.3,429.3z M103.8,426.9l-1.5-7
		c-0.5,2.4-1,4.7-1.5,7H103.8z"/>
	<path class="st12" d="M117.8,433v2.4h-7.7v-19.6h2.8V433H117.8z"/>
	<path class="st12" d="M122.2,415.9v19.6h-2.8v-19.6H122.2z"/>
	<path class="st12" d="M124.4,433c-0.6-1.2-0.6-2.3-0.6-2.4v-9.8c0-0.1,0-1.2,0.6-2.4c0.8-1.6,2.4-2.5,4.5-2.5s3.6,0.9,4.5,2.5
		c0.6,1.2,0.6,2.3,0.6,2.4v1.2h-2.8v-1.2c0-0.4-0.3-2.4-2.3-2.4s-2.3,2-2.3,2.4v9.8c0,0.4,0.3,2.5,2.3,2.5s2.3-2,2.3-2.5v-1.2h2.8
		v1.2c0,0.1,0,1.2-0.6,2.4c-0.8,1.6-2.4,2.5-4.5,2.5S125.2,434.6,124.4,433z"/>
	<path class="st12" d="M138.4,418.3v6.1h4.6v2.5h-4.6v6.1h6.1v2.4h-8.9v-19.6h8.9v2.5H138.4z"/>
</g>
<linearGradient id="SVGID_9_" gradientUnits="userSpaceOnUse" x1="119.7263" y1="213.7462" x2="117.4874" y2="202.3255" gradientTransform="matrix(0.9813 0.1924 -0.1924 0.9813 83.4413 -68.0491)">
	<stop  offset="0" style="stop-color:#5E361B"/>
	<stop  offset="0.2962" style="stop-color:#633A1E"/>
	<stop  offset="0.6587" style="stop-color:#724525"/>
	<stop  offset="1" style="stop-color:#875530"/>
</linearGradient>
<path class="st14" d="M189,164.7c-0.2,0.2-3.5-3.8-9.3-6c-3.3-1.3-6.5-1.3-12.7-1.3c-3.2,0-8.5,0-15.4,1c-7.1,1.1-10.7,1.6-14.2,3.1
	c-2.8,1.2-5.7,2.8-6.6,1.9c-0.6-0.6,0-2.2,0.5-3c1.1-2,3.2-2.7,4.1-3c12.4-4.2,20.3-4.3,20.3-4.3c1.5,0,8.4-0.1,17,2
	c5.3,1.3,7.9,2.6,9.8,3.8C186.6,161.4,189.1,164.5,189,164.7z"/>
<rect x="316.2" y="221.3" width="128.1" height="100.7"/>
<path class="st0" d="M383.8,290.7c0,21.4,1.4,26.7-3.1,29.4c-3.2,1.9-5.2-0.1-19.6,1.1c-7.8,0.6-8.3,1.3-10.1,0.5
	c-6.4-2.7-5.9-13.8-5.2-30.7c0.4-10.8,1.6-13.4,3.4-15.5c4.1-5,10.6-6.7,17.3-8.4c7.2-1.9,10.8-2.8,13.7-1.2
	C384.7,268.1,383.9,273.9,383.8,290.7z"/>
<path class="st15" d="M383.8,288.3c0,18.8,1.4,23.5-3.1,25.9c-3.2,1.7-5.2-0.1-19.6,1c-7.8,0.6-8.3,1.2-10.1,0.5
	c-6.4-2.4-5.9-12.1-5.2-27c0.4-9.5,1.6-11.8,3.4-13.7c4.1-4.4,10.6-5.9,17.3-7.4c7.2-1.6,10.8-2.5,13.7-1.1
	C384.7,268.5,383.9,273.6,383.8,288.3z"/>
<path class="st15" d="M449.5,179.4c2.8,35.9-21.5,62.6-33.6,76c-12.2,13.5-28.1,31.2-50.8,31.6c-26.9,0.4-46.1-23.8-57.7-38.5
	c-10.9-13.8-29.1-36.5-27.6-67.1c1.8-37.7,33.1-83.2,81.9-84.9C411.8,94.7,446.5,140.4,449.5,179.4z"/>
<path class="st10" d="M391.2,247.4L391.2,247.4c0,0-4,2.5-7.5,3.9h0c-0.3,0.1-2.8,0.9-4.9,1.3c-5.2,1-6.8-0.5-13.6-0.6
	c-6.1-0.1-8.3,1-13.7,0.4c-1.4-0.2-3.4-0.3-5.6-1.3c-2-1-3.4-2.2-4.3-3.2l0,0l0,0c1.4,0.4,2.6,0.6,3.3,0.6c1.3,0,2.5-0.2,5-0.6
	c2.1-0.3,2.8-0.7,4.2-1.1c0.2,0,0.3-0.1,0.5-0.1c0,0,0,0,0.1,0c0.6-0.2,1.4-0.3,2.4-0.5c2-0.3,2.7-0.3,3.4-0.2
	c0.7,0.1,1.6,0.4,3,0.9c0.4,0.1,0.8,0.3,1.2,0.4c0.1,0.1,0.3,0.1,0.4,0.1c0,0,0.1,0,0.1-0.1c0.1,0,0.2-0.1,0.2-0.1l1.2-0.4
	c0.8-0.3,1.9-0.6,2.6-0.7c1.3-0.3,2.4-0.1,4.1,0.1c1.5,0.2,2.9,0.5,4,0.7c1.3,0.3,2.4,0.5,3.1,0.7c0.3,0.1,0.5,0.1,0.6,0.1
	C382.2,248,392.8,247.2,391.2,247.4z"/>
<path class="st10" d="M372.3,254.7c0.1,0.3-3.3,2.7-7.6,2.7c-4.3,0-7.7-2.2-7.6-2.5c0.1-0.3,3,1.3,7.6,1.2
	C369.3,256.1,372.2,254.5,372.3,254.7z"/>
<path class="st10" d="M354.5,221.7c-0.1,0.7,4.9,2.9,10.5,2.7c5.4-0.1,10.1-2.2,9.9-2.9c-0.1-0.5-2.5-0.1-10.1,0
	C357,221.6,354.6,221.2,354.5,221.7z"/>
<path d="M299.4,167.3c0.3,0.5,4.3-3.2,11.2-5.1c3.5-0.9,6.2-1,10.3-1c4.4,0,8.1,0.5,15.5,1.5c6.7,0.9,10.1,1.4,11.3,1.7
	c4.6,1.3,7.3,2.8,8.9,1.5c1.1-0.9,1.3-2.9,0.7-4.2c-1-2.2-4.1-2.8-7.4-3.3c-12-1.8-17.9-2.7-21.7-2.6c-4.9,0.2-9.2,0.9-12.9,1.9
	c-5.8,1.5-8.6,3.1-9.6,3.7C301.9,163.8,299.1,166.9,299.4,167.3z"/>
<path class="st12" d="M282.7,383.7c-0.8,10.9-2.1,19.8-3.2,25.9c58.7-0.6,117.4-1.2,176-1.8c-2.7-10.5-3.8-19.2-4.3-25.2
	c-3.1-34.6,6.3-56.2-7.3-69.5c-1.6-1.6-2.8-2.6-4.8-3.7c-10.5-5.4-26.4,0.5-73.7,1.6c-51.9,1.2-69.6-9.4-80.5,4.9
	C276.5,327,286.1,339.5,282.7,383.7z"/>
<path class="st15" d="M402.8,341.1c-12.8,22.8-76.4,16.9-83.7-2.9c-3.5-9.5,3.5-28.6,3.5-28.6l0,0c6.4,0.4,14.3,0.7,23.4,0.8
	c10.4,0.1,18.3-0.1,23.5-0.2c8.5-0.2,19.5-0.6,32.5-1.5c0,0,0,0,0,0C409.8,316.1,406.9,333.7,402.8,341.1z"/>
<path d="M457.8,346.5c2.3,13.3,7.5,12.8,8.6,24.7c1.7,20.2-12.1,36.3-15.1,39.8c-7.4,8.6-16.4,14.2-17.1,13.5c-0.5-0.5,4-4,6.9-10.5
	c3.8-8.6,2.3-17,1.3-22.4c-2.4-13-6-14.5-8.6-25c-4-17,4-21.5,0.7-32c-6.7-21.2-45.5-19.3-46.8-32c-1.4-13.1,39.5-17.6,42.4-39.8
	c1.4-10.8-2.9-21.2-8.8-51c0,0,0,0,0,0c-0.6-9.2-1.9-23.5-5.6-40.8c-1.9-8.9-1.9-6.7-3.1-13.1c-3.5-18.4-3-32.9-3.2-32.9
	c-0.2,0-0.1,5.7-0.2,12.5c-0.1,7-0.5,12.8-0.7,16.7c-0.1,0-0.3,0-0.5-0.1c-0.7-0.3-0.7-1.4-1.1-3.1c-0.2-0.9-0.5-1.8-1.1-3.7
	c-0.6-1.8-0.7-1.8-0.7-1.8c-0.1,0,0.4,1.8,0.4,4.3c0,1.6,0,2.6-0.6,3c-1.1,0.9-3.6-0.9-5.7-1.9c-3-1.4-8.3-0.9-18.7,0.5
	c-5.3,0.7-8.7,1.2-11.1,1.5c-4.4,0.6-6.6,0.9-6.7,0.9c-12.9,1.7-38.1-0.1-43.5,2.2c-0.1,0.1-3.5,1.5-3.5,1.5
	c1.1-1.9,1.6-3.6,1.9-4.8c0.5-2,0.4-4.7,0.3-9.9c0-1.7-0.1-2.1-0.2-2.1c-0.3,0-1,5.5-2.7,14.4c-0.4,2.1-1,5.2-1.2,5.1
	c-0.5-0.1,0.8-21.4,0.5-24l0,0c-0.1-1.6-0.4-3.4-0.5-3.4c-0.2,0,1.4,6.7-0.4,14.6c-1.3,5.3-2.4,6.1-2.9,10.9
	c-0.1,0.9-0.3,2.8-1.4,4.9c-0.8,1.4-1.5,1.9-2.5,3.2c-2.6,3.2-2.9,6.2-3.2,6.1c-0.6-0.1,4.1-16.4,4.2-35.7c0-6.9-0.6-12.2-0.8-12.2
	c-0.3,0-0.1,11.4-2.2,25.5c-0.5,3.2-1,6-1.4,8.3c-0.5,2.6-1,4.6-1.2,5.5c-0.1,0.2-0.1,0.4-0.1,0.4c-13.8,58.4,6.9,79.9,6.9,79.9
	c3.1,3.2,8.1,7.1,10.7,14.7c1.9,5.7,0.5,7.6,1.4,13.4c2.5,16.1,16,20.7,13.8,28.6c-1.4,5.2-8.7,8.3-14,8.7c-9,0.6-15.5-6.4-27.2-19
	c-8-8.6-12.9-14-15.1-22.7c-1.4-5.7-0.4-7.4-2.5-14.6c-2.9-9.8-5.5-8.9-7.9-17.4c-2.7-9.5-2.2-20.4-2-23.5c0-1,0.2-3.3,0-6.5
	c-0.3-4.8-1.3-7.4-1.3-18.8c0-6.8-0.1-15.4,1.6-26c0.6-3.5,1.1-6.1,1.7-8.3c2.3-8.8,3.2-11.1,3.7-12.2c1.8-3.2,3.5-4.7,5.4-6.8
	c5.8-6.4,7.6-12.8,9.5-17.4c6.4-15.2,20-26.6,21.7-28c10.9-9,26-15.9,36.2-14.8c1.3,0.1,11.2,1.3,11.2,1.3l0,0c0,0,8.7-2.2,9.2-2.3
	c7.6-1.9,29.9,1.4,51.3,16.4c16,11.3,24.5,24.2,27,28.3c7,11.4,12.3,25.4,12.5,35.9c0.1,5.4-0.2,9.8-0.2,9.8
	c-0.6,9-2.2,12.4-0.8,23.8c0.8,6.5,1.4,8.8,2.4,14.4c0,0,0.8,4.1,2,12.7c1.8,13.1-6.8,31.6-7.4,49.2c-0.7,22.1,12,20.8,11.2,44.1
	C462.4,324.7,454.9,329.8,457.8,346.5z"/>
<path class="st16" d="M471.4,114.6c1.4,4.3-4.5,6.7-5.2,15.6c-0.6,7.6,3.2,11.7,1.2,14.7c-2.2,3.5-7.7-1.4-12.2,2.3
	c-4.1,3.4-2.2,9.9-5.8,11.6c-3.3,1.6-5.6-3.8-13-5.3c-6.2-1.3-8.3,1.7-11.2-0.9c-3.1-2.8-1.3-6.6-4.6-12.6c-4-7.2-9.6-7.3-10-11.6
	c-0.4-3.8,4.2-4.1,5.3-9.6c1.3-6.9-4.8-11.7-3.2-16.8c1.3-4,5.2-1.9,10.9-6.8c5.7-5,5.1-10.2,9.1-10.9c3.6-0.7,4.7,3.5,11.1,6.1
	c8.3,3.4,13.3-0.8,15.6,2.9c2.1,3.4-1.9,7.7,0.3,12.6C462.1,111.6,469.8,109.9,471.4,114.6z"/>
<path d="M431.8,167.6c-0.3,0.5-4.3-3.2-11.2-5.1c-3.5-0.9-6.2-1-10.3-1c-4.4,0-8.1,0.5-15.5,1.5c-6.7,0.9-10.1,1.4-11.3,1.7
	c-4.6,1.3-7.3,2.8-8.9,1.5c-1.1-0.9-1.3-2.9-0.7-4.2c1-2.2,4.1-2.8,7.4-3.3c12-1.8,17.9-2.7,21.7-2.6c4.9,0.2,9.2,0.9,12.9,1.9
	c5.8,1.5,8.6,3.1,9.6,3.7C429.2,164.1,432,167.2,431.8,167.6z"/>
<rect x="266.6" y="407.6" class="st17" width="197.9" height="33.1"/>
<g>
	<path class="st12" d="M332,421v-1.2c0-0.4-0.3-2.4-2.2-2.4s-2.3,2-2.3,2.4v1.2c0,0.2,0.3,1.7,2.7,2.5c4.5,1.5,4.6,4.6,4.6,4.8v1.2
		c0,0.1,0,1.2-0.6,2.3c-0.8,1.6-2.4,2.5-4.4,2.5c-2,0-3.6-0.9-4.4-2.5c-0.6-1.2-0.6-2.2-0.6-2.3v-1.2h2.7v1.2c0,0.4,0.3,2.4,2.3,2.4
		s2.2-2,2.2-2.4v-1.2c0-0.1-0.3-1.6-2.7-2.5c-4.3-1.5-4.6-4.6-4.6-4.8v-1.2c0-0.1,0-1.2,0.6-2.3c0.8-1.6,2.4-2.5,4.4-2.5
		c2,0,3.6,0.9,4.4,2.5c0.6,1.2,0.6,2.2,0.6,2.3v1.2H332z"/>
	<path class="st12" d="M343.7,428.3h-4l-1.3,6.1h-2.8l4.1-19.3h3.9l4.1,19.3H345L343.7,428.3z M343.2,425.9l-1.5-6.9
		c-0.5,2.3-1,4.6-1.5,6.9H343.2z"/>
	<path class="st12" d="M349.4,434.3V415h4.5c0.1,0,4.9,0,4.9,5.4c0,1.8-0.7,3.2-1.5,4c1,0.7,2.1,2.1,2.1,4.5c0,5.4-4.9,5.4-5,5.4
		H349.4z M352.1,423.4h1.7c0.7,0,2.2-0.7,2.2-3c0-2.3-1.5-3-2.2-3h-1.7V423.4z M352.1,431.9h2.2c0,0,0.1,0,0.2,0
		c0.2,0,0.6-0.1,1.1-0.4c0.7-0.4,1.1-1.3,1.1-2.6c0-1.3-0.4-2.2-1.1-2.7c-0.6-0.3-1.1-0.4-1.1-0.4h-2.3V431.9z"/>
	<path class="st12" d="M371,428.3v6.1h-2.8v-6.1c0-1.1-1.1-2.4-2.2-2.4h-2.3v8.5H361V415h5c0.1,0,5,0,5,5.4c0,2-0.8,3.3-1.7,4.2
		C370.4,425.5,371,426.8,371,428.3z M368.2,420.4c0-1.4-0.4-2.2-1.1-2.7c-0.6-0.4-1.1-0.4-1.1-0.4h-2.3v6h2.3
		C366.7,423.4,368.2,422.8,368.2,420.4z"/>
	<path class="st12" d="M375.3,415v19.3h-2.7V415H375.3z"/>
	<path class="st12" d="M386.9,434.3h-3.3l-3.9-12.2v12.2h-2.7V415h3.3l3.9,12.2V415h2.8V434.3z"/>
	<path class="st12" d="M396.1,428.3h-4l-1.3,6.1H388l4.1-19.3h3.9l4.1,19.3h-2.8L396.1,428.3z M395.6,425.9l-1.5-6.9
		c-0.5,2.3-1,4.6-1.5,6.9H395.6z"/>
</g>
<rect x="545.8" y="227.9" class="st18" width="122.3" height="96.1"/>
<path class="st0" d="M610.4,294.1c0,20.4,1.4,25.5-2.9,28c-3,1.8-4.9-0.1-18.7,1c-7.4,0.6-7.9,1.3-9.6,0.5c-6.1-2.6-5.6-13.2-5-29.3
	c0.4-10.3,1.6-12.8,3.2-14.8c3.9-4.8,10.2-6.4,16.5-8c6.9-1.8,10.3-2.7,13.1-1.2C611.2,272.6,610.4,278.1,610.4,294.1z"/>
<linearGradient id="SVGID_10_" gradientUnits="userSpaceOnUse" x1="581.9742" y1="275.6407" x2="606.0401" y2="317.3241">
	<stop  offset="0.2564" style="stop-color:#EAB27A"/>
	<stop  offset="0.3319" style="stop-color:#EDB780;stop-opacity:0.885"/>
	<stop  offset="0.6958" style="stop-color:#FACD9A;stop-opacity:0.3306"/>
	<stop  offset="0.9128" style="stop-color:#FFD5A4;stop-opacity:0"/>
</linearGradient>
<path class="st19" d="M610.4,291.8c0,17.9,1.4,22.4-2.9,24.7c-3,1.6-4.9-0.1-18.7,0.9c-7.4,0.5-7.9,1.1-9.6,0.5
	c-6.1-2.3-5.6-11.6-5-25.8c0.4-9,1.6-11.2,3.2-13c3.9-4.2,10.2-5.6,16.5-7.1c6.9-1.6,10.3-2.3,13.1-1
	C611.2,272.9,610.4,277.8,610.4,291.8z"/>
<path class="st0" d="M667.9,189.9c2.6,33.9-19.9,59.3-31,71.9c-11.3,12.8-26,29.6-46.9,29.9c-24.9,0.4-42.6-22.5-53.3-36.4
	c-10.1-13-26.8-34.6-25.5-63.5c1.6-35.7,30.6-78.8,75.6-80.3C633,109.8,665.1,152.9,667.9,189.9z"/>
<path class="st10" d="M617.5,252.8L617.5,252.8c0,0-3.8,2.3-7.2,3.7h0c-0.2,0.1-2.7,0.8-4.7,1.2c-5,1-6.5-0.4-13-0.5
	c-5.8-0.1-7.9,1-13.1,0.4c-1.3-0.2-3.2-0.3-5.3-1.2c-1.9-0.9-3.3-2.1-4.1-3l0,0l0,0c1.3,0.4,2.4,0.5,3.2,0.5c1.2,0,2.4-0.2,4.8-0.6
	c2-0.3,2.7-0.7,4-1c0.2,0,0.3-0.1,0.5-0.1c0,0,0,0,0.1,0c0.6-0.1,1.3-0.3,2.3-0.5c1.9-0.3,2.6-0.3,3.3-0.2c0.7,0.1,1.5,0.4,2.9,0.8
	c0.3,0.1,0.7,0.3,1.2,0.4c0.1,0.1,0.3,0.1,0.3,0.1c0,0,0.1,0,0.1-0.1c0.1,0,0.2-0.1,0.2-0.1l1.1-0.4c0.8-0.2,1.8-0.6,2.5-0.7
	c1.2-0.2,2.3-0.1,3.9,0.1c1.4,0.2,2.7,0.5,3.8,0.7c1.3,0.3,2.3,0.5,2.9,0.6c0.3,0.1,0.5,0.1,0.5,0.1
	C608.8,253.3,618.9,252.6,617.5,252.8z"/>
<path class="st10" d="M599.4,259.8c0.1,0.3-3.1,2.6-7.2,2.6c-4.1,0-7.3-2.1-7.2-2.4c0.1-0.2,2.9,1.2,7.2,1.1
	C596.6,261.1,599.4,259.5,599.4,259.8z"/>
<path class="st10" d="M582.4,228.3c-0.1,0.7,4.7,2.7,10,2.6c5.1-0.1,9.6-2.1,9.5-2.8c-0.1-0.4-2.4-0.1-9.6,0
	C584.8,228.2,582.5,227.8,582.4,228.3z"/>
<path class="st20" d="M527.7,175c0.2,0.3,4.9-4.8,12.3-6.4c1.2-0.3,2.1-0.4,10.4,0c10.5,0.5,15.7,0.7,17.1,1.3
	c1.2,0.5,7.2,3,12.6,4.1c0.6,0.1,1.9,0.3,2.3-0.3c0.7-0.9-0.9-3.3-2.5-4.8c-2.4-2.3-5.3-2.9-6.4-3.1c-7.2-1.4-14-1.6-18.2-1.7
	c-11.3-0.4-14-0.9-17,1.3c-0.7,0.5-0.5,0.5-4.5,4C530,172.9,527.6,174.8,527.7,175z"/>
<path class="st12" d="M513.9,382.8c-0.8,10.4-2,18.9-3,24.7c56-0.6,112-1.1,168-1.7c-2.5-10-3.6-18.3-4.1-24c-3-33,6-53.6-7-66.3
	c-1.5-1.5-2.7-2.5-4.6-3.5c-10-5.2-25.2,0.5-70.3,1.5c-49.5,1.1-66.5-8.9-76.8,4.7C508,328.8,517.1,340.7,513.9,382.8z"/>
<path class="st0" d="M628.5,342.2c-12.2,21.8-72.9,16.2-79.9-2.7c-3.4-9.1,3.3-27.3,3.3-27.3l0,0c6.1,0.3,13.7,0.6,22.3,0.8
	c9.9,0.1,17.4-0.1,22.4-0.2c8.1-0.2,18.6-0.6,31-1.5c0,0,0,0,0,0C635.2,318.3,632.5,335.2,628.5,342.2z"/>
<path class="st20" d="M652.3,175.8c-0.2,0.3-4.9-4.8-12.3-6.4c-1.2-0.3-2.1-0.4-10.4,0c-10.5,0.5-15.7,0.7-17.1,1.3
	c-1.2,0.5-7.2,3-12.6,4.1c-0.6,0.1-1.9,0.3-2.3-0.3c-0.7-0.9,0.9-3.3,2.5-4.8c2.4-2.3,5.3-2.9,6.4-3.1c7.2-1.4,14-1.6,18.2-1.7
	c11.3-0.4,14-0.9,17,1.3c0.7,0.5,0.5,0.5,4.5,4C650,173.6,652.4,175.6,652.3,175.8z"/>
<path class="st18" d="M666.2,345c1.1,6.5,3.6,5.5,6.7,16.1c3.1,11.1,4.6,17.4,4.6,17.4c0.1,0.4,0.2,0.9,0.5,1.6
	c1.8,4.3,6.8,8.6,6.8,8.6c0,0-3.6-0.4-5.6-2.6c-1.2-1.3-1.3-2.7-1.5-2.7c-0.4,0.1,1,7.1,1,7.1c0,0-2.2-2.7-3.7-5.1
	c-1.2-2.1-1.8-3.9-2.3-5.4c-1.5-4.6-1.1-7.4-3.7-11.3c0,0,0,0,0-0.1c1.3,7.9,0.4,12.5,0.4,12.5c-0.7,3.7-2.3,6.2-3.3,7.8
	c-1.4,2.2-3.4,4.7-3.9,4.4c-0.4-0.3,0.9-2.7,1.6-6.2c0.6-3.1,1.4-6.6-0.1-9.8c-1.3-2.9-3.1-2.5-4-5.2c-1.6-4.4,1.9-9.2,1.4-9.4
	c-0.3-0.1-2,2.7-2.9,4.6c-0.5,1.1-0.9,2-1.1,2.2c-2.2,5.3,2.5,13.4-0.5,19.9c-1.6,3.3-4.6,5-4.8,4.8c-0.2-0.2,3.2-3.2,3.1-7.2
	c-0.1-2.4-1.3-4.3-2.1-5.5c-2.4-3.4-4.9-3.9-6.6-5.5c-6.1-5.8,1.4-23,0.6-23.2c-0.4-0.1-1.6,5-5.2,11.6c-2.6,4.7-4.3,6.3-4.4,9.7
	c-0.1,4.4,2.8,7.3,2.4,7.5c-0.5,0.3-5.6-3.7-6.3-9.4c-0.4-3.4,1.1-4.8,0-7.5c-1.2-2.9-3.6-3-5.3-5.2c-3.5-4.4,1.6-11.1,1.7-17.6
	c0.3-13.8-17.7-17.2-18.8-28.1c-1.6-15.6,33.8-21.6,43.6-46.6c6.3-16.2-0.4-34.4-8.4-48.6c-0.4-13-2.2-31.7-8.2-51.1
	c0,0-6.3-20.3-17.1-28.9c-3-2.4-5.6-3.8-5.6-3.8c-6.3-3.3-10.9-2.4-19.9-10.2c-2.7-2.3-10.6-9.5-10.6-9.5
	c-13.1,13-15.6,15.2-15.6,15.2c-3.3,2.9-6.2,5.1-8.8,6.8c-8.4,5.5-13.6,7.7-16.4,9.4c-11.4,6.8-12.4,25.7-13.8,53.7
	c-0.9,17.8-1.3,26.9,2.2,37.4c4.3,13,10.3,14.7,21.7,31.7c8.7,12.9,17,25.3,19.9,41.2c5.6,30.2-10.8,58-12.1,57.7
	c-0.5-0.1,1.2-4.7,0.3-12.6c-1.1-9.3-4.6-16.1-5-16c-0.5,0.2,4.2,8.6,2.2,19.1c-0.6,3.3-1.1,2.7-4.2,12.4c-2.1,6.7-3.1,11-3.9,10.9
	c-1-0.1-0.2-8.7-1.4-8.9c-1.4-0.2-3.8,12.7-5.7,12.6c-1.6-0.2-2-10.5-2.2-15.7c-0.4-10.2,0.3-14.7-0.9-15.1c-1.2-0.3-4,3.6-4.7,7.8
	c-0.8,5,1.5,8.7,0.3,9.4c-1,0.7-4-1.5-5.7-3.5c-9.2-10.7,2.2-35.5,1.3-35.8c-0.9-0.3-9.2,23.6-10.7,23.2c-0.4-0.1,4.4-9.6,2.8-21.3
	c-0.7-5-1.9-5.8-3.5-12.7c-2-8.6-1.5-13.6-1.9-19.3c-1.4-20.5-11.8-22.2-11.7-39.5c0.1-9.8,3.4-9.6,3.6-22.2
	c0.2-9.8-1.9-10.9-3.2-24c-1.5-14.3,0.7-15.4-0.5-32.5c-1.1-16.5-3.2-15.3-2.6-23.6c0.8-11.6,5.2-19.5,12.9-33.6
	c7.5-13.7,14.5-21.1,19.6-25.7c0.5-0.4,0.8-0.8,1.1-1c17.8-15.6,36.2-17.6,42.4-16.1c0.5,0.1,6.1,1.5,6.1,1.5c0,0,3.7-1.7,3.9-1.8
	c3.1-1.4,25.8-2,50.5,17c5.3,4,14.2,11,20.3,23.1c3,6,4.7,13.7,8.2,29c1.4,6.1,2.9,12.9,4.2,22.1c1.1,7.6,2.5,17.4,1.9,29.7
	c-0.7,12.5-2.7,13.3-2.1,22.5c0.7,10.8,3.6,12.2,5,21.3c0.5,3.6,0.6,6.6,0.3,9.4c-1.5,13.2-5.4,21.5-7.6,34
	c-2.9,16.5,2.7,16.3-1.1,31.5C668,333.7,664.9,337.4,666.2,345z"/>
<rect x="498.6" y="405.7" class="st13" width="188.8" height="31.6"/>
<g>
	<path class="st12" d="M568.3,417.5v-1.2c0-0.4-0.3-2.3-2.1-2.3c-1.9,0-2.2,1.9-2.2,2.3v1.2c0,0.2,0.3,1.6,2.6,2.4
		c4.3,1.5,4.3,4.4,4.3,4.5v1.2c0,0.1,0,1.1-0.6,2.2c-0.8,1.5-2.3,2.4-4.2,2.4c-1.9,0-3.4-0.8-4.2-2.4c-0.6-1.1-0.6-2.1-0.6-2.2v-1.2
		h2.6v1.2c0,0.4,0.3,2.3,2.2,2.3c1.9,0,2.1-1.9,2.1-2.3v-1.1c0-0.1-0.3-1.6-2.6-2.4c-4.1-1.5-4.4-4.4-4.4-4.6v-1.2
		c0-0.1,0-1.1,0.6-2.2c0.8-1.5,2.3-2.4,4.2-2.4c1.9,0,3.4,0.8,4.2,2.4c0.6,1.1,0.6,2.1,0.6,2.2v1.2H568.3z"/>
	<path class="st12" d="M579.5,424.4h-3.8l-1.2,5.8h-2.7l4-18.5h3.7l4,18.5h-2.7L579.5,424.4z M579,422.1l-1.4-6.6
		c-0.5,2.2-0.9,4.4-1.4,6.6H579z"/>
	<path class="st12" d="M594.4,424.4v5.8h-2.6v-5.8c0-1.1-1-2.3-2.1-2.3h-2.2v8.1h-2.6v-18.5h4.8c0.1,0,4.8,0,4.8,5.2
		c0,2-0.8,3.2-1.6,4C593.8,421.7,594.4,422.9,594.4,424.4z M591.8,416.9c0-1.3-0.3-2.1-1.1-2.5c-0.6-0.3-1.1-0.3-1.1-0.3h-2.2v5.7
		h2.2C590.3,419.8,591.8,419.1,591.8,416.9z"/>
	<path class="st12" d="M603.7,424.4h-3.8l-1.2,5.8H596l4-18.5h3.7l4,18.5H605L603.7,424.4z M603.2,422.1l-1.4-6.6
		c-0.5,2.2-0.9,4.4-1.4,6.6H603.2z"/>
	<path class="st12" d="M618.7,411.7v18.5h-2.6v-8.1h-4.3v8.1h-2.6v-18.5h2.6v8.1h4.3v-8.1H618.7z"/>
</g>
<path class="st21" d="M601.4,201.9c1.4,3.2,2.9,6.4,5.5,9c6.2,6.1,15.6,5.6,17.6,5.5c11.9-0.7,25-9.8,27.4-22.8
	c0.2-1,2.2-13-5.5-20.2c-4.1-3.9-9-4.4-16-5.2c-10.1-1.2-17.6,1.3-21.2,2.5c-5.4,1.8-8.3,2.9-10.2,5.9c-2.3,3.6-1.7,7.8-0.8,13.9
	C598.5,193.3,599.3,197.4,601.4,201.9z"/>
<path class="st21" d="M577.5,208.1c-6.1,8.6-19.6,8.3-21,8.3c-2-0.1-13.4-0.7-20.7-9.9c-4.1-5.2-4.9-10.6-5.3-13.8
	c-0.6-4.1-2-14,3.8-19.9c4.6-4.6,10.6-4.4,22.2-4.1c11,0.3,20.4,0.5,25.2,7.3c3.1,4.3,2.9,10.1,2.9,10.8c0,1.7-0.3,3.4-2.4,9.3
	C579.8,203.2,578.5,206.7,577.5,208.1z"/>
<path class="st22" d="M606.2,210.6c1.5,0.9,3.1,1.8,4.6,2.8c3.1-14.3,6.2-28.7,9.3-43c-1-0.1-1.9-0.3-2.9-0.4
	C613.6,183.5,609.9,197,606.2,210.6z"/>
<path class="st23" d="M573.2,126.6c-7.4,6.9-13.8,11.2-16.6,13c-8,5.1-9.5,4.7-12.7,7.1c-4.5,3.3-9.2,9.8-10.7,42.4
	c-1.2,26.5,1.4,32.3-2.8,48.3c-3.1,11.8-8.1,21.9-8.8,21.7c-0.7-0.2,3.7-11.3,6-26.1c3.3-21.2-1.8-24.7-0.3-47.7
	c1.3-19.3,2.3-35.1,13.5-44.6c6.4-5.4,9.6-3.3,24.2-12.6c11.8-7.5,18.9-14.7,19.5-14.1C585,114.6,578.9,121.3,573.2,126.6z"/>
<path class="st23" d="M595.7,126.6c7.4,6.9,13.8,11.2,16.6,13c1.9,1.2,3.3,1.8,5.7,3.4c0,0,5.5,3.6,9.9,8.2
	c11,11.2,13.9,39.3,13.9,39.3c2.5,24.4-3.5,24.9,0.5,39.6c4.9,18.3,14.4,19.5,15.5,33.7c1.7,20.5-16.4,36.5-16,36.7
	c0.4,0.3,19.9-16.5,19.5-38.8c-0.2-12.9-6.8-14.6-11.5-34.1c-4.1-16.9,0.2-18.3-2.8-39.1c-2.7-19-5.4-37.2-18.9-47.6
	c-6.9-5.4-9.7-3.3-24.2-12.6c-11.8-7.5-18.9-14.7-19.5-14.1C584,114.6,590.1,121.3,595.7,126.6z"/>
<path class="st24" d="M584.7,183.1c0.3-0.4,2.1-2.8,5.3-3c2.6-0.2,5.2,1.1,6.7,3.4"/>
<path class="st22" d="M552,215.9c1.9,0,3.8,0,5.7,0c4.1-15.2,8.3-30.4,12.4-45.6c-1.2-0.1-2.3-0.3-3.5-0.4
	C561.8,185.2,556.9,200.6,552,215.9z"/>
<path class="st25" d="M577.5,208.1c-7.3,9.2-20.6,8.4-22.1,8.2c-1.9-0.1-12.4-1.1-19.5-9.9c-7.9-9.7-9.4-25.8-1.5-33.7
	c5.8-5.7,14.4-5,26.5-3.7c10.2,1.1,17.9,1.9,21.8,8c3.1,4.9,1.5,11.4-0.3,19C581,201.5,580.2,204.8,577.5,208.1z"/>
<path class="st25" d="M604.1,208.1c7.3,9.2,20.6,8.4,22.1,8.2c1.9-0.1,12.4-1.1,19.5-9.9c7.9-9.7,9.4-25.8,1.5-33.7
	c-5.8-5.7-14.4-5-26.5-3.7c-10.2,1.1-17.9,1.9-21.8,8c-3.1,4.9-1.5,11.4,0.3,19C600.6,201.5,601.4,204.8,604.1,208.1z"/>
<rect x="769.2" y="221.9" class="st26" width="127.6" height="100.3"/>
<path class="st0" d="M836.6,291c0,21.3,1.4,26.6-3,29.2c-3.2,1.9-5.1-0.1-19.5,1.1c-7.7,0.6-8.3,1.3-10,0.5
	c-6.3-2.7-5.9-13.7-5.2-30.6c0.4-10.7,1.6-13.3,3.4-15.4c4.1-5,10.6-6.7,17.2-8.4c7.2-1.9,10.7-2.8,13.7-1.2
	C837.4,268.5,836.6,274.3,836.6,291z"/>
<linearGradient id="SVGID_11_" gradientUnits="userSpaceOnUse" x1="806.9056" y1="271.7019" x2="832.016" y2="315.1944">
	<stop  offset="0.2564" style="stop-color:#EAB27A"/>
	<stop  offset="0.3319" style="stop-color:#EDB780;stop-opacity:0.885"/>
	<stop  offset="0.6958" style="stop-color:#FACD9A;stop-opacity:0.3306"/>
	<stop  offset="0.9128" style="stop-color:#FFD5A4;stop-opacity:0"/>
</linearGradient>
<path class="st27" d="M836.6,288.6c0,18.7,1.4,23.4-3,25.7c-3.2,1.7-5.1-0.1-19.5,1c-7.7,0.6-8.3,1.2-10,0.5
	c-6.3-2.4-5.9-12.1-5.2-26.9c0.4-9.4,1.6-11.7,3.4-13.6c4.1-4.4,10.6-5.9,17.2-7.4c7.2-1.6,10.7-2.4,13.7-1.1
	C837.4,268.8,836.6,273.9,836.6,288.6z"/>
<path class="st0" d="M896.6,182.2c2.7,35.4-20.7,61.9-32.3,75.1c-11.8,13.4-27.1,30.8-49,31.2c-26,0.4-44.4-23.5-55.6-38
	c-10.5-13.6-28-36.1-26.6-66.3c1.7-37.2,31.9-82.2,78.9-83.8C860.2,98.6,893.6,143.7,896.6,182.2z"/>
<path class="st10" d="M839.5,247.8L839.5,247.8c0,0-4,2.4-7.5,3.9h0c-0.3,0.1-2.8,0.9-4.9,1.3c-5.2,1-6.7-0.5-13.5-0.6
	c-6.1-0.1-8.2,1-13.6,0.4c-1.4-0.2-3.3-0.3-5.5-1.3c-2-1-3.4-2.2-4.3-3.1l0,0l0,0c1.4,0.4,2.6,0.5,3.3,0.6c1.3,0,2.5-0.2,5-0.6
	c2.1-0.3,2.8-0.7,4.2-1.1c0.2,0,0.3-0.1,0.5-0.1c0,0,0,0,0.1,0c0.6-0.2,1.4-0.3,2.4-0.5c2-0.3,2.7-0.3,3.4-0.2
	c0.7,0.1,1.6,0.4,3,0.9c0.4,0.1,0.8,0.3,1.2,0.4c0.1,0.1,0.3,0.1,0.4,0.1c0,0,0.1,0,0.1-0.1c0.1,0,0.2-0.1,0.2-0.1l1.2-0.4
	c0.8-0.3,1.9-0.6,2.6-0.7c1.3-0.3,2.4-0.1,4.1,0.1c1.5,0.2,2.9,0.5,4,0.7c1.3,0.3,2.4,0.5,3,0.7c0.3,0.1,0.5,0.1,0.6,0.1
	C830.4,248.4,841,247.6,839.5,247.8z"/>
<path class="st10" d="M820.7,255.2c0.1,0.3-3.3,2.7-7.5,2.7c-4.2,0-7.6-2.2-7.5-2.5c0.1-0.3,3,1.3,7.5,1.2
	C817.7,256.5,820.6,254.9,820.7,255.2z"/>
<path class="st10" d="M802.9,222.3c-0.1,0.7,4.9,2.8,10.5,2.7c5.3-0.1,10-2.2,9.9-2.9c-0.1-0.5-2.5-0.1-10.1,0
	C805.4,222.2,803,221.8,802.9,222.3z"/>
<path class="st28" d="M751.7,157.4c0,0.5,2.6,0.6,18.4,2.7c12.2,1.6,18.4,2.4,19.6,3c1.3,0.6,4.7,1.3,11.4,2.6
	c0.6,0.1,1.9,0.4,2.4-0.3c1-1.3-2-5.5-2-5.5l0,0c0,0-6.5-2.4-7.3-2.7c-4.7-1.7-9.9-2-19-1.8C772.4,155.5,751.7,156,751.7,157.4z"/>
<path class="st12" d="M735.9,383.5c-0.8,10.8-2.1,19.7-3.2,25.8c58.4-0.6,116.8-1.2,175.3-1.8c-2.6-10.5-3.8-19.1-4.3-25.1
	c-3.1-34.5,6.3-55.9-7.3-69.2c-1.6-1.6-2.8-2.6-4.8-3.7c-10.4-5.4-26.3,0.5-73.4,1.6c-51.7,1.2-69.3-9.3-80.2,4.9
	C729.7,327.1,739.3,339.5,735.9,383.5z"/>
<path class="st0" d="M855.4,341.2c-12.8,22.7-76.1,16.9-83.4-2.8c-3.5-9.5,3.5-28.5,3.5-28.5l0,0c6.4,0.4,14.3,0.7,23.3,0.8
	c10.4,0.1,18.2-0.1,23.4-0.2c8.5-0.2,19.4-0.6,32.3-1.5c0,0,0,0,0,0C862.4,316.3,859.6,333.8,855.4,341.2z"/>
<path class="st28" d="M877.6,157.4c0,0.5-2.6,0.6-18.4,2.7c-12.2,1.6-18.4,2.4-19.6,3c-1.3,0.6-4.7,1.3-11.4,2.6
	c-0.6,0.1-1.9,0.4-2.4-0.3c-1-1.3,2-5.5,2-5.5l0,0c0,0,6.5-2.4,7.3-2.7c4.7-1.7,9.9-2,19-1.8C856.9,155.5,877.6,156,877.6,157.4z"/>
<path class="st26" d="M887.5,388.3c-2.4,0-4.3-3.7-5.2-5.4c-2.3-4.5-2.2-8.4-2.5-8.4c-0.3,0-0.8,3.8,0.2,8.4c1,4.3,2.6,6.1,2,6.6
	c-1,0.9-7.3-2.3-10.6-8.1c-4.3-7.8-1-16.7-2.3-17c-0.8-0.1-2.9,3.5-2.9,7.6c0,6.5,4.9,10.7,4.5,11.1c-0.5,0.4-7.5-4.4-9.2-12.4
	c-0.9-4.4,0.1-8.3,0.7-10.8c1.6-6.3,4.8-10.2,4.4-10.4c-0.3-0.2-3,2.4-4.9,6.3c0,0-3.2,6.7-2.8,14.9c0,0-2-3.7-2.8-5.9
	c-1.2-3.3-0.8-6.2-0.1-10.2c1.2-7.2,3.4-8.6,2.6-12.5c-0.5-2.3-2-3.9-3.9-6.3c-2.7-3.2-4.1-3.4-6-6.4c-1.8-2.9-2.1-5.4-2.5-5.3
	c-0.4,0.1-0.6,3,0.5,5.7c1.8,4.2,6.2,5.9,6.1,6c-0.1,0.1-5.8-1.3-9-6.3c-2.1-3.2-1.2-5.1-3.6-11.2c-1.9-4.7-2.9-4.9-3.2-6.5
	c-2.6-11.8,41.7-29.3,45.4-48.6c1.6-8.5-2.3-11.5-8.3-24.3c-2.1-4.6-3.9-8.7-6.7-17.4c-1.3-3.9-4-12.5-5.9-23.9
	c-2.1-12.9-0.8-15.3-4.1-20.3c-3.3-5.1-6-4.8-10-11c-4.8-7.4-4.9-14-5.6-13.9c-0.8,0.1-1.7,8,2,15.4c4.3,8.8,12.9,12.6,12.6,12.9
	c-0.2,0.3-8.1-2-14.7-9.2c-9.4-10.2-6-19.2-16.3-28.5c-2.9-2.6-4-2.6-7.8-6.3c-4.7-4.4-9.1-8.4-10.6-14.5
	c-1.9-7.5,0.9-14.3,2.6-17.9c-4.5,10-9.5,13.8-13.5,15.4c-1.8,0.7-5.2,1.7-8.2,4.9c-2.2,2.3-2.3,3.9-3.9,6.5
	c-4.6,7.7-13.2,11-13.5,10.7c-0.1-0.1,1.3-1,3.8-3.6c3-3.1,5.4-6.4,5.2-6.6c-0.2-0.2-2.2,2.3-5.5,4.7c-4.4,3.1-8.3,3.9-9.7,4.4
	c-6.8,2.4-8.4,16.4-11.8,52.4c0,0-2.1,25.8,2.3,39c1,3,2.1,5.4,3.2,7.5c6.7,11.9,12.6,17.8,19.4,25.6c10.2,11.7,26.2,34.8,21.1,45.5
	c-0.8,1.6-3,4.9-2.4,9.2c0.4,3.1,2,3.8,2.5,8c0.3,3-0.3,3.6,0.1,6.9c0.6,4.1,2,6.5,1.6,6.8c-0.4,0.2-2-1.6-3.1-3.8
	c-1.8-3.7-1.7-7.4-1.6-7.4c0.1,0,0.9,9.1,1.2,14.4c0.7,9.6,0.2,11.9,0,12.9c-1.7,7.1-6,11.3-6.1,11.3c-0.1-0.1,3.3-3.5,3.3-8.4
	c0-3.1-1.4-5.8-1.9-5.7c-0.6,0.1,1,4.2-1.1,8.1c-1.5,2.9-3.1,2.2-7.2,7c-1.5,1.8-1.9,2.6-3.4,3.6c-2.7,1.9-5.7,2.3-5.9,2
	c-0.2-0.5,4.1-2.7,3.9-3.1c-0.2-0.5-7.2,2.6-7.5,2c-0.2-0.4,2.6-1.4,2.9-3.7c0.2-1.3-0.4-2.8-1.2-2.9c-1.2-0.2-2,2.6-5.1,5.9
	c-2.3,2.5-3.6,3.9-5.5,4.2c-5,0.7-10.4-7.7-12-10.1c-1.4-2.2-2.5-4.5-2.9-4.4c-0.3,0.1,0,1.9,0.8,3.5c1.6,3.4,4.9,4.6,4.7,4.9
	c-0.1,0.2-2.5-0.4-4.9-2.1c0,0-4.1-3-5.4-8.1c-0.5-2.1-0.3-3.3-0.2-3.6c0.3-1.5,1.1-2.2,0.9-2.4c-0.4-0.4-4.4,1.5-4.8,4.3
	c-0.4,3,3.5,5.4,3.2,5.8c-0.3,0.3-5.3-1.8-6.6-6c-1-3.2,0.6-6.2,2.7-10.2c4.2-7.8,8.8-9.9,9-15.9c0.1-1.1,0-2.1-0.1-2.7
	c-0.5-3-2.2-4.8-3.5-10.5c-0.5-2.2-0.6-4.1-0.8-4c-0.1,0,0.1,1.6,0.1,3.9c0,2.8-0.2,3.4-0.2,4.7c0.1,4.6,3.2,7.7,2.9,7.9
	c-0.3,0.3-3.3-2.2-5.4-6.1c-0.8-1.5-3.2-6.1-2.1-11.3c0.5-2.3,1.1-2,1.9-5.2c0.9-3.7,0.7-6.4,0.5-7.8c-0.3-1.9-0.9-4.1-1.1-4.1
	c-0.2,0-0.4,1.4-0.2,2.6c0.6,3.6,3.7,5.3,3.3,5.9c-0.4,0.6-3.9,0-5.9-2.5c-2-2.4-1.8-5.4-1.8-5.6c0.4-4.7,5.2-8.2,5.1-11.1
	c0-0.6-0.1-2-0.6-2.3c0,0,0,0,0,0c-0.6,0-0.1,4.5-2.8,8.1c-1.6,2.1-2.5,1.6-4.2,3.9c-1.8,2.4-2.2,5-2.4,6.3
	c-0.6,4.1,0.5,7.2,0.3,7.2c-0.2,0.1-1.5-3.8-2.3-8.8c-0.6-3.6-0.8-5.5-0.5-7c1-4.4,4.1-5,4.9-9.3c0.4-2-0.3-2.1-0.5-5.7
	c-0.4-7,1.5-12.4,1.5-12.4c0,0-0.6,2-1.1,5.3c-0.8,5.2-0.2,5.5-1,8.2c-1,3.2-2.2,4-1.6,5.6c0.7,2.1,3.6,2.3,3.4,3.1
	c-0.2,0.9-4.1,1.7-5.9,0c-1.2-1.2-0.8-3-1.6-3.1c-0.6-0.1-1,0.8-2.8,2.5c-1.1,1-1.6,1.3-2,1.6c-2.3,2.2-0.5,8.4,0.5,11.3
	c2.7,8.1,5.9,12.5,5.7,12.6c-0.2,0.1-15.4-15.6-11.1-27c1.4-3.6,3.6-4.1,4.9-9c1.7-6.5-1.6-8.4,0.2-13.9c1.8-5.7,6-5.6,7-11.6
	c0.2-1.2-0.1-0.5,0-7.7c0-4.1,0.1-6.3,0.3-8.8c0.4-3.9,0.9-4.6,1.5-8.2c1.4-8.8,0.9-17.3,0.2-17.4c-0.4,0-0.9,2.1-1.2,3.5
	c-0.9,4-0.8,7.2-0.8,8.4c0.1,6.6-1.5,12.8-2,12.8c-0.5,0,0.8-7.8-1.1-18.7c-0.8-4.6-1.5-6-1.1-9.2c0.4-3.2,1.3-4,3.8-11.3
	c1.4-4,2-6,2.4-8.2c0.4-2.4,0-5.3-0.4-11.2c-1.2-17.3-3.3-16-2.7-24.6c0.8-12.1,5.4-20.4,13.5-35.1c7.8-14.3,15.2-22.1,20.5-26.8
	c0.5-0.4,0.9-0.8,1.1-1c22.5-19.7,45-17.6,47.8-16.9c0.1,0,4,0.9,4,0.9l0,0c0,0,2.8-1,2.9-1c1.9-0.7,26.2-2.6,52.7,17.7
	c5.5,4.2,14.8,11.5,21.1,24.1c3.1,6.3,4.9,14.3,8.5,30.3c2.2,9.9,1.7,13.8,4.4,23.1c2.4,8.1,3.9,9.8,6.1,16.8
	c3.4,10.8,3.5,18.6,4.2,26.3c3,36.5,14.9,40.5,9.4,56.1c-5.3,15.3-18.8,17.6-17,28.2c0.8,4.4,5.8,10.5,15.7,22.8
	c4.4,5.4,5.1,5.8,5.1,5.9c-0.4,0.4-26.8-16.6-24.9-32.9c1.2-10.4,13-12.6,12.3-22.8c-0.6-7.9-8-8.6-9.2-19.2
	c-0.5-4.6,0.8-5.4,0.7-16.4c0-3.6-0.3-10.2-0.7-10.2c-0.3,0-1.3,3.5-0.9,7.4c0.6,5.4,3.1,8,4.1,14.6c0.6,3.7,0.5,6.4,0.3,9.8
	c-0.2,4.2-0.8,4.6-1.1,8.6c-0.2,2.1-0.3,3.8-0.2,5.7c0.3,5.3,2.2,6.5,3.1,11.1c1.2,6.1-0.7,11-0.8,11c-0.1,0,1.3-4.5-0.5-9.3
	c-1.5-4.2-4.8-6.7-5-6.6c-0.1,0.1,1.3,1.6,2.2,4.5c0.4,1.4,0.5,2.3,0.7,4.1c0.5,5.4,0.7,8.1,1.1,8.8c1.2,2.8,2.7,2.2,4.5,5.6
	c1.6,2.9,1.7,5.7,1.8,6.9c0.2,5.1-2,9.1-2.2,9c-0.2-0.1,1.5-3.7,0.7-8.4c-0.8-4.2-3.2-7.4-3.6-7.2c-0.3,0.1,0.9,2.3,1.3,6.1
	c0.3,3,0,5.5-0.3,7.4c-0.3,1.7-0.6,3.3-1.6,6.4c-2.1,7-2.8,7.3-4.4,12.9c-1.5,5.2-1.4,5.5-2.3,8.4c-1.2,3.8-1.7,4.5-1.9,7.7
	c-0.2,3.1,0.1,5.3,1,7.3c1.7,4,4.2,4.3,6.2,7.4c4.1,6.3,0.5,15.3,0.2,15.2c-0.2,0,1.2-5.3-1.5-10.6c-1.2-2.3-2.7-4-3.1-3.8
	c-0.6,0.3,3.9,5.5,2.4,10.6c-1,3.6-4.1,4.1-4.7,8.5c-0.2,1.4,0,2.3-0.7,3.8c-1.2,2.7-3.5,4.1-3.7,3.9c-0.2-0.2,2-2.1,1.5-3.2
	c-0.5-0.9-3-0.8-5-0.1C889.4,386.7,889.1,388.3,887.5,388.3z"/>
<rect x="719.9" y="407.4" class="st17" width="197" height="33"/>
<g>
	<path class="st12" d="M791.7,415.6v19.3h-2.8v-11.8c-1,4-2,7.8-2.9,11.8h-3.4l-2.9-11.8v11.8h-2.7v-19.3h3.7l3.7,14.8l3.7-14.8
		H791.7z"/>
	<path class="st12" d="M796,418v6h4.5v2.4H796v6h6v2.4h-8.7v-19.3h8.7v2.4H796z"/>
	<path class="st12" d="M810.6,432.5v2.4h-7.5v-19.3h2.7v16.9H810.6z"/>
	<path class="st12" d="M814.9,415.6v19.3h-2.7v-19.3H814.9z"/>
	<path class="st12" d="M824.1,421.6v-1.2c0-0.4-0.3-2.4-2.2-2.4s-2.3,2-2.3,2.4v1.2c0,0.2,0.3,1.7,2.7,2.5c4.5,1.5,4.5,4.6,4.5,4.7
		v1.2c0,0.1,0,1.2-0.6,2.3c-0.8,1.6-2.4,2.5-4.4,2.5s-3.6-0.9-4.4-2.5c-0.6-1.2-0.6-2.2-0.6-2.3v-1.2h2.7v1.2c0,0.4,0.3,2.4,2.3,2.4
		s2.2-2,2.2-2.4v-1.2c0-0.1-0.3-1.6-2.7-2.5c-4.3-1.5-4.5-4.6-4.5-4.8v-1.2c0-0.1,0-1.2,0.6-2.3c0.8-1.6,2.4-2.5,4.4-2.5
		s3.6,0.9,4.4,2.5c0.6,1.2,0.6,2.2,0.6,2.3v1.2H824.1z"/>
	<path class="st12" d="M835.7,421.6v-1.2c0-0.4-0.3-2.4-2.2-2.4s-2.3,2-2.3,2.4v1.2c0,0.2,0.3,1.7,2.7,2.5c4.5,1.5,4.5,4.6,4.5,4.7
		v1.2c0,0.1,0,1.2-0.6,2.3c-0.8,1.6-2.4,2.5-4.4,2.5s-3.6-0.9-4.4-2.5c-0.6-1.2-0.6-2.2-0.6-2.3v-1.2h2.7v1.2c0,0.4,0.3,2.4,2.3,2.4
		s2.2-2,2.2-2.4v-1.2c0-0.1-0.3-1.6-2.7-2.5c-4.3-1.5-4.5-4.6-4.5-4.8v-1.2c0-0.1,0-1.2,0.6-2.3c0.8-1.6,2.4-2.5,4.4-2.5
		s3.6,0.9,4.4,2.5c0.6,1.2,0.6,2.2,0.6,2.3v1.2H835.7z"/>
	<path class="st12" d="M849.6,428.9h-4l-1.3,6h-2.8l4.1-19.3h3.9l4.1,19.3h-2.8L849.6,428.9z M849.1,426.5l-1.5-6.9
		c-0.5,2.3-1,4.6-1.5,6.9H849.1z"/>
</g>
<path class="st11" d="M803.6,253.9c0,0.7-0.6,1.3-1.3,1.3s-1.3-0.6-1.3-1.3c0-0.7,0.6-1.3,1.3-1.3S803.6,253.1,803.6,253.9z"/>
<path class="st26" d="M729,198.9"/>
<path class="st11" d="M826.1,217.5c0,0.9-0.7,1.6-1.6,1.6c-0.9,0-1.6-0.7-1.6-1.6s0.7-1.6,1.6-1.6
	C825.4,216,826.1,216.7,826.1,217.5z"/>
<circle class="st11" cx="802.5" cy="217.5" r="1.6"/>
<path class="st11" d="M804.5,257.9c0,0.9-0.7,1.6-1.6,1.6s-1.6-0.7-1.6-1.6c0-0.9,0.7-1.6,1.6-1.6S804.5,257,804.5,257.9z"/>
<rect x="1026.9" y="213.9" class="st29" width="115.7" height="102.9"/>
<path class="st30" d="M1096,284.8c0,21.8,1.4,27.3-3.1,30c-3.3,1.9-5.3-0.1-20,1.1c-7.9,0.7-8.5,1.3-10.3,0.6
	c-6.5-2.8-6-14.1-5.3-31.4c0.4-11,1.7-13.7,3.5-15.8c4.2-5.1,10.9-6.8,17.7-8.6c7.4-1.9,11-2.9,14-1.3
	C1096.9,261.8,1096.1,267.7,1096,284.8z"/>
<linearGradient id="SVGID_12_" gradientUnits="userSpaceOnUse" x1="1065.5942" y1="266.506" x2="1091.3635" y2="311.1396">
	<stop  offset="0" style="stop-color:#84552A"/>
	<stop  offset="0.5878" style="stop-color:#A57244;stop-opacity:0.4122"/>
	<stop  offset="1" style="stop-color:#B78253;stop-opacity:0"/>
</linearGradient>
<path class="st31" d="M1096,283.8c0,19.2,1.4,24-3.1,26.4c-3.3,1.7-5.3-0.1-20,1c-7.9,0.6-8.5,1.2-10.3,0.5
	c-6.5-2.5-6-12.4-5.3-27.6c0.4-9.7,1.7-12,3.5-13.9c4.2-4.5,10.9-6,17.7-7.6c7.4-1.7,11-2.5,14-1.1
	C1096.9,263.5,1096.1,268.8,1096,283.8z"/>
<path class="st30" d="M1157.6,173.2c2.8,36.3-21.3,63.5-33.2,77c-12.1,13.7-27.8,31.6-50.2,32c-26.6,0.4-45.6-24.1-57.1-39
	c-10.8-13.9-28.7-37-27.3-68c1.7-38.2,32.8-84.3,81-86C1120.3,87.4,1154.6,133.7,1157.6,173.2z"/>
<path class="st32" d="M1099,240.6L1099,240.6c0,0-4.1,2.5-7.7,4l0,0c-0.3,0.1-2.8,0.9-5,1.3c-5.3,1-6.9-0.5-13.9-0.6
	c-6.3-0.1-8.5,1.1-14,0.4c-1.4-0.2-3.4-0.3-5.7-1.3c-2.1-1-3.5-2.3-4.4-3.2l0,0l0,0c1.4,0.4,2.6,0.6,3.4,0.6c1.3,0,2.6-0.2,5.1-0.6
	c2.1-0.4,2.9-0.7,4.3-1.1c0.2,0,0.4-0.1,0.6-0.1c0,0,0,0,0.1,0c0.6-0.2,1.4-0.3,2.5-0.5c2-0.3,2.7-0.3,3.5-0.2
	c0.7,0.1,1.6,0.4,3.1,0.9c0.4,0.1,0.8,0.3,1.2,0.4c0.2,0.1,0.3,0.1,0.4,0.2c0,0,0.1,0,0.1-0.1c0.1,0,0.2-0.1,0.2-0.1l1.2-0.4
	c0.8-0.3,1.9-0.6,2.7-0.8c1.3-0.3,2.4-0.2,4.2,0.1c1.5,0.2,2.9,0.5,4.1,0.7c1.4,0.3,2.5,0.5,3.1,0.7c0.3,0.1,0.5,0.1,0.6,0.1
	C1089.7,241.2,1100.6,240.3,1099,240.6z"/>
<path class="st32" d="M1079.7,248.1c0.1,0.3-3.3,2.8-7.7,2.8c-4.3,0-7.8-2.3-7.7-2.6c0.1-0.3,3.1,1.3,7.7,1.2
	C1076.6,249.5,1079.6,247.8,1079.7,248.1z"/>
<path class="st32" d="M1061.5,214.3c-0.1,0.7,5,2.9,10.8,2.8c5.5-0.1,10.3-2.3,10.2-3c-0.1-0.5-2.6-0.1-10.3,0
	C1064,214.2,1061.6,213.9,1061.5,214.3z"/>
<linearGradient id="SVGID_13_" gradientUnits="userSpaceOnUse" x1="1008.299" y1="162.3427" x2="1062.1625" y2="162.3427">
	<stop  offset="0" style="stop-color:#160900"/>
	<stop  offset="0.4047" style="stop-color:#180A01"/>
	<stop  offset="0.5505" style="stop-color:#1F0F04"/>
	<stop  offset="0.6545" style="stop-color:#2A180A"/>
	<stop  offset="0.7385" style="stop-color:#3B2411"/>
	<stop  offset="0.8105" style="stop-color:#51341C"/>
	<stop  offset="0.8742" style="stop-color:#6D4828"/>
	<stop  offset="0.9319" style="stop-color:#8D6038"/>
	<stop  offset="0.9831" style="stop-color:#B17A49"/>
	<stop  offset="1" style="stop-color:#BF844F"/>
</linearGradient>
<path class="st33" d="M1008.3,168.4c0.4,0.4,3.6-4.4,10.6-6.9c6.9-2.4,13.4-1.1,16.1-0.5c2.9,0.6,5.8,1.8,11.5,4.1c0,0,2.4,1,13,3.1
	c0.6,0.1,2,0.4,2.5-0.3c1-1.3-2-5.7-2-5.7c0,0-1.7-0.6-3.4-1.3c-2-0.7-3.8-1.4-4-1.5c-2-0.7-9.3-3-20.6-3.3
	c-6.3-0.2-9.4-0.3-11.9,0.7C1012,160,1007.8,167.9,1008.3,168.4z"/>
<path class="st12" d="M992.7,379.8c-0.8,11.1-2.2,20.2-3.3,26.5c60-0.6,119.9-1.2,179.9-1.8c-2.7-10.7-3.9-19.6-4.4-25.7
	c-3.2-35.4,6.4-57.4-7.5-71c-1.7-1.6-2.9-2.7-4.9-3.7c-10.7-5.6-27,0.5-75.3,1.6c-53,1.2-71.2-9.6-82.3,5
	C986.4,321.9,996.2,334.7,992.7,379.8z"/>
<path class="st30" d="M1115.4,336.3c-13.1,23.3-78.1,17.3-85.6-2.9c-3.6-9.7,3.6-29.2,3.6-29.2l0,0c6.6,0.4,14.7,0.7,23.9,0.8
	c10.6,0.1,18.7-0.1,24-0.2c8.7-0.2,19.9-0.6,33.2-1.6c0,0,0,0,0,0C1122.6,310.8,1119.7,328.8,1115.4,336.3z"/>
<rect x="976.3" y="404.3" class="st17" width="202.2" height="33.8"/>
<g>
	<path class="st12" d="M1050.9,418.5v-1.2c0-0.5-0.3-2.5-2.3-2.5c-2,0-2.3,2-2.3,2.5v1.2c0,0.2,0.3,1.7,2.8,2.5
		c4.6,1.6,4.7,4.7,4.7,4.9v1.2c0,0.1,0,1.2-0.6,2.4c-0.8,1.6-2.4,2.5-4.5,2.5s-3.7-0.9-4.5-2.5c-0.6-1.2-0.6-2.3-0.6-2.4v-1.2h2.8
		v1.2c0,0.4,0.3,2.5,2.3,2.5c2,0,2.3-2,2.3-2.5v-1.2c0-0.1-0.3-1.7-2.7-2.5c-4.4-1.6-4.7-4.7-4.7-4.9v-1.2c0-0.1,0-1.2,0.6-2.4
		c0.8-1.6,2.4-2.5,4.5-2.5s3.7,0.9,4.5,2.5c0.6,1.2,0.6,2.3,0.6,2.4v1.2H1050.9z"/>
	<path class="st12" d="M1063.7,425.9h-4.1l-1.3,6.2h-2.9l4.2-19.8h4l4.2,19.8h-2.9L1063.7,425.9z M1063.1,423.4l-1.5-7.1
		c-0.5,2.4-1,4.7-1.5,7.1H1063.1z"/>
	<path class="st12" d="M1079.1,425.9v6.2h-2.8v-6.2c0-1.1-1.1-2.5-2.3-2.5h-2.3v8.6h-2.8v-19.8h5.1c0.1,0,5.1,0,5.1,5.6
		c0,2.1-0.8,3.4-1.7,4.3C1078.5,423,1079.1,424.3,1079.1,425.9z M1076.3,417.9c0-1.4-0.4-2.3-1.1-2.7c-0.6-0.4-1.2-0.4-1.2-0.4h-2.3
		v6.2h2.3C1074.7,421,1076.3,420.3,1076.3,417.9z"/>
	<path class="st12" d="M1088.5,425.9h-4.1l-1.3,6.2h-2.9l4.2-19.8h4l4.2,19.8h-2.9L1088.5,425.9z M1088,423.4l-1.5-7.1
		c-0.5,2.4-1,4.7-1.5,7.1H1088z"/>
	<path class="st12" d="M1104,412.3v19.8h-2.8v-8.6h-4.6v8.6h-2.8v-19.8h2.8v8.6h4.6v-8.6H1104z"/>
</g>
<path class="st26" d="M985.7,190.3"/>
<path class="st29" d="M1147.6,303.8c-3.4,2.1-6,3.7-9.2,3.6c-4.2-0.2-4.6-4.6-9.2-5.4c0,0-1.4-0.2-10,2.4c0,0-2.7-1.4-4.6-1.2
	c-3.3,0.3-3.5,5.2-6.5,5.5c-2,0.2-2.4-1.8-5.5-2c-2.3-0.1-2.9,0.9-4,0.3c-2.1-1.1-2.2-5.8-2.2-6.9c0-1.1,0.1-2.4-0.7-3.9
	c-0.5-0.9-0.7-0.8-1-1.5c-0.9-2.1,1.1-3.5,1-6.2c-0.1-2.4-1.7-2.3-2-4.9c-0.3-2.3,0.6-5,2.5-6.4c1.4-1,2.1-0.4,3.9-1.5
	c0.3-0.2,2.6-1.7,3.2-4.3c0.7-2.6-0.7-3.8,0-7.8c0.1-0.4,0.2-0.9,0.4-1.4c1.3-3.4,3.2-3,5-6.4c2.1-4.1-0.3-5.6,1.1-11
	c1.6-6.2,5.3-6.3,6-12.1c0.5-4-1.2-5,0-7.8c1.5-3.5,4.4-2.8,7.1-6.8c2.2-3.2,0.7-4.1,3.2-9.6c2.1-4.5,3.7-5.1,3.4-7.3
	c-0.4-3.2-4.1-3.3-4.8-6.6c-0.7-3.6,3.2-5,2.8-9.2c-0.3-3.3-2.7-3.2-3.9-7.5c-1.1-4,0.8-5-0.4-9.2c-1-3.9-2.7-3.6-3.6-7.4
	c-1.1-4.6,1-5.9-0.6-8.9c-1.2-2.3-2.6-1.8-5.3-5.3c-2.1-2.7-1.5-3.2-3.2-5c-2.5-2.6-4.6-2.3-7.5-4.3c-3.4-2.3-4.4-5.4-5.6-7.5
	c-5.3-9.5-22.1-11.4-25.1-11.7c-13-1.5-22.5,3.5-30.1,7.5c-3.8,2-5.4,3.5-6.4,5c-3.3,4.7-1.1,8.2-4.3,11.4c-3.2,3.2-7.3,1.4-8.9,4.6
	c-1.2,2.3,0.6,3.7-0.7,6.4c-1.4,2.7-3.7,2.1-5,4.6c-1.4,2.8,1,4.4,0,8.2c-0.9,3.7-3.4,3.4-4.6,7.1c-1.2,3.7,1,4.7,0.4,9.6
	c-0.7,5.2-3.4,5.2-3.6,9.6c-0.1,4.2,2.4,4.8,2.5,10c0,3.8-1.3,3.9-1.1,7.1c0.4,4.6,3.2,5,3.9,9.6c0.7,4.7-2,6-0.7,9.2
	c1.5,3.7,5.4,2.9,7.1,6.8c1.6,3.5-1.2,5.3,0.4,8.9c1.7,3.9,5.5,3.3,6.8,7.1c1,2.9-0.4,4.2,0,7.8c0.2,2.2,1.1,4.2,5.7,10
	c6,7.4,8.7,11.3,13.2,13.9c3.1,1.7,4.8,1.9,7.1,4.3c1.7,1.7,2.7,3.7,4.6,7.8c1.8,3.8,2.8,5.8,2.5,7.5c-0.4,2.6-2.5,5.3-5,5.7
	c-2.2,0.4-2.7-1.4-5.7-1.8c-3.8-0.4-4.3,2.1-8.5,2.1c-3.7,0-7.4-2-8.9-2.8c-2-1.1-2.5-1.8-3.8-1.8c-2.9,0-4.2,3.3-6.2,2.8
	c-1.8-0.4-1.3-3.1-3.2-4c-3-1.5-6.6,3.9-10.3,2.6c-1.9-0.7-3-3-3.6-4.3c-1.4-3-0.7-5.3-1.8-5.7c-1.2-0.4-2.3,2.8-5,3.2
	c-2.4,0.3-2.9-1.9-6.8-3.2c-4.6-1.6-6.4,0.5-9.2-1.4c-2.6-1.8-1.7-4.1-4.3-5.3c-2.8-1.4-4.9,0.9-7.5-0.7c-1.8-1.1-1.1-2.5-3.2-4.6
	c-2.6-2.6-4.6-1.6-6.2-3.6c-2-2.4,0.4-4.8-0.5-10c-0.9-5-3.5-4.8-4.3-9.6c-0.7-4.5,1.4-5,1.1-10.3c-0.4-6-3.3-6.7-2.8-11
	c0.5-5.1,4.7-5,6.6-10.8c2.1-6.6-2.6-8.9-0.5-16.2c1.4-4.9,3.8-5,4.6-10.1c0.8-5-1.5-6-0.3-9.8c1.6-5.3,6.5-5.4,7.1-10
	c0.5-3.8-2.7-4.9-2.1-8.9c0.6-4.2,4.2-4.2,6-8.9c2.1-5.5-2.1-7.9-0.4-14.2c1.5-5.2,4.6-4.6,6.4-10.3c1.8-5.9-1-8.2,1.4-12.4
	c2.2-3.9,5.2-2.9,7.5-6.8c2.7-4.6-0.2-8.1,1.4-12.8c2.1-6.1,10-8.6,13.7-9.8c25.7-8.4,52-27.8,62.8-25.7c0.5,0.1,7.5,1.6,7.5,1.6
	l0,0c0,0,7.8-0.7,8.5-0.8c12-1,27.1,13,47.1,20.6c2.4,0.9,6.1,2.3,9.1,5.9c3.1,3.7,2.1,5.9,5.7,11.4c3.2,4.9,4.7,4.2,6.6,8.3
	c2.4,5,0.3,6.6,2.7,10.6c2.7,4.5,6,3.6,7.8,7.8c1.6,3.8-0.6,5.2,1.1,9.2c1.8,4.4,5,3.7,6.4,7.5c1.6,4.2-1.9,6.1-1.2,13
	c0.4,4,1.5,3.7,2.3,8.7c1,6.1-0.8,6.7,0,12.1c1,7.1,4.3,8,3.6,12.8c-0.6,4.4-3.5,4.6-3.6,8.5c-0.1,4.6,3.8,5.6,3.9,10.7
	c0.1,3.8-2.1,4.2-1.8,7.8c0.4,4.3,3.5,4.5,4.3,8.9c0.6,3.7-1.6,4.4-1.8,10c-0.1,2.8,0.4,4.8,1,7.2c1.8,7.6,4.3,8.1,4.2,12.3
	c-0.2,4.6-3.1,5.2-2.7,9.4c0.5,4.3,3.8,5.7,3,8.1c-0.8,2.5-4.5,1.4-8.7,4.4c-5.3,3.8-4.1,8.9-8.4,10.4c-3.5,1.3-4.9-1.8-9.4-0.7
	C1153,298.5,1153.1,300.5,1147.6,303.8z"/>
<linearGradient id="SVGID_14_" gradientUnits="userSpaceOnUse" x1="998.6686" y1="108.4986" x2="998.6686" y2="275.2604">
	<stop  offset="0" style="stop-color:#492912"/>
	<stop  offset="0.4121" style="stop-color:#4B2B13"/>
	<stop  offset="0.6021" style="stop-color:#523318"/>
	<stop  offset="0.7465" style="stop-color:#5F3F21"/>
	<stop  offset="0.8679" style="stop-color:#70522D"/>
	<stop  offset="0.9737" style="stop-color:#87693D"/>
	<stop  offset="1" style="stop-color:#8E7042"/>
</linearGradient>
<path class="st34" d="M995.6,134c-1.9,3.3-3.9,2.9-4.5,5.4c-0.8,3,1.8,4.3,1,7.3c-0.7,2.7-2.9,2.3-4,5.3c-1.2,3.2,0.9,4.5-0.3,7.6
	c-1.1,2.8-3.2,2.2-4.8,5.3c-1.5,2.9,0.1,3.9-1.3,7.8c-1.3,3.8-3.3,4.1-3.3,6.8c0,2.5,1.7,2.6,2.3,5.5c0.7,3.8-1.8,4.8-1.3,8.6
	c0.5,3.8,3.2,4.1,3.3,7.6c0,3-1.9,3.2-2.3,6.8c-0.3,3.7,1.7,4.6,1,7.6c-0.7,3.1-3.1,3-3.6,5.8c-0.6,3.3,2.6,4.4,2.3,8.1
	c-0.2,3.7-3.4,4.2-3.3,7.6c0.1,3.5,3.5,4.3,3.3,7.6c-0.2,2.7-2.4,2.7-3,5.8c-0.7,3.4,1.9,4.5,1.8,8.8c-0.1,3.2-1.6,3.6-1.8,6.3
	c-0.3,5.5,5.3,10.2,5.8,9.8c0.3-0.2-1.6-2.3-2.3-6.3c-0.7-4.4,1-5.4,0.8-10.8c-0.2-4.5-1.4-4.6-1-7.8c0.6-4.2,2.7-4.8,2.5-8.1
	c-0.2-3.5-2.8-4.3-2.3-7.1c0.5-2.4,2.6-2.3,3.3-4.8c0.8-3-2-4.3-1.5-8.1c0.2-1.4,0.6-1,2.3-5.3c1.1-2.7,1.6-4,1.8-5.5
	c0.4-3-0.7-3.4-0.3-5.8c0.6-3.4,2.8-3.4,3-6.1c0.3-3.2-2.9-3.9-3-7.8c-0.1-3,1.6-3.6,1-6.3c-0.5-2.3-1.9-2.5-2.3-4.8
	c-0.3-1.7,0.4-2.1,1.1-5.2c0.9-4.3-0.1-4.9,0.9-7.6c1.1-2.9,2.2-2.3,3.5-5.3c1.8-3.9-0.1-5.4,1.8-8.6c1.6-2.7,3.3-2.4,4-4.8
	c0.6-2.2-0.6-3-0.5-5.8c0.1-2,0.7-2.2,3-7.1c2.8-6,2.4-6.8,4.3-8.8c1.6-1.7,2.5-1.8,3.4-3.6c1.2-2.4,0.3-3.8,1.4-5.2
	c1.3-1.7,3.3-0.9,6.1-2c4.5-1.8,7.1-7.2,6.3-8.1c-0.4-0.4-1.4,0.4-9.1,4c-3.5,1.6-4.4,2-5.5,3.3c-1.8,2-1.1,3.1-3,5.8
	c-2,2.9-3.2,2.3-4.8,4.8C996,129.5,997.4,130.8,995.6,134z"/>
<linearGradient id="SVGID_15_" gradientUnits="userSpaceOnUse" x1="1011.7128" y1="224.4446" x2="1011.7128" y2="409.4522" gradientTransform="matrix(1.0107 -0.1992 0.1847 0.9374 -64.0229 107.9713)">
	<stop  offset="0" style="stop-color:#492912"/>
	<stop  offset="0.4121" style="stop-color:#4B2B13"/>
	<stop  offset="0.6021" style="stop-color:#523318"/>
	<stop  offset="0.7465" style="stop-color:#5F3F21"/>
	<stop  offset="0.8679" style="stop-color:#70522D"/>
	<stop  offset="0.9737" style="stop-color:#87693D"/>
	<stop  offset="1" style="stop-color:#8E7042"/>
</linearGradient>
<path class="st35" d="M1001.9,152c-0.7,3.3-3.4,3.4-3.6,6c-0.2,3,2.6,3.7,2.4,6.7c-0.2,2.6-2.5,2.8-3.1,5.8
	c-0.6,3.2,1.8,4.1,1.1,7.1c-0.6,2.8-2.8,2.7-3.9,5.9c-1,3,0.8,3.7,0.2,7.6c-0.6,3.9-2.6,4.5-2.1,7c0.5,2.3,2.2,2.1,3.3,4.7
	c1.5,3.4-0.9,4.8,0.3,8.3c1.2,3.5,4,3.2,4.7,6.4c0.6,2.8-1.4,3.4-1,6.8c0.3,3.6,2.6,3.9,2.4,6.9c-0.2,3-2.6,3.4-2.6,6.1
	c0,3.2,3.4,3.6,3.9,7.1c0.5,3.5-2.6,4.6-1.9,7.7c0.7,3.2,4.3,3.3,4.7,6.4c0.3,2.5-1.9,3-2,6c0,3.4,2.8,3.8,3.4,7.9
	c0.1,0.7,0.1,1.1,0.1,1.8c0,7-0.1,10.5,0.9,12.7c2.6,5.7,13.4,6,13.6,5.3c0.2-0.5-5-1.3-7.9-6c-0.8-1.2-1.2-3-2.2-6.6
	c-0.5-1.9-1.3-5.3-2.2-8.6c-0.3-1.3-0.5-1.8-0.8-2.5c-0.8-1.8-1.5-2.3-1.6-4.6c-0.2-4.1,1.9-5,1.1-8.1c-0.9-3.2-3.6-3.5-3.6-6.2
	c0-2.4,2.2-2.6,2.4-5.1c0.3-3-2.8-3.6-3-7.3c-0.1-1.4,0.4-1,1.3-5.4c0.6-2.7,0.9-4.1,0.8-5.6c-0.2-2.9-1.3-3-1.3-5.4
	c0-3.3,2.2-3.7,1.9-6.3c-0.3-3.1-3.6-3-4.5-6.7c-0.7-2.8,1-3.7-0.1-6.1c-0.9-2.1-2.4-1.9-3.2-4c-0.6-1.5,0-2.1,0.1-5.1
	c0.2-4.2-1-4.6-0.5-7.4c0.5-2.9,1.8-2.6,2.6-5.7c1-4-1.1-5.1,0.2-8.4c1.1-2.8,2.9-2.9,3.2-5.3c0.2-2.2-1.2-2.7-1.6-5.3
	c-0.3-1.9,0.3-2.2,1.8-7.2c1.8-6.2,1.1-6.8,2.7-9.1c1.3-1.9,2.2-2.2,2.7-4c0.7-2.4,0.3-4.2,0.5-5.2c0.5-3.1,7.7-2.4,11.2-6
	c4.9-5.1,0.9-16.9-0.3-16.9c-1.1,0,1.2,10.1-4.1,13.8c-1.3,0.9-8.2,5-9.1,6.1c-0.3,0.4-0.6,0.8-0.6,0.8c-1.4,2.2-0.6,3.1-2,6
	c-1.5,3.1-2.8,2.8-4,5.4c-0.3,0.8-0.5,1.5-0.5,1.9C1001.9,148.9,1002.2,150.5,1001.9,152z"/>
<linearGradient id="SVGID_16_" gradientUnits="userSpaceOnUse" x1="-157.2733" y1="110.4414" x2="-157.2733" y2="277.2032" gradientTransform="matrix(-1 0 0 1 983.4393 0)">
	<stop  offset="0" style="stop-color:#492912"/>
	<stop  offset="0.4121" style="stop-color:#4B2B13"/>
	<stop  offset="0.6021" style="stop-color:#523318"/>
	<stop  offset="0.7465" style="stop-color:#5F3F21"/>
	<stop  offset="0.8679" style="stop-color:#70522D"/>
	<stop  offset="0.9737" style="stop-color:#87693D"/>
	<stop  offset="1" style="stop-color:#8E7042"/>
</linearGradient>
<path class="st36" d="M1143.8,135.9c1.9,3.3,3.9,2.9,4.5,5.4c0.8,3-1.8,4.3-1,7.3c0.7,2.7,2.9,2.3,4,5.3c1.2,3.2-0.9,4.5,0.3,7.6
	c1.1,2.8,3.2,2.2,4.8,5.3c1.5,2.9-0.1,3.9,1.3,7.8c1.3,3.8,3.3,4.1,3.3,6.8c0,2.5-1.7,2.6-2.3,5.5c-0.7,3.8,1.8,4.8,1.3,8.6
	c-0.5,3.8-3.2,4.1-3.3,7.6c0,3,1.9,3.2,2.3,6.8c0.3,3.7-1.7,4.6-1,7.6c0.7,3.1,3.1,3,3.6,5.8c0.6,3.3-2.6,4.4-2.3,8.1
	c0.2,3.7,3.4,4.2,3.3,7.6c-0.1,3.5-3.5,4.3-3.3,7.6c0.2,2.7,2.4,2.7,3,5.8c0.7,3.4-1.9,4.5-1.8,8.8c0.1,3.2,1.6,3.6,1.8,6.3
	c0.3,5.5-5.3,10.2-5.8,9.8c-0.3-0.2,1.6-2.3,2.3-6.3c0.7-4.4-1-5.4-0.8-10.8c0.2-4.5,1.4-4.6,1-7.8c-0.6-4.2-2.7-4.8-2.5-8.1
	c0.2-3.5,2.8-4.3,2.3-7.1c-0.5-2.4-2.6-2.3-3.3-4.8c-0.8-3,2-4.3,1.5-8.1c-0.2-1.4-0.6-1-2.3-5.3c-1.1-2.7-1.6-4-1.8-5.5
	c-0.4-3,0.7-3.4,0.3-5.8c-0.6-3.4-2.8-3.4-3-6.1c-0.3-3.2,2.9-3.9,3-7.8c0.1-3-1.6-3.6-1-6.3c0.5-2.3,1.9-2.5,2.3-4.8
	c0.3-1.7-0.4-2.1-1.1-5.2c-0.9-4.3,0.1-4.9-0.9-7.6c-1.1-2.9-2.2-2.3-3.5-5.3c-1.8-3.9,0.1-5.4-1.8-8.6c-1.6-2.7-3.3-2.4-4-4.8
	c-0.6-2.2,0.6-3,0.5-5.8c-0.1-2-0.7-2.2-3-7.1c-2.8-6-2.4-6.8-4.3-8.8c-1.6-1.7-2.5-1.8-3.4-3.6c-1.2-2.4-0.3-3.8-1.4-5.2
	c-1.3-1.7-3.3-0.9-6.1-2c-4.5-1.8-7.1-7.2-6.3-8.1c0.4-0.4,1.4,0.4,9.1,4c3.5,1.6,4.4,2,5.5,3.3c1.8,2,1.1,3.1,3,5.8
	c2,2.9,3.2,2.3,4.8,4.8C1143.4,131.4,1142,132.7,1143.8,135.9z"/>
<linearGradient id="SVGID_17_" gradientUnits="userSpaceOnUse" x1="-89.6021" y1="-7.5152" x2="-89.6021" y2="177.4924" gradientTransform="matrix(-1.0107 -0.1992 -0.1847 0.9374 1047.4622 107.9713)">
	<stop  offset="0" style="stop-color:#492912"/>
	<stop  offset="0.4121" style="stop-color:#4B2B13"/>
	<stop  offset="0.6021" style="stop-color:#523318"/>
	<stop  offset="0.7465" style="stop-color:#5F3F21"/>
	<stop  offset="0.8679" style="stop-color:#70522D"/>
	<stop  offset="0.9737" style="stop-color:#87693D"/>
	<stop  offset="1" style="stop-color:#8E7042"/>
</linearGradient>
<path class="st37" d="M1137.5,154c0.7,3.3,3.4,3.4,3.6,6c0.2,3-2.6,3.7-2.4,6.7c0.2,2.6,2.5,2.8,3.1,5.8c0.6,3.2-1.8,4.1-1.1,7.1
	c0.6,2.8,2.8,2.7,3.9,5.9c1,3-0.8,3.7-0.2,7.6c0.6,3.9,2.6,4.5,2.1,7c-0.5,2.3-2.2,2.1-3.3,4.7c-1.5,3.4,0.9,4.8-0.3,8.3
	c-1.2,3.5-4,3.2-4.7,6.4c-0.6,2.8,1.4,3.4,1,6.8c-0.3,3.6-2.6,3.9-2.4,6.9c0.2,3,2.6,3.4,2.6,6.1c0,3.2-3.4,3.6-3.9,7.1
	c-0.5,3.5,2.6,4.6,1.9,7.7c-0.7,3.2-4.3,3.3-4.7,6.4c-0.3,2.5,1.9,3,2,6c0,3.4-2.8,3.8-3.4,7.9c-0.1,0.7-0.1,1.1-0.1,1.8
	c0,7,0.1,10.5-0.9,12.7c-2.6,5.7-13.4,6-13.6,5.3c-0.2-0.5,5-1.3,7.9-6c0.8-1.2,1.2-3,2.2-6.6c0.5-1.9,1.3-5.3,2.2-8.6
	c0.3-1.3,0.5-1.8,0.8-2.5c0.8-1.8,1.5-2.3,1.6-4.6c0.2-4.1-1.9-5-1.1-8.1c0.9-3.2,3.6-3.5,3.6-6.2c0-2.4-2.2-2.6-2.4-5.1
	c-0.3-3,2.8-3.6,3-7.3c0.1-1.4-0.4-1-1.3-5.4c-0.6-2.7-0.9-4.1-0.8-5.6c0.2-2.9,1.3-3,1.3-5.4c0-3.3-2.2-3.7-1.9-6.3
	c0.3-3.1,3.6-3,4.5-6.7c0.7-2.8-1-3.7,0.1-6.1c0.9-2.1,2.4-1.9,3.2-4c0.6-1.5,0-2.1-0.1-5.1c-0.2-4.2,1-4.6,0.5-7.4
	c-0.5-2.9-1.8-2.6-2.6-5.7c-1-4,1.1-5.1-0.2-8.4c-1.1-2.8-2.9-2.9-3.2-5.3c-0.2-2.2,1.2-2.7,1.6-5.3c0.3-1.9-0.3-2.2-1.8-7.2
	c-1.8-6.2-1.1-6.8-2.7-9.1c-1.3-1.9-2.2-2.2-2.7-4c-0.7-2.4-0.3-4.2-0.5-5.2c-0.5-3.1-7.7-2.4-11.2-6c-4.9-5.1-0.9-16.9,0.3-16.9
	c1.1,0-1.2,10.1,4.1,13.8c1.3,0.9,8.2,5,9.1,6.1c0.3,0.4,0.6,0.8,0.6,0.8c1.4,2.2,0.6,3.1,2,6c1.5,3.1,2.8,2.8,4,5.4
	c0.3,0.8,0.5,1.5,0.5,1.9C1137.5,150.8,1137.1,152.4,1137.5,154z"/>
<linearGradient id="SVGID_18_" gradientUnits="userSpaceOnUse" x1="-261.6845" y1="162.3427" x2="-207.8212" y2="162.3427" gradientTransform="matrix(-1 0 0 1 873.826 0)">
	<stop  offset="0" style="stop-color:#160900"/>
	<stop  offset="0.4047" style="stop-color:#180A01"/>
	<stop  offset="0.5505" style="stop-color:#1F0F04"/>
	<stop  offset="0.6545" style="stop-color:#2A180A"/>
	<stop  offset="0.7385" style="stop-color:#3B2411"/>
	<stop  offset="0.8105" style="stop-color:#51341C"/>
	<stop  offset="0.8742" style="stop-color:#6D4828"/>
	<stop  offset="0.9319" style="stop-color:#8D6038"/>
	<stop  offset="0.9831" style="stop-color:#B17A49"/>
	<stop  offset="1" style="stop-color:#BF844F"/>
</linearGradient>
<path class="st38" d="M1135.5,168.4c-0.4,0.4-3.6-4.4-10.6-6.9c-6.9-2.4-13.4-1.1-16.1-0.5c-2.9,0.6-5.8,1.8-11.5,4.1
	c0,0-2.4,1-13,3.1c-0.6,0.1-2,0.4-2.5-0.3c-1-1.3,2-5.7,2-5.7c0,0,1.7-0.6,3.4-1.3c2-0.7,3.8-1.4,4-1.5c2-0.7,9.3-3,20.6-3.3
	c6.3-0.2,9.4-0.3,11.9,0.7C1131.8,160,1136,167.9,1135.5,168.4z"/>
<path class="st39" d="M1072.1,221.4c-2.4,0.1-4.1-1.7-5-2.6c-0.7-0.7-1.5-1.7-1.3-2c0.3-0.4,3,3,6.3,2.9c3.2-0.1,5.6-3.3,5.9-2.9
	c0.2,0.2-0.6,1.2-1.3,1.9C1075.7,219.8,1074.3,221.3,1072.1,221.4z"/>
<linearGradient id="SVGID_19_" gradientUnits="userSpaceOnUse" x1="1333.1886" y1="216.188" x2="1333.1886" y2="311.0278">
	<stop  offset="0" style="stop-color:#3F250B"/>
	<stop  offset="0.5526" style="stop-color:#3F250B"/>
	<stop  offset="0.6436" style="stop-color:#3F250B"/>
	<stop  offset="0.7907" style="stop-color:#41260C"/>
	<stop  offset="0.8464" style="stop-color:#482C10"/>
	<stop  offset="0.8866" style="stop-color:#543416"/>
	<stop  offset="0.9194" style="stop-color:#65411F"/>
	<stop  offset="0.9477" style="stop-color:#7B522B"/>
	<stop  offset="0.9727" style="stop-color:#97663A"/>
	<stop  offset="0.995" style="stop-color:#B77E4B"/>
	<stop  offset="1" style="stop-color:#BF844F"/>
</linearGradient>
<rect x="1258.6" y="216.2" class="st40" width="149.1" height="94.8"/>
<path class="st0" d="M1346.4,286.6c0,21.7,1.4,27.1-3.1,29.8c-3.2,1.9-5.2-0.1-19.9,1.1c-7.9,0.7-8.4,1.3-10.2,0.6
	c-6.5-2.8-6-14-5.3-31.2c0.4-10.9,1.7-13.6,3.4-15.7c4.1-5.1,10.8-6.8,17.5-8.5c7.3-1.9,11-2.8,13.9-1.2
	C1347.2,263.7,1346.4,269.6,1346.4,286.6z"/>
<linearGradient id="SVGID_20_" gradientUnits="userSpaceOnUse" x1="1316.1472" y1="266.9837" x2="1341.7458" y2="311.322">
	<stop  offset="0.2564" style="stop-color:#EAB27A"/>
	<stop  offset="0.3319" style="stop-color:#EDB780;stop-opacity:0.885"/>
	<stop  offset="0.6958" style="stop-color:#FACD9A;stop-opacity:0.3306"/>
	<stop  offset="0.9128" style="stop-color:#FFD5A4;stop-opacity:0"/>
</linearGradient>
<path class="st41" d="M1346.4,284.2c0,19.1,1.4,23.9-3.1,26.2c-3.2,1.7-5.2-0.1-19.9,1c-7.9,0.6-8.4,1.2-10.2,0.5
	c-6.5-2.4-6-12.3-5.3-27.4c0.4-9.6,1.7-11.9,3.4-13.9c4.1-4.5,10.8-6,17.5-7.5c7.3-1.7,11-2.5,13.9-1.1
	C1347.2,264,1346.4,269.2,1346.4,284.2z"/>
<path class="st0" d="M1407.5,175.8c2.7,36.1-21.1,63.1-33,76.5c-12,13.6-27.6,31.4-49.9,31.8c-26.5,0.4-45.3-23.9-56.7-38.8
	c-10.7-13.9-28.5-36.8-27.1-67.6c1.7-38,32.5-83.8,80.4-85.5C1370.5,90.6,1404.6,136.5,1407.5,175.8z"/>
<path class="st42" d="M1250.8,176c0.9,0.9,5.2-4.8,12.7-7.4c7.7-2.7,15.1-0.8,25.4,1.8c11.7,3,18,6.6,19.9,4.3
	c1.1-1.4,0.2-4.3-1-6.1c-2.6-4-7.1-3.7-28-5.5c-7.1-0.6-13.9-1.3-19.5,1.8c-2.8,1.5-5.1,3.8-5.3,4
	C1252.6,171.4,1250.1,175.3,1250.8,176z"/>
<path class="st42" d="M1396.1,176c-0.9,0.9-5.2-4.8-12.7-7.4c-7.7-2.7-15.1-0.8-25.4,1.8c-11.7,3-18,6.6-19.9,4.3
	c-1.1-1.4-0.2-4.3,1-6.1c2.6-4,7.1-3.7,28-5.5c7.1-0.6,13.9-1.3,19.5,1.8c2.8,1.5,5.1,3.8,5.3,4
	C1394.3,171.4,1396.8,175.3,1396.1,176z"/>
<path class="st10" d="M1349.4,242.7L1349.4,242.7c0,0-4.1,2.5-7.7,3.9h0c-0.3,0.1-2.8,0.9-5,1.3c-5.3,1-6.9-0.5-13.8-0.6
	c-6.2-0.1-8.4,1.1-13.9,0.4c-1.4-0.2-3.4-0.3-5.6-1.3c-2.1-1-3.5-2.3-4.3-3.2l0,0l0,0c1.4,0.4,2.6,0.6,3.4,0.6
	c1.3,0,2.6-0.2,5.1-0.6c2.1-0.4,2.9-0.7,4.3-1.1c0.2,0,0.3-0.1,0.6-0.1c0,0,0,0,0.1,0c0.6-0.2,1.4-0.3,2.5-0.5
	c2-0.3,2.7-0.3,3.5-0.2c0.7,0.1,1.6,0.4,3.1,0.9c0.4,0.1,0.8,0.3,1.2,0.4c0.2,0.1,0.3,0.1,0.4,0.2c0,0,0.1,0,0.1-0.1
	c0.1,0,0.2-0.1,0.2-0.1l1.2-0.4c0.8-0.3,1.9-0.6,2.6-0.7c1.3-0.3,2.4-0.1,4.2,0.1c1.5,0.2,2.9,0.5,4.1,0.7c1.4,0.3,2.5,0.5,3.1,0.7
	c0.3,0.1,0.5,0.1,0.6,0.1C1340.1,243.3,1350.9,242.4,1349.4,242.7z"/>
<path class="st10" d="M1330.2,250.1c0.1,0.3-3.3,2.7-7.7,2.8c-4.3,0-7.8-2.3-7.7-2.6c0.1-0.3,3.1,1.3,7.7,1.2
	C1327.1,251.5,1330.1,249.8,1330.2,250.1z"/>
<path class="st10" d="M1312.1,216.6c-0.1,0.7,5,2.9,10.7,2.8c5.4-0.1,10.2-2.3,10.1-3c-0.1-0.5-2.5-0.1-10.3,0
	C1314.6,216.5,1312.1,216.1,1312.1,216.6z"/>
<path class="st12" d="M1243.8,381c-0.8,11-2.2,20.1-3.2,26.3c59.6-0.6,119.1-1.2,178.7-1.8c-2.7-10.7-3.8-19.5-4.4-25.5
	c-3.2-35.2,6.4-57-7.4-70.5c-1.6-1.6-2.9-2.7-4.9-3.7c-10.6-5.5-26.8,0.5-74.8,1.6c-52.7,1.2-70.7-9.5-81.7,5
	C1237.4,323.5,1247.2,336.1,1243.8,381z"/>
<path class="st0" d="M1365.6,337.8c-13,23.2-77.5,17.2-85-2.9c-3.6-9.6,3.6-29,3.6-29l0,0c6.5,0.4,14.6,0.7,23.8,0.8
	c10.6,0.1,18.5-0.1,23.9-0.2c8.6-0.2,19.8-0.6,33-1.6c0,0,0,0,0,0C1372.7,312.4,1369.9,330.3,1365.6,337.8z"/>
<rect x="1227.4" y="405.3" class="st43" width="200.8" height="33.6"/>
<g>
	<path class="st12" d="M1286.5,430.9v2.4h-7.7v-19.6h2.8v17.2H1286.5z"/>
	<path class="st12" d="M1296.4,427.2h-4.1l-1.3,6.1h-2.8l4.2-19.6h4l4.2,19.6h-2.8L1296.4,427.2z M1295.9,424.8l-1.5-7
		c-0.5,2.4-1,4.7-1.5,7H1295.9z"/>
	<path class="st12" d="M1302.8,430.8c-0.6-1.2-0.6-2.3-0.6-2.4v-14.7h2.8v14.7c0,0.4,0.3,2.5,2.3,2.5s2.3-2,2.3-2.5v-14.7h2.8v14.7
		c0,0.1,0,1.2-0.6,2.4c-0.8,1.6-2.4,2.5-4.5,2.5C1305.2,433.3,1303.6,432.4,1302.8,430.8z"/>
	<path class="st12" d="M1324.1,427.2v6.1h-2.8v-6.1c0-1.1-1.1-2.4-2.3-2.4h-2.3v8.6h-2.8v-19.6h5.1c0.1,0,5.1,0,5.1,5.5
		c0,2.1-0.8,3.4-1.7,4.2C1323.5,424.4,1324.1,425.6,1324.1,427.2z M1321.3,419.2c0-1.4-0.4-2.2-1.1-2.7c-0.6-0.4-1.1-0.4-1.1-0.4
		h-2.3v6.1h2.3C1319.7,422.3,1321.3,421.6,1321.3,419.2z"/>
	<path class="st12" d="M1333.4,427.2h-4.1l-1.3,6.1h-2.8l4.2-19.6h4l4.2,19.6h-2.8L1333.4,427.2z M1332.9,424.8l-1.5-7
		c-0.5,2.4-1,4.7-1.5,7H1332.9z"/>
	<path class="st12" d="M1348.8,433.3h-3.4l-4-12.3v12.3h-2.8v-19.6h3.4l4,12.3v-12.3h2.8V433.3z"/>
	<path class="st12" d="M1360.6,433.3h-3.4l-4-12.3v12.3h-2.8v-19.6h3.4l4,12.3v-12.3h2.8V433.3z"/>
	<path class="st12" d="M1365,416.2v6.1h4.6v2.5h-4.6v6.1h6.1v2.4h-8.9v-19.6h8.9v2.5H1365z"/>
</g>
<linearGradient id="SVGID_21_" gradientUnits="userSpaceOnUse" x1="1323.6753" y1="89" x2="1323.6753" y2="321.8893">
	<stop  offset="0" style="stop-color:#3F250B"/>
	<stop  offset="0.5526" style="stop-color:#3F250B"/>
	<stop  offset="0.6436" style="stop-color:#3F250B"/>
	<stop  offset="0.7907" style="stop-color:#41260C"/>
	<stop  offset="0.8464" style="stop-color:#482C10"/>
	<stop  offset="0.8866" style="stop-color:#543416"/>
	<stop  offset="0.9194" style="stop-color:#65411F"/>
	<stop  offset="0.9477" style="stop-color:#7B522B"/>
	<stop  offset="0.9727" style="stop-color:#97663A"/>
	<stop  offset="0.995" style="stop-color:#B77E4B"/>
	<stop  offset="1" style="stop-color:#BF844F"/>
</linearGradient>
<path class="st44" d="M1391.6,119c3.9,5.8,6.4,13.9,11.6,30.2c3.4,10.7,6.3,20.3,7.7,33.1c1.2,10.8-0.4,10.1,0.2,27.8
	c0.8,22.2,3.2,22.5,2.1,35c-1.3,14.8-4.8,15.1-4,26.7c0.7,10.8,4,13,3,23.4c-0.5,5-1.6,9-0.6,15.4c0.5,2.9,1.9,9.3,1.9,9.3
	c8.9,0.7-25.7-1.9-26-1.9c-6.5-0.2-15.3,0-26,1.3c0,0,6.4-28.3,10.7-55.8c3-19.3,4.7-30.1,5.2-45.2c0.8-26,1.1-38.9-4.6-52
	c-13.7-31.7-54-50-54-50c0,0-32.8,21.5-45.1,52c-7.1,17.7-5.9,34.8-4.5,54.6c0.5,7.7,2.4,17.5,6,37.1l12.2,58.1
	c-7.7-0.1-15.9,0.1-24.4,0.5c-10.3,0.5-20,1.4-29,2.5c0.1,5.1-0.2-10.2-0.3-15.4c-0.4-19.3-1.2-21.6-1.2-30.8
	c-0.1-20.5,3.7-19.6,3.2-37c-0.4-16.7-3.9-17.3-3-31.1c0.6-10,2.5-10.2,6.3-29.4c4-19.6,2.4-21.3,5.3-32.1c2.1-7.6,5.8-21,16.6-33.2
	c21.4-24.3,53.1-23.1,55.4-22.5c0.1,0,3.4,0.8,3.4,0.8l0,0c0,0,3-0.7,3.1-0.8C1326,88.1,1370.6,87.4,1391.6,119z"/>
<path class="st21" d="M1308,208.6c-7.3,6-15.3,6.5-18.6,6.7c-5.6,0.3-14.1,0.7-19.9-5.5c-4.1-4.4-4.7-10-5.3-14.7
	c-0.6-4.4-2-14.9,3.8-21.2c4.6-4.9,10.6-4.7,22.2-4.4c10.9,0.3,20.4,0.6,25.1,7.7c3.1,4.6,2.9,10.7,2.9,11.5
	c-0.1,4.9-1.7,8.5-2.4,9.9C1313.3,204.2,1309.3,207.6,1308,208.6z"/>
<path class="st22" d="M1284.9,215.5c2.2,0.1,4.4,0.1,6.6,0.2c3.8-14.8,7.6-29.6,11.3-44.3c-1.2-0.1-2.5-0.3-3.7-0.4
	C1294.3,185.8,1289.6,200.6,1284.9,215.5z"/>
<path class="st45" d="M1289.6,215.5c-2.8,0.1-14.8,0.7-21.6-8.6c-4-5.4-4.3-11.6-4.4-14.1c-0.1-2.6-0.6-12.2,5.1-18.5
	c5.9-6.5,14.8-5.3,26.1-4.1c10,1.1,17.7,1.9,21.4,8.4c4.6,8,0.4,18.4-0.4,20.2C1309,214.3,1290.5,215.5,1289.6,215.5z"/>
<path class="st22" d="M1343,210.3c1.7,1,3.4,2,5.1,3c2.6-14,5.2-28,7.8-42c-1-0.1-2-0.3-3.1-0.4C1349.6,184,1346.3,197.2,1343,210.3
	z"/>
<path class="st46" d="M1331.6,192.1c-0.6-0.5-3.1-2.8-7-2.8c-3.9,0-6.5,2.2-7,2.8c0-1.9,0-3.7,0-5.6c2,0.5,4.5,0.9,7.3,0.9
	c2.6,0,4.9-0.4,6.7-0.9C1331.6,188.4,1331.6,190.3,1331.6,192.1z"/>
<path class="st47" d="M1265.8,177.3c0.1-0.3,0.4-2.4-1-3.9c-0.6-0.6-1.2-0.9-1.6-1.1c-0.1-0.4-0.2-1-0.2-1.7c0-0.6,0.1-1.2,0.2-1.6
	c2,0,4-0.1,6.1-0.1c3.1-0.1,6.2-0.2,9.1-0.3c-2.2,1-4.8,2.4-7.5,4.4C1268.9,174.4,1267.2,175.9,1265.8,177.3z"/>
<path class="st21" d="M1341.8,209.3c7.3,6,15.3,6.5,18.6,6.7c5.6,0.3,14.1,0.7,19.9-5.5c4.1-4.4,4.7-10,5.3-14.7
	c0.6-4.4,2-14.9-3.8-21.2c-4.6-4.9-10.6-4.7-22.2-4.4c-10.9,0.3-20.4,0.6-25.1,7.7c-3.1,4.6-2.9,10.7-2.9,11.5
	c0.1,4.9,1.7,8.5,2.4,9.9C1336.4,204.9,1340.5,208.3,1341.8,209.3z"/>
<path class="st45" d="M1360.1,216.2c2.8,0.1,14.8,0.7,21.6-8.6c4-5.4,4.3-11.6,4.4-14.1c0.1-2.6,0.6-12.2-5.1-18.5
	c-5.9-6.5-14.8-5.3-26.1-4.1c-10,1.1-17.7,1.9-21.4,8.4c-4.6,8-0.4,18.4,0.4,20.2C1340.8,215,1359.2,216.2,1360.1,216.2z"/>
<path class="st47" d="M1384,178c-0.1-0.3-0.4-2.4,1-3.9c0.6-0.6,1.2-0.9,1.6-1.1c0.1-0.4,0.2-1,0.2-1.7c0-0.6-0.1-1.2-0.2-1.6
	c-2,0-4-0.1-6.1-0.1c-3.1-0.1-6.2-0.2-9.1-0.3c2.2,1,4.8,2.4,7.5,4.4C1380.9,175.2,1382.6,176.6,1384,178z"/>
<radialGradient id="SVGID_22_" cx="1290.9366" cy="192.3943" r="25.821" gradientUnits="userSpaceOnUse">
	<stop  offset="0.3692" style="stop-color:#BC7104"/>
	<stop  offset="0.6405" style="stop-color:#BA7004;stop-opacity:0.57"/>
	<stop  offset="0.7382" style="stop-color:#B36C04;stop-opacity:0.4151"/>
	<stop  offset="0.8079" style="stop-color:#A86505;stop-opacity:0.3046"/>
	<stop  offset="0.8641" style="stop-color:#975A06;stop-opacity:0.2154"/>
	<stop  offset="0.9124" style="stop-color:#814D07;stop-opacity:0.1389"/>
	<stop  offset="0.9551" style="stop-color:#653C09;stop-opacity:7.125962e-02"/>
	<stop  offset="0.9927" style="stop-color:#46290B;stop-opacity:1.152462e-02"/>
	<stop  offset="1" style="stop-color:#3F250B;stop-opacity:0"/>
</radialGradient>
<path class="st48" d="M1289.6,215.5c-2.8,0.1-14.8,0.7-21.6-8.6c-4-5.4-4.3-11.6-4.4-14.1c-0.1-2.6-0.6-12.2,5.1-18.5
	c5.9-6.5,14.8-5.3,26.1-4.1c10,1.1,17.7,1.9,21.4,8.4c4.6,8,0.4,18.4-0.4,20.2C1309,214.3,1290.5,215.5,1289.6,215.5z"/>
<radialGradient id="SVGID_23_" cx="-214.6048" cy="193.1029" r="25.821" gradientTransform="matrix(-1 0 0 1 1144.2587 0)" gradientUnits="userSpaceOnUse">
	<stop  offset="0.3692" style="stop-color:#BC7104"/>
	<stop  offset="0.6405" style="stop-color:#BA7004;stop-opacity:0.57"/>
	<stop  offset="0.7382" style="stop-color:#B36C04;stop-opacity:0.4151"/>
	<stop  offset="0.8079" style="stop-color:#A86505;stop-opacity:0.3046"/>
	<stop  offset="0.8641" style="stop-color:#975A06;stop-opacity:0.2154"/>
	<stop  offset="0.9124" style="stop-color:#814D07;stop-opacity:0.1389"/>
	<stop  offset="0.9551" style="stop-color:#653C09;stop-opacity:7.125962e-02"/>
	<stop  offset="0.9927" style="stop-color:#46290B;stop-opacity:1.152462e-02"/>
	<stop  offset="1" style="stop-color:#3F250B;stop-opacity:0"/>
</radialGradient>
<path class="st49" d="M1360.2,216.2c2.8,0.1,14.8,0.7,21.6-8.6c4-5.4,4.3-11.6,4.4-14.1c0.1-2.6,0.6-12.2-5.1-18.5
	c-5.9-6.5-14.8-5.3-26.1-4.1c-10,1.1-17.7,1.9-21.4,8.4c-4.6,8-0.4,18.4,0.4,20.2C1340.8,215,1359.3,216.2,1360.2,216.2z"/>
</svg>
